<svg xmlns="http://www.w3.org/2000/svg" viewBox="0 0 512 128"><defs><style>.a{fill:red;}</style></defs><title>logo-aff</title><path d="M84.7,93.65c-1,0-2.08,0-2.08-1.07v-.16s.12-1.52.18-2.81C83,85.65,83,78.05,83,75c0-1.43,0-2.86,0-4.29s0-2.86,0-4.29A61.68,61.68,0,0,0,82.56,57l0-.13h.13c4.52.39,5.37.49,5.37,1.34v.11c0,.4-.29,1-1.68,1.42V75c0,.31,0,1,0,1.9,0,1.91,0,4.88,0,7.76v3h39.52c.06-1.41.06-2.67.06-12.81V62.71a33.65,33.65,0,0,0-.48-5.81l0-.13h.14c1.94.11,3.72.32,4.39.43.45.15,1,.33,1,.91v.11c0,.4-.29,1-1.68,1.42V74.86c0,3.57,0,10.18.18,14.36,0,.26,0,.74,0,1.24s0,1.13,0,1.47c0,.76-.61,1.25-1.77,1.4h-.08c-1,0-2,0-2-1.07v-.16l.12-2.22v-.33H86.31a10.4,10.4,0,0,1,0,1.2v1.51c0,.92-1,1.34-1.65,1.4Zm18.42-8.48c-.67,0-.91-.22-1.05-.55-.29-1-.37-1.07-4.61-2.16a.75.75,0,0,1-.5-.74.8.8,0,0,1,.76-.86h.18a32,32,0,0,0,5.88,1c2.42-.05,2.84-2.87,3-12.54V58.71l-5.22-.05c-.29,1-.52,1.83-.64,2.2a1.36,1.36,0,0,1-1.35.72,6.09,6.09,0,0,1-1.66-.28.67.67,0,0,1-.36-.58c0-.23,0-.48,1-2.74a56.61,56.61,0,0,0,2.18-7.08l.13-.5H95.38c-1,0-11.73.1-15,.43a4.69,4.69,0,0,1-1.13-2.74V48h.12c3.6.38,15.78.54,17.57.54h28.5a14.21,14.21,0,0,1,2.76-3l.1-.05a.51.51,0,0,1,.26-.08h0l.11,0,.21.08a20.63,20.63,0,0,1,4.41,3.21.8.8,0,0,1,.21.56c0,.54-.34,1.13-1.3,1.13H104.15c-.74,2.5-1.26,4.18-2,6.55h4.54c1.46-1.35,1.46-1.35,1.56-1.35s3.34,1.41,3.34,2.8c0,.37-.26,1-2,1.33,0,.82,0,1.81,0,2.92,0,1.4,0,3,0,4.6l.08,0c5.1-3.06,8.41-5.82,9.33-7.75l0-.09.09,0c1.34.71,3.47,2.57,3.47,3.44,0,.28-.13.75-1,.75a7.24,7.24,0,0,1-1.52-.27A63.13,63.13,0,0,1,109.58,69v2.07c5.1,1.7,13.56,5.06,13.56,8.55a1.57,1.57,0,0,1-1.42,1.72c-.58,0-1.16-.38-1.88-1.22a30.25,30.25,0,0,0-10.33-7.36,51.12,51.12,0,0,1-.54,6.88C108.08,84.9,103.94,85.17,103.12,85.17ZM92.38,81.71c-1.62,0-3.73-4.06-3.75-4.11l-.06-.12.13,0c4.14-.84,9.56-3,16.11-6.47.07-.07.16-.07.29-.07.37,0,.76.5.76,1a.76.76,0,0,1-.27.51,111.84,111.84,0,0,1-12.67,7.05,4.6,4.6,0,0,1,.16,1.19C93.08,81.31,92.82,81.71,92.38,81.71Zm7.26-11.45A2.15,2.15,0,0,1,98,69c-2-3-5.95-5.65-7.58-6.44a.39.39,0,0,1-.24-.31,1.12,1.12,0,0,1,.94-.91c.85,0,8.66,3.32,9.57,5.63a3.75,3.75,0,0,1,.31,1.39C101,69.29,100.64,70.26,99.64,70.26Z"/><path d="M176.26,93.43a1.16,1.16,0,0,1-1.1-.48c-.58-1.26-1.38-1.64-7.85-2.49h0c-.25,0-.39-.39-.39-.75s.18-1,.58-1c6,.49,8,.65,9.36.65a3.11,3.11,0,0,0,3.26-2.92V69.94h-6.8c-1.64,0-14.17.16-17.33.43a5.08,5.08,0,0,1-1.31-2.91v-.11h.11c2.22.26,15.94.59,20.09.59h5.24V65.68a36,36,0,0,0-.42-6.3l0-.14.14,0c.84.11,1.68.22,2.39.27a65.48,65.48,0,0,0,11-8.44h-14c-3.76,0-14.18.27-16.49.49a6,6,0,0,1-1.37-2.79v-.12h.12c2.7.32,15.23.54,17.81.54h14.88c1.15-1,1.8-1.4,2.1-1.4a.42.42,0,0,1,.31.13c3.32,1.83,3.75,2.74,3.75,3.31,0,.37-.19,1.23-2,1.23a7.53,7.53,0,0,1-1.46-.16A128,128,0,0,1,184.57,60a.78.78,0,0,1,.42.7c-.06.33-.37.76-1.5,1V68h16.64c2.65-3.13,3-3.13,3.06-3.13.67,0,5.08,2.93,5.08,4.1,0,.47-.32,1-1.24,1H183.5V81c0,.76.12,5.64.18,6.47C183.68,90.47,179.36,93.43,176.26,93.43Z"/><path d="M229,93.54c-.54,0-1.36-.41-1.36-1a.47.47,0,0,1,.15-.4c5.51-6.33,8.19-16,8.19-29.46,0-9.31-1-13.89-1.62-15.79l-.05-.17.17,0a20.39,20.39,0,0,1,4.89,2h31.88c.22-.29,1.34-1.62,1.85-1.62.7,0,3.7,2.21,3.7,3.12,0,.35-.28,1-2.17,1.33a82.82,82.82,0,0,0-.83,11.25c0,10.78,2.37,19.68,6.51,24.47.3-1.15,1.38-5.31,2.59-11.1a.77.77,0,0,1,.82-.51c.6,0,1.24.3,1.24.75-.51,2.7-1.8,10.18-1.8,11.18a4.23,4.23,0,0,0,.52,2.37,2.69,2.69,0,0,1,.56,1.57,1.6,1.6,0,0,1-.64,1.27,1.21,1.21,0,0,1-.9.29c-2,0-12-5.44-12-31.31,0-3.39.19-7.05.59-11.19H238.94c.42,8.33.42,9.62.42,11.4,0,19-5.37,26.74-10,31.39A.46.46,0,0,1,229,93.54Zm40.8-1.62c-.57,0-1.13-.58-1.65-1.73a34.56,34.56,0,0,0-1.94-3.71c-7.71,1.31-16.31,2.43-23.62,3.06-.17,1.07-.61,2.28-1.35,2.28-1,0-2.2-3.48-2.5-5.27l0-.13.13,0a23.52,23.52,0,0,0,3,.22c1.67,0,7.09-.35,11.42-.69V76.8h-6.4v1.74c0,.73-1.08,1.07-1.54,1.07h-.48c-.58,0-1.24-.1-1.24-.86,0-.09,0-.44.08-.85s.07-.66.1-.94c.05-.52.12-1.73.12-4.58,0,0,.06-4.32.06-4.91a18.88,18.88,0,0,0-.42-4.3l0-.17.16.05a23.81,23.81,0,0,1,3.68,1.57h5.91V58.34c-3.86.4-7.91.64-11.42.69-.44,0-.94-.71-.94-1.18a.44.44,0,0,1,.46-.48c8.82-.44,19.73-2,22.56-4.08l0,0,.05,0c1.4.66,3.18,2.34,3.18,3,0,.49-.49.8-1.24.8a3,3,0,0,1-1.68-.45,59.73,59.73,0,0,1-8,1.41v6.56h6.26a5.71,5.71,0,0,1,1.14-1.28,1,1,0,0,1,.42-.13.33.33,0,0,1,.25.08l.14,0a8.35,8.35,0,0,1,2.13,1.44L267,65l.12.11a1,1,0,0,1,.51.78c0,.49-.57.86-1.8,1.16v3.76c0,1,0,2.08.09,3.4l0,.91c0,.14,0,.6,0,1.05s0,.92,0,1.06v.16c0,.37-.19,1.23-1.9,1.23-.84,0-1.36-.33-1.36-.86l.05-1h-6.45v8.92c3.85-.3,6.69-.55,8.9-.78a29.43,29.43,0,0,0-4.39-4.81.49.49,0,0,1-.15-.34.92.92,0,0,1,.94-.75c1.27,0,9.52,6.88,9.52,10.58C271.16,90.9,270.56,91.92,269.8,91.92Zm-7-16.83c0-.8,0-1.74,0-2.38,0-.34,0-.6,0-.71V66.32h-6.52v8.76Zm-9.48,0V66.32h-6.4c0,2.27-.06,7.52-.06,7.52,0,.19,0,.69.05,1.25Z"/><path d="M352.06,93.86c-.56,0-1.24-.53-2.06-1.61a23.32,23.32,0,0,0-4.84-4.68c-7.76,1.31-16.38,2.22-32.84,3.47-.08,1.35-.54,2.22-1.18,2.22-1.14,0-2.29-3.21-2.74-5.48l0-.14.14,0a30.31,30.31,0,0,0,4.55.27c2,0,4,0,6.13-.1h.23a52.83,52.83,0,0,0,4.94-7.41h-.5c-2.61,0-14.75.17-17.45.43a4.06,4.06,0,0,1-1.13-2.42v-.22h.11c2.92.26,15.69.54,20,.54l23.58-.05s2.13-2.75,2.82-2.75c.34,0,5,2.34,5,3.39,0,.51-.42,1-1.36,1l-26.52.05a89.25,89.25,0,0,1-6.64,7.29c9-.38,16.75-1.14,20.74-1.58a50.59,50.59,0,0,0-5.86-3.08c-.33-.18-.48-.37-.48-.63a.87.87,0,0,1,.94-.75c.89,0,15.94,5.8,15.94,10.14A1.92,1.92,0,0,1,352.06,93.86ZM312.45,74.23a3.72,3.72,0,0,1-1.05-2.34v-.22h.11c3,.28,12.57.54,16.61.54h14.16s2.48-2.65,3.06-2.65,5.08,2.2,5.08,3.34c0,.39-.36,1-1.36,1H326.62c-2.08,0-11.24.1-14.09.38h0ZM330.34,70c-.52,0-1.12-.1-1.12-.86,0-.26,0-.52.06-.86s.09-.89.12-1.52c.06-1.24.12-4.35.12-5.4V56H311.1c-1,4.94-4,8-6.26,8a1.43,1.43,0,0,1-1.54-1.5,2.1,2.1,0,0,1,1.08-1.87,10.14,10.14,0,0,0,5.16-8.34c0-.29.43-.47.82-.47s.93.18,1,.57a4.56,4.56,0,0,1,.06.94,6.8,6.8,0,0,1,0,.93h18.14V49.74h-5.24c-2.6,0-9.94.06-12.65.32a3.24,3.24,0,0,1-1.13-2.21v-.22h.11c2.91.27,10.8.43,15.17.43h18.78c.17-.31,2.61-2.81,3.06-2.81s5.14,2.3,5.14,3.5c0,.39-.36,1-1.36,1H332.54v4.44h19.82c1.5-1.39,1.71-1.46,1.92-1.46a.29.29,0,0,1,.19.08l.16.1c1.06.5,4,2.26,4,3.43,0,.69-.56,1-1.72,1-.43,0-.92,0-1.45-.09l-.18,0a43.52,43.52,0,0,1-5,3.56.92.92,0,0,1,.09.34c0,.43-.51.75-1.18.75H341a32.36,32.36,0,0,0-4.61.27,3.41,3.41,0,0,1-1.07-2.2v-.12l.12,0a47,47,0,0,0,6.77.43H344a12.08,12.08,0,0,1,2-2l.1-.05a.52.52,0,0,1,.26-.08,9.44,9.44,0,0,1,2.92,1.63A44.64,44.64,0,0,0,352,56H332.54v5.89c0,.44,0,1.29,0,2.17s0,2,0,2.52c0,.76,0,1.34,0,1.76,0,.24,0,.43,0,.56C332.66,69.62,331.88,70,330.34,70Zm6.24-2.24a3.59,3.59,0,0,1-1-2.17v-.12l.12,0a45.16,45.16,0,0,0,6.71.48h2.76a11.89,11.89,0,0,1,2-2l.1-.05a.51.51,0,0,1,.26-.08c.54,0,4.06,2,4.06,3,0,.42-.47.69-1.18.69h-9.18a32.35,32.35,0,0,0-4.61.27h0Zm-25,0a3.59,3.59,0,0,1-1-2.17v-.12l.12,0a51.8,51.8,0,0,0,7.13.48H320a11.91,11.91,0,0,1,2-2l.1-.05a.52.52,0,0,1,.26-.08c.66,0,4.12,2.07,4.12,3,0,.48-.64.69-1.24.69h-8.58c-1.07,0-1.84.06-2.66.13s-1.39.11-2.32.14h0Zm.78-5.62a3.59,3.59,0,0,1-1-2.17v-.12l.12,0a50.89,50.89,0,0,0,7,.43h1.68a12,12,0,0,1,2-2l.1-.05a.51.51,0,0,1,.26-.08c.74,0,4.06,2.13,4.06,3,0,.45-.46.75-1.18.75h-8.16a36,36,0,0,0-4.85.27h0Z"/><path d="M412.36,94.08c-.33,0-.55-.22-.69-.66-.52-1.5-1.4-1.6-5.11-2a.66.66,0,0,1-.47-.7c0-.45.24-1,.54-1l1.4.14c1.6.16,3,.31,4.64.35,1.13,0,2.36-.71,2.36-1.84V77.27a77.25,77.25,0,0,1-10.87,9.34,3.37,3.37,0,0,1,.39,1.37.86.86,0,0,1-.94.91c-1.37,0-3.9-3.41-3.92-3.45l-.08-.11.13,0c3.41-1,10.9-6.2,15.32-10.24l0-10.79h-3.2c-1.73,0-8.62,0-10.67.27a3.81,3.81,0,0,1-1.13-2.31v-.12l.12,0c2.14.28,10.5.49,13.25.49h6.7c.22-.83.53-2,.88-3.41l.39-1.52H408.17l-.28.8-.17.43c-.11.28-.21.56-.38.88A1.48,1.48,0,0,1,405.82,61c-.83,0-1.72-.36-1.72-1a.83.83,0,0,1,.14-.55s.83-1.61,1.19-2.57c2-6.2,2.93-9.73,2.93-11.47v-.49h.11c1.31.15,4.35.61,4.35,1.56,0,.5-.56.79-1.58.8-.11.54-.22,1-.37,1.53h12l.07-.13a6,6,0,0,1,.46-.49c.21-.28.57-.78,1-.78s3.52,1.78,3.52,2.75c0,.68-1,1-1.94,1.17l-2.83,11.32h4a14.19,14.19,0,0,1,2.16-2.35l.1-.05a.52.52,0,0,1,.26-.08c.3,0,4.42,2.34,4.42,3.39,0,.45-.51.75-1.3.75H418l.06,3.52a48.64,48.64,0,0,0,3.35,7.46c1-.82,6.48-5.44,7.25-8.57l0-.1.1,0s4.15,1.41,4.15,2.8c0,.37-.27.8-1.54.8l-.42,0c-.15,0-.3,0-.48,0a52.54,52.54,0,0,1-8.38,6.31,24.5,24.5,0,0,0,12.56,10.73.52.52,0,0,1,.3.52c0,.44-.28.91-.7.91a4.79,4.79,0,0,0-2.88,1l0,.08a.45.45,0,0,1-.33.11.81.81,0,0,1-.34-.06c-6-3.73-10.45-11.69-12.75-18.12L418,83.5c0,.24,0,.79.06,1.48.05,1.17.12,2.78.12,4C418.22,92.28,414.06,94.08,412.36,94.08ZM421.82,56l.34-1.53c.31-1.36.62-2.74.87-4H410.45c-.66,2.26-1.21,4.07-1.68,5.52Zm-39.7,36.6c-1,0-1.84-1.38-3.33-4.48l-.06-.13h.14a71.1,71.1,0,0,0,10.53-2.67V69.51h-4.28a35.17,35.17,0,0,0-4.79.27,3.5,3.5,0,0,1-1.13-2.25V67.4l.12,0a55.56,55.56,0,0,0,7.37.49h2.72V60.81h-.62a28.62,28.62,0,0,0-3,.16A2.37,2.37,0,0,1,385,60c-2.65,3.42-5.17,5.8-5.8,5.8a1.06,1.06,0,0,1-.94-.86.33.33,0,0,1,.09-.29c6.68-6.12,10.53-16.78,10.53-19v-.34l.12,0a21.64,21.64,0,0,1,2.81.72c.33.1.66.21,1,.31.76.23,1.09.52,1.09,1,0,.71-.69.92-1.52,1,2.57,1.4,7.38,4.62,8,6.44l.05.19a3.82,3.82,0,0,1,.19.92c0,.39-.1,1.67-1.36,1.67-.62,0-1.17-.49-1.65-1.46a22.31,22.31,0,0,0-6.47-6.91A52,52,0,0,1,385.78,59l.49.06a28.94,28.94,0,0,0,4.07.25h2.4a12.51,12.51,0,0,1,1.74-2l.11-.06A.72.72,0,0,1,395,57a.57.57,0,0,1,.31.13c1.7.92,3.21,2.34,3.21,3,0,.37-.41.59-1.12.59h-5.24V67.9h3.38c1.64-2,1.92-2.21,2.28-2.21s1.67.59,3.25,2.19a1.38,1.38,0,0,1,.63.93c0,.42-.49.69-1.24.69h-8.3V84.39c2.71-.93,5.55-1.95,8.08-3h0c.47,0,.73.49.73,1a.61.61,0,0,1-.29.57c-5.75,2.78-14.11,6-17.81,7.38a3.79,3.79,0,0,1,.16.91,2,2,0,0,1-.32,1.1l-.07.11A.67.67,0,0,1,382.12,92.57Zm2.7-9.67c-.34,0-1.12-.17-1.12-1.77v-.22c0-.2,0-.4,0-.59s0-.34,0-.49a14.42,14.42,0,0,0-2-7.3.6.6,0,0,1-.07-.21c0-.34.46-.59.88-.59,1.29,0,4.36,6.32,4.36,8.36C387,81.32,385.92,82.9,384.82,82.9Zm9.3-.16a.63.63,0,0,1-.7-.59.54.54,0,0,1,.07-.32A33.39,33.39,0,0,0,396.3,71.4v-.12l.12,0s4.52,1.18,4.52,2.31c0,.69-.58.85-2,1C395.59,82.11,394.69,82.74,394.12,82.74Zm15.42-6.59c-.55,0-1-.44-1.35-1.36a18.67,18.67,0,0,0-4.95-7,.49.49,0,0,1-.16-.3c0-.33.48-.69.82-.69s7.18,4,7.18,7C411.08,75.43,410.18,76.15,409.54,76.15Z"/><path d="M119.17,37.56l.44-.07.33-.1a1,1,0,0,0,.26-.14,1.31,1.31,0,0,0,.21-.23,2,2,0,0,0,.21-.33l.22-.47q.47-1.09,1.26-3.17t1.07-2.89a4.87,4.87,0,0,0,.25-.84h1q.18.6.24.76.37,1.05,1.19,3.29t1.15,3l.19.42a1.67,1.67,0,0,0,.18.29,1.06,1.06,0,0,0,.18.2,1,1,0,0,0,.24.12,1.62,1.62,0,0,0,.32.09l.44.07s0,.09,0,.22a.43.43,0,0,1-.05.23q-1.09,0-1.75,0-1,0-1.9,0a.46.46,0,0,1,0-.23c0-.12,0-.2,0-.22l.22,0,.21,0,.17,0,.16,0a.27.27,0,0,0,.17-.36q-.12-.41-.36-1.1T125,34.74a.12.12,0,0,0-.06-.07l-.07,0h-2.51a.14.14,0,0,0-.09,0l-.06.08a12.17,12.17,0,0,0-.71,2.17.82.82,0,0,0,0,.17.33.33,0,0,0,.05.13.31.31,0,0,0,.14.11l.25.08.69.13s0,.09,0,.22a.43.43,0,0,1-.06.23l-.71,0-1.13,0-1,0-.56,0a.63.63,0,0,1,0-.45Zm4.43-6.71h0l0,0L123,32.25q-.4,1.15-.55,1.58c0,.05,0,.08.05.1h2s0,0,.06,0a.08.08,0,0,0,0-.08Q123.81,31.36,123.6,30.85Z"/><path d="M148.3,29.73s-.05-.11,0-.22a.39.39,0,0,1,0-.21l.73,0,1.06,0h3.36a8.54,8.54,0,0,0,1.37-.07s0,0,0,0a.13.13,0,0,1,0,.06,6.07,6.07,0,0,0-.12.83q-.06.58-.08,1.17s-.11.06-.25.07-.23,0-.26,0a5.58,5.58,0,0,0-.2-.94.77.77,0,0,0-.23-.36.68.68,0,0,0-.4-.12l-1.25,0q-.84,0-1.14,0a.18.18,0,0,0-.12.1.32.32,0,0,0-.05.15q0,1.76,0,3.11a.07.07,0,0,0,0,0l0,0q1.83,0,2.29,0a.52.52,0,0,0,.33-.14.84.84,0,0,0,.18-.33q.1-.31.17-.6a.71.71,0,0,1,.27,0,.58.58,0,0,1,.26,0q-.09,1.09-.09,1.44,0,.53,0,1.4a.54.54,0,0,1-.24,0,.72.72,0,0,1-.26,0q-.06-.28-.17-.63a.79.79,0,0,0-.19-.34.48.48,0,0,0-.31-.12q-.56,0-2.29,0l0,0,0,0q0,2,0,2.55a1,1,0,0,0,.11.5.61.61,0,0,0,.4.21,8.38,8.38,0,0,0,1,.15s0,.1,0,.22,0,.2-.06.22l-.84,0-1.33,0L149,38l-.77,0s0-.09,0-.22,0-.2,0-.23q.48-.06.77-.13a.69.69,0,0,0,.39-.22,1,1,0,0,0,.1-.5q0-.5,0-3.16t0-3a1.25,1.25,0,0,0-.09-.48.49.49,0,0,0-.3-.21Q148.61,29.77,148.3,29.73Z"/><path d="M164.24,29.73s0-.09,0-.22,0-.2.06-.22l.76,0,1.06,0,1,0,.74,0s.05.09.05.21a.36.36,0,0,1,0,.22l-.7.14a.54.54,0,0,0-.33.22,1,1,0,0,0-.09.49q0,1.94,0,3.92a3.85,3.85,0,0,0,.23,1.3,1.77,1.77,0,0,0,.27.6,2.07,2.07,0,0,0,.49.49,2.34,2.34,0,0,0,.74.34,3.54,3.54,0,0,0,1,.12l.48,0a2.88,2.88,0,0,0,.46-.09,1.76,1.76,0,0,0,.44-.18,1.87,1.87,0,0,0,.69-.76,3,3,0,0,0,.22-.64,4.89,4.89,0,0,0,.12-.84,35.5,35.5,0,0,0,0-4,1.42,1.42,0,0,0-.14-.7.74.74,0,0,0-.49-.27l-.76-.11a.4.4,0,0,1,0-.23c0-.12,0-.19,0-.21l.67,0,1.08,0,.93,0,.63,0s0,.1,0,.22,0,.2,0,.22l-.62.14a.57.57,0,0,0-.39.3,2,2,0,0,0-.11.72q0,.64,0,1.45t0,1.2q0,.39,0,.85t-.07.77a5.45,5.45,0,0,1-.12.6,3.29,3.29,0,0,1-.38,1,2.75,2.75,0,0,1-.59.7,3,3,0,0,1-.74.45,3.84,3.84,0,0,1-.84.25,5.13,5.13,0,0,1-.88.07,5.48,5.48,0,0,1-1.2-.12,3.33,3.33,0,0,1-.92-.34,2.45,2.45,0,0,1-1.08-1.24,3.38,3.38,0,0,1-.21-.84q-.06-.53-.08-2.81t0-2.32a1,1,0,0,0-.1-.44.51.51,0,0,0-.29-.23A7,7,0,0,0,164.24,29.73Z"/><path d="M182.52,29.75s0-.1,0-.22,0-.2.06-.22l.77,0,1.08,0H185a1.4,1.4,0,0,0,.14.27c.06.1.19.26.36.49q.94,1.19,2.58,3.19t2.32,2.8s0,0,0,0q0-.41,0-1.46t0-1.62q0-.56,0-1.25t0-1.06a1,1,0,0,0-.13-.5.7.7,0,0,0-.42-.24,8.85,8.85,0,0,0-1-.18s0-.1,0-.22,0-.19,0-.21l.76,0,1.18,0,.87,0,.65,0s.05.1.05.22,0,.19-.05.22l-.63.15a.63.63,0,0,0-.37.26,1.19,1.19,0,0,0-.12.49q0,.31,0,.68t0,.91q0,.55,0,1t0,1.34q0,.91,0,1.54,0,1,0,1.93l-.5,0-.5,0q-.74-1.06-5.38-6.86l0,0h0q0,4.42,0,5.42a1.07,1.07,0,0,0,.15.56.68.68,0,0,0,.42.25l.18,0,.19,0,.25,0,.25,0a.37.37,0,0,1,0,.23.4.4,0,0,1-.05.22l-.73,0-1.07,0-1.09,0-.66,0s0-.1,0-.22,0-.2,0-.22a4.18,4.18,0,0,0,.77-.15.73.73,0,0,0,.39-.25,1,1,0,0,0,.16-.53q.06-1.09.13-5.9a.7.7,0,0,0-.41-.7,1.78,1.78,0,0,0-.45-.18A4.69,4.69,0,0,0,182.52,29.75Z"/><path d="M209.09,31.59a5.46,5.46,0,0,0-.18-.88,1.26,1.26,0,0,0-.25-.47,1.37,1.37,0,0,0-.44-.3,3.91,3.91,0,0,0-1.72-.31,3.19,3.19,0,0,0-1.34.27,2.62,2.62,0,0,0-1,.77,3.54,3.54,0,0,0-.6,1.21,5.61,5.61,0,0,0-.21,1.58,5.31,5.31,0,0,0,.1,1,4.73,4.73,0,0,0,.3,1A3.51,3.51,0,0,0,205,37a3.16,3.16,0,0,0,.93.43,4.08,4.08,0,0,0,1.14.15,2.9,2.9,0,0,0,.87-.12,1.91,1.91,0,0,0,.64-.32,5.56,5.56,0,0,0,1.08-1.4.39.39,0,0,1,.21.07.37.37,0,0,1,.18.16,4.55,4.55,0,0,1-.47,1.1,2.5,2.5,0,0,1-.6.81,5.85,5.85,0,0,1-1,.25,6.62,6.62,0,0,1-1.21.11,5.89,5.89,0,0,1-2.66-.55,3.76,3.76,0,0,1-1.67-1.59,5.11,5.11,0,0,1-.57-2.48,4.75,4.75,0,0,1,.23-1.49,4.19,4.19,0,0,1,.75-1.34,4.09,4.09,0,0,1,1.26-1,5.83,5.83,0,0,1,2.84-.65,10.08,10.08,0,0,1,1.09.06l1,.13.7.09q-.07.43-.14,1.09t-.08,1.1a.23.23,0,0,1-.14.07.81.81,0,0,1-.22,0C209.12,31.64,209.09,31.62,209.09,31.59Z"/><path d="M225.39,37.56a.36.36,0,0,1,0,.23c0,.12,0,.19-.07.21q-1.22,0-2.18,0T221,38a.41.41,0,0,1,0-.23.36.36,0,0,1,0-.22q.81-.1,1-.15a.54.54,0,0,0,.42-.28,2.05,2.05,0,0,0,.13-.75q0-1.23,0-6.3a.13.13,0,0,0,0-.08.07.07,0,0,0-.06,0h-1.76a.67.67,0,0,0-.59.39,6.43,6.43,0,0,0-.56,1.33.47.47,0,0,1-.27,0q-.22-.05-.23-.1.09-.46.17-1.19t.11-1.19s0,0,.08,0,.09,0,.1,0a2.5,2.5,0,0,0,1.15.21h5.18a6,6,0,0,0,.82,0,2,2,0,0,0,.58-.18l.09,0a.15.15,0,0,1,.06.05,17.56,17.56,0,0,0-.32,2.45s-.1.05-.25.05-.23,0-.25-.05a5,5,0,0,0-.23-1.27.76.76,0,0,0-.22-.3.58.58,0,0,0-.32-.1h-1.93a.09.09,0,0,0,0,0,.14.14,0,0,0,0,.07q0,5.91,0,6.62a1.07,1.07,0,0,0,.13.47.55.55,0,0,0,.34.22A8.67,8.67,0,0,0,225.39,37.56Z"/><path d="M241,38.22a4.74,4.74,0,0,1-1.81-.33,3.87,3.87,0,0,1-1.38-.94,4.77,4.77,0,0,1-1.22-3.37,4.35,4.35,0,0,1,.9-2.72,4.14,4.14,0,0,1,1.62-1.27,5,5,0,0,1,2.15-.49,4.87,4.87,0,0,1,1.54.24A3.82,3.82,0,0,1,244,30a4,4,0,0,1,.86,1,4.22,4.22,0,0,1,.53,1.19,5.13,5.13,0,0,1,.17,1.33,5.61,5.61,0,0,1-.21,1.62A4.42,4.42,0,0,1,243,37.74,4.7,4.7,0,0,1,241,38.22Zm.53-.67a2.7,2.7,0,0,0,.82-.12,1.78,1.78,0,0,0,.65-.35A3.73,3.73,0,0,0,244.15,34a5.67,5.67,0,0,0-.41-2.18,3.39,3.39,0,0,0-1.2-1.54,3.11,3.11,0,0,0-1.82-.55,2.49,2.49,0,0,0-1.23.31,2.62,2.62,0,0,0-1.11,1.28,4.9,4.9,0,0,0-.38,2,5.89,5.89,0,0,0,.19,1.49,4.63,4.63,0,0,0,.59,1.35,3.34,3.34,0,0,0,1,1A3.17,3.17,0,0,0,241.5,37.54Z"/><path d="M255.15,29.73a.38.38,0,0,1,0-.23c0-.12,0-.19.07-.2l.78,0,.87,0h2.37a3.38,3.38,0,0,1,.9.11,2.46,2.46,0,0,1,.71.31,2.19,2.19,0,0,1,.51.47,1.92,1.92,0,0,1,.32.59,2.17,2.17,0,0,1,.1.68,2.41,2.41,0,0,1-.12.79,2,2,0,0,1-.35.64,2.72,2.72,0,0,1-.5.47,3.32,3.32,0,0,1-.61.35.11.11,0,0,0,0,.06.08.08,0,0,0,0,.06q.4.64,1.09,1.55a14.82,14.82,0,0,0,1.17,1.4l.25.25a1.65,1.65,0,0,0,.23.18l.21.12.25.09.3.07.39.06s0,.11,0,.23,0,.2-.09.21a9.83,9.83,0,0,1-1.28,0,3,3,0,0,1-1-.23,2.37,2.37,0,0,1-.69-.59q-.24-.28-.57-.77t-.74-1.1l-.57-.86a.42.42,0,0,0-.35-.2h-1l0,0,0,0q0,1.61,0,2.48a1,1,0,0,0,.13.46.55.55,0,0,0,.35.18l.81.14s0,.09,0,.22,0,.2-.07.23l-.69,0L257,38l-1.15,0-.67,0a.31.31,0,0,1-.06-.23c0-.12,0-.19.05-.22l.73-.11a.58.58,0,0,0,.36-.22,1.16,1.16,0,0,0,.12-.55q0-.25,0-1.32t0-1.63q0-2.81,0-3.21a.85.85,0,0,0-.1-.45.58.58,0,0,0-.36-.2A6.19,6.19,0,0,0,255.15,29.73Zm3.13.1a1.17,1.17,0,0,0-.5.09.23.23,0,0,0-.06.08.28.28,0,0,0,0,.11q0,.49,0,3.43a.08.08,0,0,0,0,.06l0,0a5.8,5.8,0,0,0,1.85-.14,1.44,1.44,0,0,0,.63-.57,1.83,1.83,0,0,0,.25-1,2.12,2.12,0,0,0-.53-1.55A2.2,2.2,0,0,0,258.29,29.83Z"/><path d="M283.51,29.73s-.05-.11,0-.22a.39.39,0,0,1,0-.21l.73,0,1.06,0h3.36a8.54,8.54,0,0,0,1.37-.07s0,0,0,0a.13.13,0,0,1,0,.06,6.07,6.07,0,0,0-.12.83q-.06.58-.08,1.17s-.11.06-.25.07-.23,0-.26,0a5.58,5.58,0,0,0-.2-.94.77.77,0,0,0-.23-.36.68.68,0,0,0-.4-.12l-1.25,0q-.84,0-1.14,0a.18.18,0,0,0-.12.1.32.32,0,0,0-.05.15q0,1.76,0,3.11a.07.07,0,0,0,0,0l0,0q1.83,0,2.29,0a.52.52,0,0,0,.33-.14.84.84,0,0,0,.18-.33q.1-.31.17-.6a.71.71,0,0,1,.27,0,.58.58,0,0,1,.26,0q-.09,1.09-.09,1.44,0,.53,0,1.4a.54.54,0,0,1-.24,0,.72.72,0,0,1-.26,0q-.06-.28-.17-.63a.79.79,0,0,0-.19-.34.48.48,0,0,0-.31-.12q-.56,0-2.29,0l0,0,0,0q0,2,0,2.55a1,1,0,0,0,.11.5.61.61,0,0,0,.4.21,8.38,8.38,0,0,0,1,.15s0,.1,0,.22,0,.2-.06.22l-.84,0-1.33,0-1.08,0-.77,0s0-.09,0-.22,0-.2,0-.23q.48-.06.77-.13a.69.69,0,0,0,.39-.22,1,1,0,0,0,.1-.5q0-.5,0-3.16t0-3a1.25,1.25,0,0,0-.09-.48.49.49,0,0,0-.3-.21Q283.82,29.77,283.51,29.73Z"/><path class="a" d="M298.8,37.56l.44-.07.33-.1a1,1,0,0,0,.27-.14,1.43,1.43,0,0,0,.21-.23,1.89,1.89,0,0,0,.2-.33q.09-.18.21-.47.47-1.09,1.26-3.17t1.07-2.89a4.05,4.05,0,0,0,.25-.84h1q.07.29.24.77.36,1,1.18,3.26t1.15,3l.19.42a1.67,1.67,0,0,0,.18.29,1.06,1.06,0,0,0,.18.2,1,1,0,0,0,.24.12,1.62,1.62,0,0,0,.32.09l.44.07s0,.1,0,.22a.41.41,0,0,1-.06.23q-1.09,0-1.75,0-1,0-1.9,0a.37.37,0,0,1,0-.23c0-.12,0-.2,0-.22a6.37,6.37,0,0,0,.78-.15.27.27,0,0,0,.15-.36q-.13-.46-.93-2.72t-1.24-3.46h-.07q-1.39,3.86-2,5.74a.76.76,0,0,0,0,.55.6.6,0,0,0,.42.26,5.92,5.92,0,0,0,.7.13s0,.09,0,.22,0,.2-.06.23l-.72,0-1.13,0-1,0-.56,0a.37.37,0,0,1,0-.23C298.75,37.65,298.77,37.58,298.8,37.56Z"/><path d="M316.5,29.75s0-.1,0-.22,0-.2.06-.22l.77,0,1.08,0H319a1.4,1.4,0,0,0,.14.27c.06.1.19.26.36.49q.94,1.19,2.58,3.19t2.32,2.8s0,0,0,0q0-.41,0-1.46t0-1.62q0-.56,0-1.25t0-1.06a1,1,0,0,0-.13-.5.7.7,0,0,0-.42-.24,8.85,8.85,0,0,0-1-.18s0-.1,0-.22,0-.19,0-.21l.76,0,1.18,0,.87,0,.65,0s.05.1.05.22,0,.19-.05.22l-.63.15a.63.63,0,0,0-.37.26,1.19,1.19,0,0,0-.12.49q0,.31,0,.68t0,.91q0,.55,0,1t0,1.34q0,.91,0,1.54,0,1,0,1.93l-.5,0-.5,0q-.74-1.06-5.38-6.86l0,0h0q0,4.42,0,5.42a1.07,1.07,0,0,0,.15.56.68.68,0,0,0,.42.25l.18,0,.19,0,.25,0,.25,0a.37.37,0,0,1,0,.23.4.4,0,0,1-.05.22l-.73,0-1.07,0-1.09,0-.66,0s0-.1,0-.22,0-.2,0-.22a4.18,4.18,0,0,0,.77-.15.73.73,0,0,0,.39-.25,1,1,0,0,0,.16-.53q.06-1.09.13-5.9a.7.7,0,0,0-.41-.7,1.78,1.78,0,0,0-.45-.18A4.69,4.69,0,0,0,316.5,29.75Z"/><path d="M341.75,37.56a.36.36,0,0,1,0,.23c0,.12,0,.19-.07.21q-1.22,0-2.18,0t-2.16,0a.41.41,0,0,1,0-.23.36.36,0,0,1,0-.22q.81-.1,1-.15a.54.54,0,0,0,.42-.28,2.05,2.05,0,0,0,.13-.75q0-1.23,0-6.3a.13.13,0,0,0,0-.08.07.07,0,0,0-.06,0h-1.76a.67.67,0,0,0-.59.39,6.43,6.43,0,0,0-.56,1.33.47.47,0,0,1-.27,0q-.22-.05-.23-.1.09-.46.17-1.19t.11-1.19s0,0,.08,0,.09,0,.1,0a2.5,2.5,0,0,0,1.15.21h5.18a6,6,0,0,0,.82,0,2,2,0,0,0,.58-.18l.09,0a.15.15,0,0,1,.06.05,17.56,17.56,0,0,0-.32,2.45s-.1.05-.25.05-.23,0-.25-.05a5,5,0,0,0-.23-1.27.76.76,0,0,0-.22-.3.58.58,0,0,0-.32-.1h-1.93a.09.09,0,0,0,0,0,.14.14,0,0,0,0,.07q0,5.91,0,6.62a1.07,1.07,0,0,0,.13.47.55.55,0,0,0,.34.22A8.67,8.67,0,0,0,341.75,37.56Z"/><path d="M351.27,37.56l.44-.07.33-.1a1,1,0,0,0,.26-.14,1.31,1.31,0,0,0,.21-.23,2,2,0,0,0,.21-.33l.22-.47q.47-1.09,1.26-3.17t1.07-2.89a4.87,4.87,0,0,0,.25-.84h1q.18.6.24.76.37,1.05,1.19,3.29t1.15,3l.19.42a1.67,1.67,0,0,0,.18.29,1.06,1.06,0,0,0,.18.2,1,1,0,0,0,.24.12,1.62,1.62,0,0,0,.32.09l.44.07s0,.09,0,.22a.43.43,0,0,1-.05.23q-1.09,0-1.75,0-1,0-1.9,0a.46.46,0,0,1,0-.23c0-.12,0-.2,0-.22l.22,0,.21,0,.17,0,.16,0a.27.27,0,0,0,.17-.36q-.12-.41-.36-1.1T357,34.74a.12.12,0,0,0-.06-.07l-.07,0h-2.51a.14.14,0,0,0-.09,0l-.06.08a12.17,12.17,0,0,0-.71,2.17.82.82,0,0,0,0,.17.33.33,0,0,0,.05.13.31.31,0,0,0,.14.11l.25.08.69.13s0,.09,0,.22a.43.43,0,0,1-.06.23l-.71,0-1.13,0-1,0-.56,0a.63.63,0,0,1,0-.45Zm4.43-6.71h0l0,0-.49,1.39q-.4,1.15-.55,1.58c0,.05,0,.08.05.1h2s0,0,.06,0a.08.08,0,0,0,0-.08Q355.9,31.36,355.69,30.85Z"/><path d="M370.12,35.49a6,6,0,0,0,.45,1.11,1.93,1.93,0,0,0,.59.66,2.2,2.2,0,0,0,1.37.39,1.7,1.7,0,0,0,.52-.08,1.61,1.61,0,0,0,.47-.25,1.18,1.18,0,0,0,.36-.46,1.59,1.59,0,0,0,.13-.67,1.78,1.78,0,0,0,0-.41,1.2,1.2,0,0,0-.15-.36,2,2,0,0,0-.24-.31,2.57,2.57,0,0,0-.36-.31l-.46-.31-.59-.34q-.42-.24-.71-.44a5.14,5.14,0,0,1-.58-.45,2.7,2.7,0,0,1-.45-.51,2.25,2.25,0,0,1-.27-.58,2.37,2.37,0,0,1-.1-.7,2.28,2.28,0,0,1,.22-1,2.11,2.11,0,0,1,.6-.75,2.79,2.79,0,0,1,.88-.46,3.53,3.53,0,0,1,1.09-.16,7.2,7.2,0,0,1,.84,0l.77.11.58.08a16.49,16.49,0,0,0-.24,2s-.1.05-.22.05-.2,0-.22,0a4.27,4.27,0,0,0-.18-1,1,1,0,0,0-.36-.5,2,2,0,0,0-1.15-.3,1.52,1.52,0,0,0-.63.13,1.25,1.25,0,0,0-.45.33,1.53,1.53,0,0,0-.27.45,1.42,1.42,0,0,0-.09.51,1.75,1.75,0,0,0,.12.67,1.47,1.47,0,0,0,.31.48,3.1,3.1,0,0,0,.52.41,10.54,10.54,0,0,0,1,.55q.64.33.83.45a4.37,4.37,0,0,1,.52.38,2.87,2.87,0,0,1,.42.44,1.81,1.81,0,0,1,.29.57,2.29,2.29,0,0,1,.1.69,2.35,2.35,0,0,1-.21,1,2.59,2.59,0,0,1-.6.83,2.83,2.83,0,0,1-1,.58,4,4,0,0,1-1.34.22,4.78,4.78,0,0,1-1.14-.14,5.1,5.1,0,0,1-.9-.29,3.71,3.71,0,0,1-.24-.92q-.15-.8-.18-1.22,0-.08.22-.13A.4.4,0,0,1,370.12,35.49Z"/><path d="M384.3,29.73s0-.1,0-.22,0-.19.06-.22l.77,0,1,0,.91,0,.72,0s.05.09.06.21,0,.19,0,.22l-.52.11q-.25.08-.1.37.28.6.9,1.8t.84,1.55h.1q.38-.6,1-1.67t.77-1.51a.82.82,0,0,0,.06-.18.32.32,0,0,0,0-.15.21.21,0,0,0-.1-.12.65.65,0,0,0-.22-.07l-.69-.12a.37.37,0,0,1,0-.23c0-.12,0-.19.07-.2l1.58,0h.57l.53,0,.41,0s.06.08.07.21,0,.21,0,.23l-.26,0-.35.07a1.11,1.11,0,0,0-.51.25,3.57,3.57,0,0,0-.5.65q-.43.66-1,1.75t-.9,1.62a1.2,1.2,0,0,0-.09.25,1.06,1.06,0,0,0,0,.24q0,.46,0,1.89a1.91,1.91,0,0,0,.1.67.47.47,0,0,0,.35.25q.18,0,.91.13a.4.4,0,0,1,0,.23c0,.13,0,.2-.06.22l-.81,0-1.18,0-1.3,0-.8,0s0-.1,0-.22,0-.2,0-.22a9.11,9.11,0,0,0,1-.14.58.58,0,0,0,.38-.24,1.12,1.12,0,0,0,.11-.52q0-.69,0-1.74a2.21,2.21,0,0,0,0-.35,1.56,1.56,0,0,0-.08-.32q-.38-.86-1.69-3.22-.21-.38-.33-.57a1.73,1.73,0,0,0-.26-.32.88.88,0,0,0-.26-.18l-.33-.1-.15,0-.13,0-.19,0Z"/></svg>