<svg xmlns="http://www.w3.org/2000/svg" viewBox="0 0 512 128"><defs><style>.a{fill:none;stroke:#000;stroke-miterlimit:10;}.b{fill:#fff;}.c{fill:red;}</style></defs><title>logo-aff-ochsengiu</title><line class="a" x1="76.67" y1="102.96" x2="435.33" y2="102.96"/><rect class="b" x="190.37" y="92.46" width="132" height="21"/><path d="M212.35,105.66c1.46,1.35,3.43,1.67,5.88,1.72.07,0,.11,0,.11.06s-.06.08-.13.13a5,5,0,0,0-1.6,1.4.32.32,0,0,1-.28.13h-.06a5.1,5.1,0,0,1-4.13-3.29c-.78,2.63-3.84,3.28-6.88,3.42h0c-.13,0-.18,0-.18-.06s.07-.08.17-.1c2.63-.49,4.73-1.53,5.25-3.4h-1.25c-.56,0-3.12,0-3.6.08a1.07,1.07,0,0,1-.27-.6c.73.1,3.77.14,4.44.14h.76c0-.14,0-.52,0-.77a4.86,4.86,0,0,0,0-.64,13.07,13.07,0,0,1,2,.2c.2,0,.31.14.31.25s-.15.27-.48.32a3.68,3.68,0,0,1-.07.55v.1h3.11a7.56,7.56,0,0,1,1-1.19s0,0,.07,0,1.58,1,1.58,1.39a.21.21,0,0,1-.22.21Zm4-1.88c0,.34-.59.5-1.06.5s-.59-.14-.59-.39,0-.67,0-.91,0-1.27,0-1.47v-.07a.25.25,0,0,1-.15,0h-2.56v.45c1.13.11,2.35.45,2.35,1.29a.68.68,0,0,1-.64.73.66.66,0,0,1-.56-.38,3,3,0,0,0-1.15-1.39c0,.25,0,.5,0,.76s0,.38,0,.48c0,.28-.42.39-.85.39s-.46-.11-.46-.29v0c0-.1,0-.25,0-.36s0-.48.06-.62v-.13a5.44,5.44,0,0,1-2.56,1.85s0,0-.07,0v.07c0,.39-.69.46-1,.46s-.62-.13-.62-.41v0c.08-1.67.08-2.45.08-2.56V98.86a18.59,18.59,0,0,0-.11-1.93,7.6,7.6,0,0,1,1.79.76h1.86a6.92,6.92,0,0,0,.13-1.12c0-.13,0-.25,0-.41a15.46,15.46,0,0,1,2.33.42c.17.06.27.15.27.25s-.15.24-.45.24h-.14a12.23,12.23,0,0,1-1.29.63h3.53c.18-.24.63-.74.8-.74,0,0,1.4.6,1.4,1.08,0,.15-.15.28-.48.35,0,.17,0,.55,0,1,0,.88,0,2,0,2,0,.25,0,1.16,0,1.51s0,.69,0,.88Zm-1.6-5.73h-6.56c0,.27,0,.8,0,1.37,0,1.15,0,2.51,0,2.51,0,.22,0,1.15,0,1.49v.69a7.35,7.35,0,0,0,2-2.62h-.11a15.39,15.39,0,0,0-1.6.07,1,1,0,0,1-.22-.45c.46.06,1.64.1,2.09.1h.41V99.41c-.7,0-1.41.07-2.09.07-.17,0-.27,0-.27-.07s.07-.07.21-.1a12,12,0,0,0,4-1.25c.67.38,1.22.84,1.22,1.06s-.07.17-.21.17a.8.8,0,0,1-.38-.11c-.38.06-.8.1-1.26.14v1.88h.24a5.55,5.55,0,0,0,.45-1.86c.25.06,1.4.38,1.4.67,0,.1-.11.18-.35.18h-.07a6.94,6.94,0,0,1-1.13,1h.66c.35-.53.52-.8.64-.8s0,0,.06,0a3,3,0,0,1,.8.73l0,0Zm-5.32,2.68a1.76,1.76,0,0,0-.43-1s-.06-.07-.06-.08,0,0,.08,0c.34,0,1.48.2,1.48.94a.61.61,0,0,1-.62.62A.47.47,0,0,1,209.45,100.73Z"/><path d="M234.86,102.45v2.13c0,.67,0,2.17.06,2.91,0,.2,0,.87,0,1.09s-.62.57-1.29.57-.76-.2-.76-.48v-.06c.11-1.79.11-3.71.11-3.91v-2.27h-1.29c-.64,0-3,0-3.67.11a1.14,1.14,0,0,1-.32-.63h0c.8.08,3,.15,4.29.15h1V99c-1.34.11-2.77.18-4.23.18-.52,0-.64,0-.64-.1s.06-.08.2-.1a39.5,39.5,0,0,0,7.14-1.72,7.66,7.66,0,0,0,1.36-.71c.74.45,1.74,1.44,1.74,1.74,0,.14-.1.21-.27.21a1,1,0,0,1-.55-.2q-1.34.29-2.9.5v3.29h2.41a6,6,0,0,1,1.23-1.58l.1,0c.41.25,1.75,1.37,1.75,1.7a.23.23,0,0,1-.24.24Z"/><path d="M253.81,101v1.36c.31.13,1.77.73,1.77,1.78a.81.81,0,0,1-.74.87c-.34,0-.5-.31-.55-.64a3.57,3.57,0,0,0-.48-1.62v2.56c0,.7,0,2,0,2.49,0,.32,0,1,0,1s-.1.45-1.08.45c-.42,0-.64-.11-.64-.36v0c0-.24.06-.8.06-1,0-.48.06-1.12.07-2,0-.25,0-1.05.07-1.78a6.16,6.16,0,0,1-2.48,2.89s0,0,0,0a.27.27,0,0,1,.07-.15,16.49,16.49,0,0,0,2.21-5.7,18,18,0,0,0-1.82.07,1,1,0,0,1-.24-.55c.45.06,1.57.11,2.27.11v-2a17.81,17.81,0,0,1-2.12.32c-.1,0-.14,0-.14-.06s0-.07.15-.11c1.44-.5,3.45-1.64,3.84-2.28.41.22,1.48,1,1.48,1.43a.19.19,0,0,1-.21.18.7.7,0,0,1-.38-.13c-.34.11-.74.21-1.15.31v2.34H254a5.59,5.59,0,0,1,.64-1.08s0,0,.07,0h.07c.17.11,1,.91,1,1.29,0,.11-.08.17-.2.17Zm5.32.34c-.21,3.7-1.27,6.12-4.8,7.65a.47.47,0,0,1-.2.06s-.06,0-.06,0,0-.08.14-.14c2.83-1.85,3.45-5.08,3.46-8.18,0-1.15,0-3.54-.14-4a13.37,13.37,0,0,1,1.82.15c.28.07.42.2.42.31s-.2.29-.53.35c0,.7,0,1.32,0,1.93v.52a10.47,10.47,0,0,0,.27,2.37,10.3,10.3,0,0,0,1.33-3.32c.57.24,1.91,1,1.91,1.34,0,.11-.08.2-.27.2a1.17,1.17,0,0,1-.28,0,10.81,10.81,0,0,1-2.61,2.16,7.76,7.76,0,0,0,3.47,4.92c.07,0,.1.07.1.08s-.07.06-.14.08a4.07,4.07,0,0,0-1.79.91.18.18,0,0,1-.15.07.17.17,0,0,1-.13,0c-1.25-1.48-1.69-3.74-1.81-7.35Zm-4,1.19a1,1,0,0,1,.34-.77,3.46,3.46,0,0,0,1.13-2.35c0-.13,0-.2.08-.2a5.76,5.76,0,0,1,.42,2.2c0,1.22-.53,1.95-1.22,1.95A.78.78,0,0,1,255.13,102.48Z"/><path d="M274.17,103.28a9.31,9.31,0,0,1-2,1.23s-.07,0-.07,0,0-.08.08-.14c.55-.55,2.83-3,3.11-5.13.38.11,2.16.67,2.16,1.11,0,.13-.13.22-.38.22l-.22,0a12.35,12.35,0,0,1-1.25,1.51c.59.08.64.24.64.32s-.18.29-.49.36c0,.34,0,.85,0,1.36,0,.81,0,1.6,0,1.6,0,1.57,0,1.68,0,2,0,.13,0,.9,0,1,0,.53-1.11.53-1.16.53-.39,0-.57-.13-.57-.42v-.06c0-.14.11-2,.11-3.29Zm-1.92-2.4s-.06,0-.06,0a.26.26,0,0,1,.08-.14,9.31,9.31,0,0,0,2.65-4.44c1,.28,2.14.78,2.14,1.11,0,.14-.17.25-.42.25l-.22,0A11.16,11.16,0,0,1,272.25,100.88Zm7.28,7.52c-.57,0-2.3,0-3.05.08a.9.9,0,0,1-.21-.57c.62,0,2.35.11,3.52.11h0v-4.19c-.48,0-1.78,0-2.51.07a.8.8,0,0,1-.22-.55c.57,0,1.67.08,2.73.1V99.93c-.56,0-1.82,0-2.55.07a.9.9,0,0,1-.22-.59c.67.07,2,.13,3.08.13h2.37c.14-.22.81-1.27,1-1.27s1.55,1.11,1.55,1.46a.21.21,0,0,1-.22.21h-3.33v3.53h.64c.59-1,.92-1.25,1-1.25s1.5,1.08,1.5,1.42a.2.2,0,0,1-.21.21h-2.93V108h1.18a4.93,4.93,0,0,1,1.09-1.43,4.54,4.54,0,0,1,1.6,1.58.22.22,0,0,1-.22.22Zm2.26-10.24a.93.93,0,0,1-.88,1,.86.86,0,0,1-.73-.43c-.38-.6-.49-1.49-1.5-2.07-.1-.06-.14-.1-.14-.13s0-.06.13-.06S281.79,96.58,281.79,98.16Z"/><path d="M305.86,106.65c0,.32-.5.52-1.12.52-.45,0-.63-.11-.63-.36v0c0-.07,0-.21,0-.35H302c0,.29,0,.59,0,.8v.14c0,1.92-2.17,1.95-2.28,1.95s-.29-.08-.38-.28c-.29-.69-1.22-1-1.83-1.27-.15-.06-.24-.11-.24-.17s.06-.06.15-.06h.15a17.36,17.36,0,0,0,1.83.14c.6,0,.91-.34.91-.78v-.48h-.88c-.7,0-2.38,0-2.83.1a1.05,1.05,0,0,1-.24-.57c.45.07,2.79.11,3.28.11h.67v-1.3H299c-.57,0-3.28,0-3.91.11a1.34,1.34,0,0,1-.25-.62c.67.07,3.53.15,4.51.15h1.05v-1.26h-.67c-.69,0-2.48,0-2.93.1a1.19,1.19,0,0,1-.25-.57c.45.07,2.89.11,3.38.11h.48v-1.26h-1.91v.22c0,.46-1,.46-1.08.46-.41,0-.63-.13-.63-.38v-.06c.07-.81.08-1,.08-1.3V100a8.3,8.3,0,0,0-.1-1.3,8.94,8.94,0,0,1,1.85.69h1.78V98.36H299c-.38,0-3.08,0-3.75.1a1.05,1.05,0,0,1-.24-.59c.64.07,3.24.1,4.34.1h1a9.44,9.44,0,0,0-.14-1.67c.46,0,2.35.06,2.35.48,0,.14-.21.28-.56.35,0,.17,0,.45,0,.84h2.94c.06-.1.92-1.26,1.12-1.26a.11.11,0,0,1,.07,0c.41.21,1.58,1.11,1.58,1.43,0,.11-.07.21-.29.21H302c0,.32,0,.69,0,1.07h1.86c.06-.07.59-.66.78-.66h.08c.36.14,1.41.63,1.41,1,0,.14-.14.28-.48.36,0,.17,0,.42,0,.42,0,.18,0,.78.06,1v0c0,.31-.49.5-1.06.5s-.64-.14-.64-.38v-.11h-2v1.26h2a5.26,5.26,0,0,1,.76-.71.1.1,0,0,1,.08,0c.13,0,1.46.62,1.46,1,0,.15-.13.29-.43.38,0,.21,0,.64,0,1H306c.13-.28.6-1.12.74-1.12s1.12.92,1.12,1.23a.24.24,0,0,1-.27.24h-1.81c0,.18,0,.32,0,.32,0,.25,0,.88,0,1.11a3.57,3.57,0,0,0,0,.45Zm-5.49-6.89h-1.93v.83c0,.15,0,.42,0,.59h1.92Zm3.64,0h-2v1.41h2Zm.14,3.39H302v1.26h2.16Zm0,1.61H302v.71c0,.17,0,.38,0,.59h2.13c0-.27,0-.69,0-.81Z"/><path d="M85.07,89.56c-1,0-2.08,0-2.08-1.07v-.16s.12-1.52.18-2.81c.22-3.95.24-11.55.24-14.63,0-1.43,0-2.86,0-4.29s0-2.86,0-4.29a61.68,61.68,0,0,0-.54-9.43l0-.13H83c4.43.38,5.37.49,5.37,1.34v.11c0,.4-.29,1-1.68,1.42V70.88c0,.31,0,1,0,1.9,0,1.91,0,4.88,0,7.76v3H126.2c.06-1.41.06-2.67.06-12.81V58.62a33.64,33.64,0,0,0-.48-5.81l0-.13h.14c1.93.11,3.72.32,4.39.43.45.15,1,.33,1,.91v.11c0,.4-.29,1-1.68,1.42V70.77c0,3.57,0,10.18.18,14.36,0,.26,0,.74,0,1.24s0,1.13,0,1.47c0,.76-.61,1.25-1.77,1.4H128c-1,0-2,0-2-1.07V88l.12-2.22v-.33H86.69a10.4,10.4,0,0,1,0,1.2v1.51c0,.91-1,1.34-1.65,1.4h0Zm18.42-8.48c-.67,0-.91-.22-1.05-.55-.29-1-.37-1.07-4.61-2.16a.75.75,0,0,1-.5-.74.8.8,0,0,1,.76-.86h.18a32,32,0,0,0,5.88,1c2.42-.05,2.84-2.87,3-12.54V54.62l-5.22-.05c-.29,1-.52,1.83-.64,2.2a1.36,1.36,0,0,1-1.35.72,6.1,6.1,0,0,1-1.66-.28.66.66,0,0,1-.36-.58c0-.23,0-.48,1-2.74a56.63,56.63,0,0,0,2.17-7.08l.13-.5H95.75c-1,0-11.74.1-15,.43A4.69,4.69,0,0,1,79.63,44v-.12h.12c3.6.38,15.78.54,17.57.54h28.5a14.19,14.19,0,0,1,2.76-3l.1-.05a.52.52,0,0,1,.26-.08h0l.11,0,.21.08a20.64,20.64,0,0,1,4.41,3.21.8.8,0,0,1,.21.56c0,.54-.34,1.13-1.3,1.13H104.53c-.74,2.51-1.26,4.19-2,6.55H107c1.46-1.35,1.46-1.35,1.56-1.35s3.34,1.41,3.34,2.8c0,.37-.26,1-2,1.33,0,.82,0,1.81,0,2.92,0,1.4,0,3,0,4.6l.08-.05c5.1-3.06,8.41-5.82,9.33-7.75l0-.09.09,0c1.34.71,3.47,2.57,3.47,3.44,0,.28-.13.75-1,.75a7.24,7.24,0,0,1-1.52-.27A63.1,63.1,0,0,1,110,64.9V67c5.1,1.7,13.56,5.06,13.56,8.55a1.57,1.57,0,0,1-1.42,1.72c-.58,0-1.16-.38-1.88-1.22a30.26,30.26,0,0,0-10.33-7.36,51.11,51.11,0,0,1-.54,6.88C108.45,80.81,104.31,81.08,103.49,81.08ZM92.75,77.62c-1.62,0-3.73-4.06-3.75-4.11l-.06-.12.13,0c4.14-.84,9.56-3,16.11-6.47a.39.39,0,0,1,.29-.06c.37,0,.76.5.76,1a.76.76,0,0,1-.27.51,111.87,111.87,0,0,1-12.67,7.05,4.6,4.6,0,0,1,.16,1.19C93.45,77.22,93.19,77.62,92.75,77.62ZM100,66.18a2.15,2.15,0,0,1-1.65-1.24c-2-3-5.95-5.65-7.58-6.44a.39.39,0,0,1-.24-.31,1.12,1.12,0,0,1,.94-.91c.85,0,8.66,3.32,9.57,5.63a3.74,3.74,0,0,1,.31,1.39C101.37,65.2,101,66.18,100,66.18Z"/><path d="M176.63,89.34a1.16,1.16,0,0,1-1.1-.48c-.58-1.26-1.38-1.64-7.85-2.49h0c-.25,0-.39-.39-.39-.75s.18-1,.58-1H168c5.89.48,7.87.64,9.24.64a3.11,3.11,0,0,0,3.26-2.92V65.85h-6.8c-1.64,0-14.17.16-17.33.43a5.09,5.09,0,0,1-1.31-2.91v-.11h.11c2.22.26,15.94.59,20.09.59h5.24V61.59a36,36,0,0,0-.42-6.3l0-.14.14,0c.88.11,1.69.22,2.39.27a65.45,65.45,0,0,0,11-8.44h-14c-3.76,0-14.18.27-16.49.49a6,6,0,0,1-1.37-2.79v-.12h.12c2.7.32,15.23.54,17.81.54h14.88c1.15-1,1.8-1.4,2.1-1.4a.42.42,0,0,1,.31.13c3.33,1.84,3.75,2.74,3.75,3.32,0,.37-.19,1.23-2,1.23a7.49,7.49,0,0,1-1.46-.16,128,128,0,0,1-12.3,7.62.78.78,0,0,1,.42.7c-.06.33-.37.76-1.5,1v6.3h16.64c2.65-3.13,3-3.13,3.06-3.13.67,0,5.08,2.93,5.08,4.1,0,.47-.32,1-1.24,1H183.87V76.93c0,.76.12,5.64.18,6.47C184.05,86.38,179.74,89.34,176.63,89.34Z"/><path d="M229.37,89.45c-.54,0-1.36-.41-1.36-1a.47.47,0,0,1,.15-.4c5.51-6.33,8.19-16,8.19-29.46,0-9.31-1-13.89-1.62-15.79l-.05-.17.17,0a20.41,20.41,0,0,1,4.89,2h31.88c.22-.29,1.34-1.62,1.85-1.62.7,0,3.7,2.21,3.7,3.12,0,.35-.28,1-2.17,1.33a82.83,82.83,0,0,0-.83,11.25c0,10.78,2.37,19.68,6.51,24.47.3-1.15,1.38-5.32,2.59-11.1a.77.77,0,0,1,.82-.51c.6,0,1.24.3,1.24.75-.51,2.7-1.8,10.18-1.8,11.18a4.23,4.23,0,0,0,.52,2.37,2.69,2.69,0,0,1,.56,1.57,1.59,1.59,0,0,1-.64,1.27,1.2,1.2,0,0,1-.9.29c-2,0-12-5.44-12-31.31,0-3.39.19-7,.59-11.19H239.32c.42,8.33.42,9.62.42,11.4,0,19-5.37,26.74-10,31.39A.47.47,0,0,1,229.37,89.45Zm40.8-1.62c-.57,0-1.13-.58-1.65-1.73a34.58,34.58,0,0,0-1.94-3.71c-7.71,1.31-16.31,2.43-23.62,3.06-.17,1.07-.61,2.27-1.35,2.27-1,0-2.2-3.48-2.5-5.27l0-.13.13,0a23.39,23.39,0,0,0,3,.22c1.67,0,7.09-.35,11.42-.7V72.71h-6.4v1.74c0,.73-1.08,1.07-1.54,1.07h-.48c-.58,0-1.24-.1-1.24-.86,0-.09,0-.44.08-.85s.07-.66.1-.94c.05-.52.12-1.73.12-4.58,0,0,.06-4.32.06-4.91a18.89,18.89,0,0,0-.42-4.3l0-.17.16.05a23.86,23.86,0,0,1,3.68,1.58h5.91V54.25c-3.87.4-7.92.64-11.42.69-.44,0-.94-.71-.94-1.18a.44.44,0,0,1,.46-.48c8.82-.44,19.73-2,22.56-4.08l0,0,.05,0c1.4.66,3.18,2.34,3.18,3,0,.49-.49.8-1.24.8a3,3,0,0,1-1.68-.45,59.81,59.81,0,0,1-8,1.41v6.56H263a5.71,5.71,0,0,1,1.14-1.28,1,1,0,0,1,.42-.13.33.33,0,0,1,.25.08l.14,0A8.33,8.33,0,0,1,267,60.67l.31.25.12.11a1,1,0,0,1,.51.78c0,.49-.57.86-1.8,1.16v3.76c0,1,0,2.08.09,3.4l0,.91c0,.14,0,.6,0,1.05s0,.92,0,1.06v.16c0,.37-.19,1.23-1.9,1.23-.84,0-1.36-.33-1.36-.86l.05-1h-6.45v8.92c3.78-.29,6.69-.55,8.9-.78A29.36,29.36,0,0,0,261.23,76a.49.49,0,0,1-.15-.34.92.92,0,0,1,.94-.75c1.27,0,9.52,6.88,9.52,10.58C271.53,86.81,270.94,87.83,270.17,87.83Zm-7-16.83c0-.8,0-1.74,0-2.38,0-.34,0-.6,0-.71V62.23h-6.52V71Zm-9.48,0V62.23h-6.4c0,2.27-.06,7.52-.06,7.52,0,.19,0,.7.05,1.25Z"/><path d="M352.43,89.77c-.56,0-1.24-.53-2.06-1.61a23.36,23.36,0,0,0-4.84-4.68c-7.76,1.32-16.39,2.22-32.84,3.47-.08,1.35-.54,2.22-1.18,2.22-1.14,0-2.29-3.2-2.74-5.48l0-.14.14,0a30.37,30.37,0,0,0,4.55.27c2,0,4.05-.05,6.18-.1h.18a52.89,52.89,0,0,0,4.94-7.42h-.5c-2.61,0-14.74.17-17.45.43a4.05,4.05,0,0,1-1.13-2.42v-.22h.11c2.93.26,15.7.54,20,.54l23.58-.05s2.13-2.75,2.82-2.75c.34,0,5,2.34,5,3.39,0,.51-.42,1-1.36,1l-26.52.05a89.26,89.26,0,0,1-6.64,7.29c9-.38,16.76-1.14,20.74-1.58A50.74,50.74,0,0,0,337.51,79c-.33-.18-.48-.37-.48-.63a.87.87,0,0,1,.94-.75c.89,0,15.94,5.8,15.94,10.14A1.92,1.92,0,0,1,352.43,89.77ZM312.83,70.15a3.72,3.72,0,0,1-1.05-2.34v-.22h.11c3,.28,12.58.54,16.61.54h14.16s2.48-2.65,3.06-2.65,5.08,2.2,5.08,3.34c0,.39-.36,1-1.36,1H327c-2.82,0-11.42.12-14.09.38h0Zm17.89-4.24c-.52,0-1.12-.1-1.12-.86,0-.26,0-.52.06-.86s.09-.89.12-1.52c.06-1.24.12-4.35.12-5.39V51.87H311.48c-1,4.94-4,8-6.26,8a1.43,1.43,0,0,1-1.54-1.5,2.1,2.1,0,0,1,1.08-1.87,10.14,10.14,0,0,0,5.16-8.34c0-.29.43-.47.82-.47s.93.17,1,.57a4.57,4.57,0,0,1,.06.94,6.81,6.81,0,0,1,0,.93h18.14V45.66h-5.24c-2.6,0-9.94.06-12.65.32a3.24,3.24,0,0,1-1.13-2.21v-.22H311c2.87.26,10.9.43,15.17.43h18.78c.17-.31,2.61-2.81,3.06-2.81s5.14,2.3,5.14,3.5c0,.39-.36,1-1.36,1H332.91V50.1h19.82c1.5-1.39,1.71-1.46,1.92-1.46a.29.29,0,0,1,.19.08l.16.1c1.06.5,4,2.26,4,3.43,0,.68-.56,1-1.72,1-.44,0-.94,0-1.47-.09h-.15a43.41,43.41,0,0,1-5,3.56.92.92,0,0,1,.09.34c0,.43-.51.75-1.18.75h-8.22a32.36,32.36,0,0,0-4.61.27,3.42,3.42,0,0,1-1.07-2.2v-.12l.12,0a46.93,46.93,0,0,0,6.77.43h1.74a12,12,0,0,1,2-2l.1-.05a.52.52,0,0,1,.26-.08,9.41,9.41,0,0,1,2.92,1.63,44.9,44.9,0,0,0,2.72-3.87H332.91v5.89c0,.44,0,1.29,0,2.17s0,2,0,2.52c0,.76,0,1.34,0,1.76,0,.24,0,.43,0,.56C333,65.53,332.25,65.91,330.71,65.91ZM337,63.67a3.59,3.59,0,0,1-1-2.17v-.12l.12,0a45.2,45.2,0,0,0,6.71.49h2.76a11.94,11.94,0,0,1,2-2l.1-.05a.52.52,0,0,1,.26-.08c.54,0,4.06,2,4.06,3,0,.42-.47.69-1.18.69h-9.18a32.36,32.36,0,0,0-4.61.27h0Zm-25,0a3.59,3.59,0,0,1-1-2.17v-.12l.12,0a51.77,51.77,0,0,0,7.13.49h2.1a11.92,11.92,0,0,1,2-2l.1-.05a.52.52,0,0,1,.26-.08c.66,0,4.12,2.07,4.12,3,0,.48-.64.69-1.24.69H317c-1.07,0-1.84.06-2.66.13s-1.39.11-2.32.14h0Zm.78-5.62a3.59,3.59,0,0,1-1-2.17v-.12l.12,0a50.84,50.84,0,0,0,7,.43h1.68a12,12,0,0,1,2-2l.1-.05a.52.52,0,0,1,.26-.08c.74,0,4.06,2.13,4.06,3,0,.46-.46.75-1.18.75h-8.16a35.87,35.87,0,0,0-4.85.27h0Z"/><path d="M412.73,90c-.33,0-.55-.22-.69-.66-.52-1.5-1.4-1.6-5.11-2a.66.66,0,0,1-.47-.7c0-.45.24-1,.54-1l1.4.14c1.6.16,3,.31,4.64.35,1.13,0,2.36-.71,2.36-1.84V73.18a77.23,77.23,0,0,1-10.87,9.34,3.38,3.38,0,0,1,.39,1.37.86.86,0,0,1-.94.91c-1.37,0-3.9-3.41-3.92-3.45l-.08-.11.13,0c3.41-1,10.9-6.21,15.32-10.24l0-10.79h-3.2c-1.73,0-8.62,0-10.67.27a3.81,3.81,0,0,1-1.13-2.31V58l.12,0c2.14.28,10.5.49,13.25.49h6.7c.22-.82.52-2,.87-3.38l.4-1.55H408.54l-.28.8-.17.43c-.11.28-.21.55-.38.88a1.48,1.48,0,0,1-1.53,1.19c-.83,0-1.72-.36-1.72-1a.83.83,0,0,1,.14-.55s.83-1.61,1.19-2.57c2-6.2,2.93-9.73,2.93-11.47V40.8h.11c1.31.15,4.35.61,4.35,1.56,0,.5-.56.79-1.58.8-.11.54-.22,1-.37,1.53h12l.08-.14a5.85,5.85,0,0,1,.45-.48c.21-.28.57-.78,1-.78s3.52,1.78,3.52,2.75c0,.68-1,1-1.94,1.17l-2.83,11.32h4a14.18,14.18,0,0,1,2.16-2.35l.1-.05a.52.52,0,0,1,.26-.08c.3,0,4.42,2.34,4.42,3.39,0,.46-.51.75-1.3.75H418.35l.06,3.52a48.59,48.59,0,0,0,3.35,7.46c1-.82,6.48-5.44,7.25-8.57l0-.1.1,0s4.15,1.39,4.15,2.8c0,.37-.27.8-1.54.8l-.42,0c-.15,0-.3,0-.48,0a52.5,52.5,0,0,1-8.38,6.31A24.5,24.5,0,0,0,435,83.1a.52.52,0,0,1,.3.53c0,.44-.28.91-.7.91a4.79,4.79,0,0,0-2.88,1l0,.08a.45.45,0,0,1-.33.1.81.81,0,0,1-.34-.06c-6-3.73-10.45-11.69-12.75-18.12l.11,11.92c0,.24,0,.79.06,1.48.05,1.17.12,2.78.12,4C418.59,88.2,414.43,90,412.73,90Zm9.46-38.11.35-1.54c.31-1.36.62-2.73.87-4H410.83c-.66,2.26-1.21,4.07-1.68,5.53Zm-39.7,36.6c-1,0-1.84-1.38-3.33-4.49l-.06-.13h.14a71.16,71.16,0,0,0,10.53-2.67V65.42h-4.28a35.11,35.11,0,0,0-4.79.27,3.5,3.5,0,0,1-1.13-2.25v-.12l.12,0a55.38,55.38,0,0,0,7.37.49h2.72V56.73h-.62a28.6,28.6,0,0,0-3,.16,2.37,2.37,0,0,1-.75-.94c-2.65,3.42-5.17,5.8-5.8,5.8a1.05,1.05,0,0,1-.94-.86.34.34,0,0,1,.09-.29c6.68-6.12,10.53-16.78,10.53-19v-.34l.12,0a21.6,21.6,0,0,1,2.81.72c.33.11.66.21,1,.31.76.23,1.09.52,1.09,1,0,.71-.69.92-1.52,1,2.57,1.41,7.38,4.62,8,6.44l.05.19a3.83,3.83,0,0,1,.19.92c0,.39-.1,1.67-1.36,1.67-.62,0-1.17-.49-1.65-1.46a22.32,22.32,0,0,0-6.47-6.91,52,52,0,0,1-5.44,9.76l.49.06a29,29,0,0,0,4.07.25h2.4a12.51,12.51,0,0,1,1.74-2l.11-.06a.72.72,0,0,1,.37-.12.57.57,0,0,1,.31.13c1.7.92,3.21,2.34,3.21,3,0,.37-.41.59-1.12.59h-5.24v7.09h3.38c1.64-2,1.92-2.21,2.28-2.21s1.67.59,3.25,2.19a1.38,1.38,0,0,1,.63.93c0,.42-.49.69-1.24.69h-8.3V80.3c2.71-.93,5.55-1.95,8.08-3h0c.47,0,.73.49.73,1a.61.61,0,0,1-.29.57c-5.76,2.79-14.11,6-17.81,7.38a3.8,3.8,0,0,1,.16.91,2,2,0,0,1-.33,1.1l-.07.11A.67.67,0,0,1,382.49,88.48Zm2.7-9.67c-.34,0-1.12-.17-1.12-1.77v-.22c0-.2,0-.4,0-.59s0-.34,0-.49a14.42,14.42,0,0,0-2-7.3.6.6,0,0,1-.07-.21c0-.34.46-.59.88-.59,1.29,0,4.36,6.32,4.36,8.36C387.33,77.24,386.3,78.81,385.19,78.81Zm9.3-.16a.64.64,0,0,1-.7-.59.54.54,0,0,1,.07-.32,33.39,33.39,0,0,0,2.81-10.43v-.12l.12,0s4.52,1.17,4.52,2.31c0,.69-.58.85-2,1C396,78,395.07,78.65,394.49,78.65Zm15.42-6.59c-.55,0-1-.44-1.35-1.36a18.69,18.69,0,0,0-4.95-7,.49.49,0,0,1-.16-.3c0-.33.48-.69.82-.69s7.18,4,7.18,7C411.45,71.34,410.55,72.06,409.91,72.06Z"/><path d="M119.54,31.47l.44-.07.33-.1a1,1,0,0,0,.26-.14,1.31,1.31,0,0,0,.21-.23,2,2,0,0,0,.21-.33l.22-.47q.47-1.09,1.26-3.17t1.07-2.89a4.85,4.85,0,0,0,.25-.84h1q.18.6.24.76.37,1.05,1.19,3.29t1.15,3l.19.42a1.68,1.68,0,0,0,.18.29,1.07,1.07,0,0,0,.18.2,1,1,0,0,0,.24.12,1.62,1.62,0,0,0,.32.09l.44.07s0,.09,0,.22a.43.43,0,0,1-.05.23q-1.09,0-1.75,0-1,0-1.9,0a.47.47,0,0,1,0-.23c0-.12,0-.2,0-.22l.22,0,.21,0,.17,0,.16,0a.27.27,0,0,0,.17-.36q-.12-.41-.36-1.1t-.45-1.19a.12.12,0,0,0-.06-.07l-.07,0H122.7a.15.15,0,0,0-.09,0l-.06.08a12.17,12.17,0,0,0-.71,2.17.83.83,0,0,0,0,.17.32.32,0,0,0,.05.13.31.31,0,0,0,.14.11l.25.08.69.13s0,.09,0,.22a.43.43,0,0,1-.06.23l-.71,0-1.13,0-1,0-.56,0a.63.63,0,0,1,0-.45ZM124,24.76h0l0,0-.49,1.39q-.4,1.15-.55,1.58c0,.05,0,.08.05.1h2s0,0,.06,0a.08.08,0,0,0,0-.08Q124.18,25.27,124,24.76Z"/><path d="M148.68,23.65s-.05-.11,0-.22a.39.39,0,0,1,0-.21l.73,0,1.06,0h3.36a8.56,8.56,0,0,0,1.37-.07s0,0,0,0a.13.13,0,0,1,0,.06,6.08,6.08,0,0,0-.12.83c0,.39-.06.78-.08,1.17,0,0-.11.06-.25.07s-.23,0-.26,0a5.6,5.6,0,0,0-.2-.94.77.77,0,0,0-.23-.36.68.68,0,0,0-.4-.12l-1.25,0c-.56,0-.94,0-1.14,0a.18.18,0,0,0-.12.1.32.32,0,0,0-.05.15q0,1.76,0,3.11a.07.07,0,0,0,0,0l0,0q1.83,0,2.29,0a.52.52,0,0,0,.33-.13.84.84,0,0,0,.18-.33q.1-.31.17-.6a.72.72,0,0,1,.27,0,.58.58,0,0,1,.26,0q-.09,1.09-.09,1.44,0,.53,0,1.4a.54.54,0,0,1-.24,0,.72.72,0,0,1-.26,0q-.06-.28-.17-.63a.78.78,0,0,0-.19-.34.48.48,0,0,0-.31-.12q-.56,0-2.29,0l0,0,0,0q0,2,0,2.55a1,1,0,0,0,.11.5.61.61,0,0,0,.4.21,8.39,8.39,0,0,0,1,.15s0,.1,0,.22,0,.2-.06.22l-.84,0-1.33,0-1.08,0-.77,0s0-.09,0-.22,0-.2,0-.23q.48-.06.77-.13a.69.69,0,0,0,.39-.22,1,1,0,0,0,.1-.5q0-.5,0-3.16t0-3a1.25,1.25,0,0,0-.09-.48.49.49,0,0,0-.3-.21Q149,23.68,148.68,23.65Z"/><path d="M164.61,23.65s0-.09,0-.22,0-.2.06-.22l.76,0,1.06,0,1,0,.74,0s.05.09.05.21a.36.36,0,0,1,0,.22l-.7.14a.55.55,0,0,0-.33.22,1,1,0,0,0-.09.49q0,1.94,0,3.92a3.85,3.85,0,0,0,.23,1.3,1.77,1.77,0,0,0,.27.6,2.08,2.08,0,0,0,.49.49,2.34,2.34,0,0,0,.74.34,3.54,3.54,0,0,0,1,.12l.48,0a2.87,2.87,0,0,0,.46-.09,1.79,1.79,0,0,0,.44-.18,1.85,1.85,0,0,0,.38-.31,1.84,1.84,0,0,0,.31-.45,3,3,0,0,0,.22-.64,4.89,4.89,0,0,0,.12-.84,35.51,35.51,0,0,0,0-4A1.42,1.42,0,0,0,172,24a.73.73,0,0,0-.49-.27l-.76-.11a.4.4,0,0,1,0-.23c0-.12,0-.19,0-.21l.67,0,1.08,0,.93,0,.63,0s0,.1,0,.22,0,.2,0,.22l-.62.14a.57.57,0,0,0-.39.3,2,2,0,0,0-.11.72q0,.64,0,1.45t0,1.2q0,.39,0,.85t-.07.77a5.42,5.42,0,0,1-.12.6,3.29,3.29,0,0,1-.38,1,2.76,2.76,0,0,1-.59.7,3,3,0,0,1-.74.45,3.89,3.89,0,0,1-.84.25,5.13,5.13,0,0,1-.88.07,5.51,5.51,0,0,1-1.2-.12,3.31,3.31,0,0,1-.92-.34,2.45,2.45,0,0,1-1.08-1.24,3.38,3.38,0,0,1-.21-.84q-.06-.53-.08-2.81t0-2.32a1,1,0,0,0-.1-.44.51.51,0,0,0-.29-.23A6.88,6.88,0,0,0,164.61,23.65Z"/><path d="M182.89,23.66s0-.1,0-.22,0-.2.06-.22l.77,0,1.08,0h.63a1.41,1.41,0,0,0,.14.27c.06.1.19.26.36.49q.94,1.19,2.58,3.19T190.8,30s0,0,0,0q0-.41,0-1.46t0-1.62q0-.56,0-1.25c0-.46,0-.81,0-1.06a1,1,0,0,0-.13-.5.7.7,0,0,0-.42-.24,8.74,8.74,0,0,0-1-.18s0-.1,0-.22,0-.19,0-.21l.76,0,1.18,0,.87,0,.65,0s.05.1.05.22,0,.19-.05.22l-.63.15a.63.63,0,0,0-.37.26,1.19,1.19,0,0,0-.12.49q0,.31,0,.68c0,.24,0,.55,0,.91s0,.7,0,1,0,.74,0,1.34,0,1.12,0,1.54q0,1,0,1.93l-.5,0-.5,0q-.74-1.06-5.38-6.86h-.07q0,4.42,0,5.42a1.07,1.07,0,0,0,.15.56.69.69,0,0,0,.42.25l.18,0,.19,0,.25,0,.25,0a.37.37,0,0,1,0,.23.4.4,0,0,1-.05.22l-.73,0-1.07,0-1.09,0-.66,0s0-.1,0-.22,0-.2,0-.22a4.19,4.19,0,0,0,.77-.15.74.74,0,0,0,.39-.25,1,1,0,0,0,.16-.53q.06-1.09.13-5.9a.7.7,0,0,0-.41-.7,1.78,1.78,0,0,0-.45-.18A4.62,4.62,0,0,0,182.89,23.66Z"/><path d="M209.46,25.5a5.45,5.45,0,0,0-.18-.88,1.26,1.26,0,0,0-.25-.47,1.36,1.36,0,0,0-.44-.3,3.91,3.91,0,0,0-1.72-.31,3.19,3.19,0,0,0-1.34.27,2.61,2.61,0,0,0-1,.77,3.54,3.54,0,0,0-.6,1.21,5.6,5.6,0,0,0-.21,1.58,5.31,5.31,0,0,0,.1,1,4.74,4.74,0,0,0,.3,1,3.51,3.51,0,0,0,1.23,1.5,3.18,3.18,0,0,0,.93.43,4.08,4.08,0,0,0,1.14.15,2.9,2.9,0,0,0,.87-.12,1.93,1.93,0,0,0,.64-.32,5.56,5.56,0,0,0,1.08-1.4.39.39,0,0,1,.21.07.37.37,0,0,1,.18.16,4.55,4.55,0,0,1-.47,1.1,2.51,2.51,0,0,1-.6.81,5.85,5.85,0,0,1-1,.25,6.62,6.62,0,0,1-1.21.11,5.88,5.88,0,0,1-2.66-.55A3.75,3.75,0,0,1,202.83,30a5.12,5.12,0,0,1-.57-2.48A4.76,4.76,0,0,1,202.5,26a4.2,4.2,0,0,1,.75-1.34,4.1,4.1,0,0,1,1.26-1,5.83,5.83,0,0,1,2.84-.65,10.09,10.09,0,0,1,1.09.06l1,.13.7.09q-.07.43-.14,1.09t-.08,1.1a.23.23,0,0,1-.14.07.81.81,0,0,1-.22,0C209.5,25.55,209.46,25.53,209.46,25.5Z"/><path d="M225.77,31.47a.36.36,0,0,1,0,.23c0,.12,0,.19-.07.21q-1.22,0-2.18,0t-2.16,0a.41.41,0,0,1,0-.23.36.36,0,0,1,0-.22q.81-.1,1-.15a.54.54,0,0,0,.42-.28,2,2,0,0,0,.13-.75q0-1.23,0-6.3a.13.13,0,0,0,0-.08.07.07,0,0,0-.06,0h-1.76a.67.67,0,0,0-.59.39A6.42,6.42,0,0,0,220,25.6a.47.47,0,0,1-.27,0c-.14,0-.22-.07-.23-.1q.09-.46.17-1.19t.11-1.19s0,0,.08,0,.09,0,.1,0a2.49,2.49,0,0,0,1.15.21h5.18a6,6,0,0,0,.82,0,2,2,0,0,0,.58-.18l.09,0a.14.14,0,0,1,.06.05,17.55,17.55,0,0,0-.32,2.45s-.1.05-.25.05-.23,0-.25-.05a5,5,0,0,0-.23-1.27.75.75,0,0,0-.22-.3.58.58,0,0,0-.32-.1h-1.93a.09.09,0,0,0,0,0,.14.14,0,0,0,0,.07q0,5.91,0,6.62a1.07,1.07,0,0,0,.13.47.55.55,0,0,0,.34.22A8.6,8.6,0,0,0,225.77,31.47Z"/><path d="M241.35,32.13a4.73,4.73,0,0,1-1.81-.33,3.86,3.86,0,0,1-1.38-.94,4.77,4.77,0,0,1-1.22-3.37,4.35,4.35,0,0,1,.9-2.72,4.14,4.14,0,0,1,1.62-1.27A5,5,0,0,1,241.6,23a4.87,4.87,0,0,1,1.54.24,3.82,3.82,0,0,1,1.21.64,4,4,0,0,1,.86,1,4.22,4.22,0,0,1,.53,1.19,5.13,5.13,0,0,1,.17,1.33A5.62,5.62,0,0,1,245.7,29a4.42,4.42,0,0,1-2.28,2.66A4.71,4.71,0,0,1,241.35,32.13Zm.53-.67a2.7,2.7,0,0,0,.82-.12,1.79,1.79,0,0,0,.65-.35,3.73,3.73,0,0,0,1.18-3.11,5.67,5.67,0,0,0-.41-2.18,3.39,3.39,0,0,0-1.2-1.54,3.12,3.12,0,0,0-1.82-.55,2.49,2.49,0,0,0-1.23.31,2.62,2.62,0,0,0-1.11,1.28,4.89,4.89,0,0,0-.38,2,5.9,5.9,0,0,0,.19,1.49,4.63,4.63,0,0,0,.59,1.35,3.35,3.35,0,0,0,1,1A3.17,3.17,0,0,0,241.88,31.46Z"/><path d="M255.53,23.65a.38.38,0,0,1,0-.23c0-.12,0-.19.07-.2l.78,0,.87,0h2.37a3.38,3.38,0,0,1,.9.11,2.46,2.46,0,0,1,.71.31,2.18,2.18,0,0,1,.51.47,1.91,1.91,0,0,1,.32.59,2.17,2.17,0,0,1,.1.68,2.42,2.42,0,0,1-.12.79,2,2,0,0,1-.35.64,2.74,2.74,0,0,1-.5.47,3.29,3.29,0,0,1-.61.35.12.12,0,0,0,0,.06.08.08,0,0,0,0,.06q.4.64,1.09,1.55a14.88,14.88,0,0,0,1.17,1.4L263,31a1.69,1.69,0,0,0,.23.18l.21.12.25.09.3.07.39.06s0,.11,0,.23,0,.2-.09.21a9.92,9.92,0,0,1-1.28,0,3,3,0,0,1-1-.23,2.36,2.36,0,0,1-.69-.59q-.24-.28-.57-.77t-.74-1.1l-.57-.86a.42.42,0,0,0-.35-.2h-1l0,0,0,0q0,1.61,0,2.48a1,1,0,0,0,.13.46.55.55,0,0,0,.35.18l.81.14s0,.09,0,.22,0,.2-.07.23l-.69,0-1.23,0-1.15,0-.67,0a.31.31,0,0,1-.06-.23c0-.12,0-.19.05-.22l.73-.11a.59.59,0,0,0,.36-.22,1.16,1.16,0,0,0,.12-.55q0-.25,0-1.32t0-1.63q0-2.81,0-3.21a.85.85,0,0,0-.1-.45.58.58,0,0,0-.36-.2A6.31,6.31,0,0,0,255.53,23.65Zm3.13.1a1.18,1.18,0,0,0-.5.08.23.23,0,0,0-.06.08.27.27,0,0,0,0,.11q0,.49,0,3.43a.08.08,0,0,0,0,.06l0,0a5.77,5.77,0,0,0,1.85-.14,1.44,1.44,0,0,0,.63-.57,1.83,1.83,0,0,0,.25-1,2.12,2.12,0,0,0-.53-1.55A2.2,2.2,0,0,0,258.66,23.74Z"/><path d="M283.89,23.65s-.05-.11,0-.22a.39.39,0,0,1,0-.21l.73,0,1.06,0H289a8.56,8.56,0,0,0,1.37-.07s0,0,0,0a.13.13,0,0,1,0,.06,6.08,6.08,0,0,0-.12.83c0,.39-.06.78-.08,1.17,0,0-.11.06-.25.07s-.23,0-.26,0a5.6,5.6,0,0,0-.2-.94.77.77,0,0,0-.23-.36.68.68,0,0,0-.4-.12l-1.25,0c-.56,0-.94,0-1.14,0a.18.18,0,0,0-.12.1.32.32,0,0,0-.05.15q0,1.76,0,3.11a.07.07,0,0,0,0,0l0,0q1.83,0,2.29,0a.52.52,0,0,0,.33-.13.84.84,0,0,0,.18-.33q.1-.31.17-.6a.72.72,0,0,1,.27,0,.58.58,0,0,1,.26,0q-.09,1.09-.09,1.44,0,.53,0,1.4a.54.54,0,0,1-.24,0,.72.72,0,0,1-.26,0q-.06-.28-.17-.63a.78.78,0,0,0-.19-.34.48.48,0,0,0-.31-.12q-.56,0-2.29,0l0,0,0,0q0,2,0,2.55a1,1,0,0,0,.11.5.61.61,0,0,0,.4.21,8.39,8.39,0,0,0,1,.15s0,.1,0,.22,0,.2-.06.22l-.84,0-1.33,0-1.08,0-.77,0s0-.09,0-.22,0-.2,0-.23q.48-.06.77-.13a.69.69,0,0,0,.39-.22,1,1,0,0,0,.1-.5q0-.5,0-3.16t0-3A1.25,1.25,0,0,0,285,24a.49.49,0,0,0-.3-.21Q284.19,23.68,283.89,23.65Z"/><path class="c" d="M299.17,31.47l.44-.07.33-.1a1,1,0,0,0,.27-.14,1.39,1.39,0,0,0,.21-.23,1.85,1.85,0,0,0,.2-.33q.09-.18.21-.47Q301.31,29,302.1,27t1.07-2.89a4,4,0,0,0,.25-.84h1c0,.2.13.45.24.77q.36,1,1.18,3.26t1.15,3l.19.42a1.68,1.68,0,0,0,.18.29,1.07,1.07,0,0,0,.18.2,1,1,0,0,0,.24.12,1.62,1.62,0,0,0,.32.09l.44.07s0,.1,0,.22a.42.42,0,0,1-.06.23q-1.09,0-1.75,0-1,0-1.9,0a.38.38,0,0,1,0-.23c0-.12,0-.2,0-.22a6.4,6.4,0,0,0,.78-.15.27.27,0,0,0,.15-.36q-.13-.46-.93-2.72t-1.24-3.46h-.07q-1.39,3.86-2,5.74a.76.76,0,0,0,0,.55.6.6,0,0,0,.42.26,6,6,0,0,0,.7.13s0,.09,0,.22,0,.2-.06.23l-.72,0-1.13,0-1,0-.56,0a.37.37,0,0,1,0-.23C299.13,31.56,299.14,31.49,299.17,31.47Z"/><path d="M316.87,23.66s0-.1,0-.22,0-.2.06-.22l.77,0,1.08,0h.63a1.41,1.41,0,0,0,.14.27c.06.1.19.26.36.49q.94,1.19,2.58,3.19t2.32,2.8s0,0,0,0q0-.41,0-1.46t0-1.62q0-.56,0-1.25c0-.46,0-.81,0-1.06a1,1,0,0,0-.13-.5.7.7,0,0,0-.42-.24,8.74,8.74,0,0,0-1-.18s0-.1,0-.22,0-.19,0-.21l.76,0,1.18,0,.87,0,.65,0s.05.1.05.22,0,.19-.05.22l-.63.15a.63.63,0,0,0-.37.26,1.19,1.19,0,0,0-.12.49q0,.31,0,.68c0,.24,0,.55,0,.91s0,.7,0,1,0,.74,0,1.34,0,1.12,0,1.54q0,1,0,1.93l-.5,0-.5,0q-.74-1.06-5.38-6.86h-.07q0,4.42,0,5.42a1.07,1.07,0,0,0,.15.56.69.69,0,0,0,.42.25l.18,0,.19,0,.25,0,.25,0a.37.37,0,0,1,0,.23.4.4,0,0,1-.05.22l-.73,0-1.07,0-1.09,0-.66,0s0-.1,0-.22,0-.2,0-.22a4.19,4.19,0,0,0,.77-.15.74.74,0,0,0,.39-.25,1,1,0,0,0,.16-.53q.06-1.09.13-5.9a.7.7,0,0,0-.41-.7,1.78,1.78,0,0,0-.45-.18A4.62,4.62,0,0,0,316.87,23.66Z"/><path d="M342.12,31.47a.36.36,0,0,1,0,.23c0,.12,0,.19-.07.21q-1.22,0-2.18,0t-2.16,0a.41.41,0,0,1,0-.23.36.36,0,0,1,0-.22q.81-.1,1-.15a.54.54,0,0,0,.42-.28,2,2,0,0,0,.13-.75q0-1.23,0-6.3a.13.13,0,0,0,0-.08.07.07,0,0,0-.06,0h-1.76a.67.67,0,0,0-.59.39,6.42,6.42,0,0,0-.56,1.33.47.47,0,0,1-.27,0c-.14,0-.22-.07-.23-.1q.09-.46.17-1.19t.11-1.19s0,0,.08,0,.09,0,.1,0a2.49,2.49,0,0,0,1.15.21h5.18a6,6,0,0,0,.82,0A2,2,0,0,0,344,23l.09,0a.14.14,0,0,1,.06.05,17.55,17.55,0,0,0-.32,2.45s-.1.05-.25.05-.23,0-.25-.05a5,5,0,0,0-.23-1.27.75.75,0,0,0-.22-.3.58.58,0,0,0-.32-.1h-1.93a.09.09,0,0,0,0,0,.14.14,0,0,0,0,.07q0,5.91,0,6.62a1.07,1.07,0,0,0,.13.47.55.55,0,0,0,.34.22A8.6,8.6,0,0,0,342.12,31.47Z"/><path d="M351.64,31.47l.44-.07.33-.1a1,1,0,0,0,.26-.14,1.31,1.31,0,0,0,.21-.23,2,2,0,0,0,.21-.33l.22-.47q.47-1.09,1.26-3.17t1.07-2.89a4.85,4.85,0,0,0,.25-.84h1q.18.6.24.76.37,1.05,1.19,3.29t1.15,3l.19.42a1.68,1.68,0,0,0,.18.29,1.07,1.07,0,0,0,.18.2,1,1,0,0,0,.24.12,1.62,1.62,0,0,0,.32.09l.44.07s0,.09,0,.22a.43.43,0,0,1-.05.23q-1.09,0-1.75,0-1,0-1.9,0a.47.47,0,0,1,0-.23c0-.12,0-.2,0-.22l.22,0,.21,0,.17,0,.16,0a.27.27,0,0,0,.17-.36q-.12-.41-.36-1.1t-.45-1.19a.12.12,0,0,0-.06-.07l-.07,0h-2.51a.15.15,0,0,0-.09,0l-.06.08a12.17,12.17,0,0,0-.71,2.17.83.83,0,0,0,0,.17.32.32,0,0,0,.05.13.31.31,0,0,0,.14.11l.25.08.69.13s0,.09,0,.22a.43.43,0,0,1-.06.23l-.71,0-1.13,0-1,0-.56,0a.63.63,0,0,1,0-.45Zm4.43-6.71h0l0,0-.49,1.39q-.4,1.15-.55,1.58c0,.05,0,.08.05.1h2s0,0,.06,0a.08.08,0,0,0,0-.08Q356.27,25.27,356.07,24.76Z"/><path d="M370.5,29.4a6,6,0,0,0,.45,1.11,1.93,1.93,0,0,0,.59.66,2.19,2.19,0,0,0,1.37.39,1.71,1.71,0,0,0,.52-.08,1.61,1.61,0,0,0,.47-.25,1.18,1.18,0,0,0,.36-.46,1.59,1.59,0,0,0,.13-.67,1.77,1.77,0,0,0,0-.41,1.2,1.2,0,0,0-.15-.36A2,2,0,0,0,374,29a2.57,2.57,0,0,0-.36-.31l-.46-.31-.59-.34c-.28-.16-.52-.31-.71-.44a5.09,5.09,0,0,1-.58-.45,2.7,2.7,0,0,1-.45-.51,2.26,2.26,0,0,1-.27-.58,2.37,2.37,0,0,1-.1-.7,2.28,2.28,0,0,1,.22-1,2.1,2.1,0,0,1,.6-.75,2.78,2.78,0,0,1,.88-.46,3.53,3.53,0,0,1,1.09-.16,7.2,7.2,0,0,1,.84,0l.77.11.58.08a16.48,16.48,0,0,0-.24,2s-.1.05-.22.05-.2,0-.22,0a4.27,4.27,0,0,0-.18-1,1,1,0,0,0-.36-.5,2,2,0,0,0-1.15-.3,1.51,1.51,0,0,0-.63.13,1.25,1.25,0,0,0-.45.33,1.53,1.53,0,0,0-.27.45,1.41,1.41,0,0,0-.09.51,1.75,1.75,0,0,0,.12.67,1.47,1.47,0,0,0,.31.48,3.08,3.08,0,0,0,.52.41,10.4,10.4,0,0,0,1,.55q.64.33.83.45a4.37,4.37,0,0,1,.52.38,2.87,2.87,0,0,1,.42.44,1.8,1.8,0,0,1,.29.57,2.29,2.29,0,0,1,.1.69,2.35,2.35,0,0,1-.21,1,2.59,2.59,0,0,1-.6.83,2.83,2.83,0,0,1-1,.58,4,4,0,0,1-1.34.22,4.76,4.76,0,0,1-1.14-.14,5.06,5.06,0,0,1-.9-.29,3.71,3.71,0,0,1-.24-.92q-.15-.8-.18-1.22c0-.05.09-.1.22-.13A.41.41,0,0,1,370.5,29.4Z"/><path d="M384.68,23.65s0-.1,0-.22,0-.19.06-.22l.77,0,1,0h.91l.72,0s.05.09.06.21,0,.2,0,.22l-.52.11q-.25.07-.1.37.28.6.9,1.8t.84,1.55h.1q.38-.6,1-1.67t.77-1.51a.82.82,0,0,0,.06-.18.32.32,0,0,0,0-.15.21.21,0,0,0-.1-.12.65.65,0,0,0-.22-.07l-.69-.12a.37.37,0,0,1,0-.23c0-.12,0-.19.07-.2l1.58,0h.57l.53,0,.41,0s.06.08.07.21,0,.21,0,.23l-.26,0-.35.07a1.1,1.1,0,0,0-.51.25,3.56,3.56,0,0,0-.5.65q-.43.66-1,1.75t-.9,1.62a1.2,1.2,0,0,0-.09.25,1.06,1.06,0,0,0,0,.24q0,.46,0,1.89a1.91,1.91,0,0,0,.1.67.47.47,0,0,0,.35.25q.18,0,.91.13a.4.4,0,0,1,0,.23c0,.13,0,.2-.06.22l-.81,0-1.18,0-1.3,0-.8,0s0-.1,0-.22,0-.2,0-.22a9.27,9.27,0,0,0,1-.14.59.59,0,0,0,.38-.24,1.12,1.12,0,0,0,.11-.53q0-.69,0-1.74a2.2,2.2,0,0,0,0-.35,1.55,1.55,0,0,0-.08-.32q-.38-.86-1.69-3.22-.21-.38-.33-.57a1.73,1.73,0,0,0-.26-.32.88.88,0,0,0-.26-.18l-.33-.1-.15,0-.13,0-.19,0Z"/></svg>