<svg xmlns="http://www.w3.org/2000/svg" xmlns:xlink="http://www.w3.org/1999/xlink" viewBox="0 0 512 128"><defs><style>.a,.b,.d{fill:none;}.b{stroke:#000;stroke-miterlimit:10;}.c{clip-path:url(#a);}.d{stroke:#fff;stroke-width:4px;}.e{fill:red;}</style><clipPath id="a"><rect class="a" x="48.83" y="2.8" width="414.33" height="84.67"/></clipPath></defs><title>logo-aff-lp</title><path d="M140.17,100.41c-.2,0-.5,0-.5-.27,0,0,0-.3,0-.53,0-.7,0-2,0-2.6V95.49a9.2,9.2,0,0,0-.11-1.66l0-.13h.13c1,.07,1.15.09,1.15.32s-.11.26-.34.33v3c0,.34,0,.87,0,1.38v.46h7.74c0-.24,0-.6,0-2.19V94.83a5.24,5.24,0,0,0-.09-1l0-.13h.14c.39,0,.75.06.88.08s.27.08.27.24-.11.26-.34.33V97c0,.26,0,1.7,0,2.55V100c0,.1-.06.29-.42.33h0c-.21,0-.46,0-.46-.27l0-.4h-7.72s0,.4,0,.4c0,.2-.21.31-.4.33h0Zm3.68-1.51a.27.27,0,0,1-.28-.14c0-.15,0-.15-.87-.34a.22.22,0,0,1-.16-.21.23.23,0,0,1,.23-.23,8.42,8.42,0,0,0,1.21.17c.39,0,.49-.41.52-2.15V94.2h-.91l-.11.34a.35.35,0,0,1-.35.18,1.44,1.44,0,0,1-.36-.05.2.2,0,0,1-.13-.18c0-.06,0-.1.21-.52a9.11,9.11,0,0,0,.42-1.23h-1c-.21,0-2.34,0-3,.08a.78.78,0,0,1-.31-.56v-.12h.12c.72.07,3.15.1,3.5.1h5.7a1.6,1.6,0,0,1,.51-.52l.12,0a4,4,0,0,1,1,.61l0,0,0,.13c0,.14-.1.28-.34.28h-5.55c-.13.38-.22.66-.35,1h.79c.26-.24.26-.24.31-.24s.75.26.75.58c0,.11-.07.24-.4.31,0,0,0,.89,0,1.13A4.86,4.86,0,0,0,147,94.21l0-.08.09,0c.2.1.74.45.74.69,0,.05,0,.22-.28.22a1.66,1.66,0,0,1-.32-.05,11,11,0,0,1-2,1v.25c1.25.38,2.71,1,2.71,1.58a.37.37,0,0,1-.36.39.61.61,0,0,1-.43-.24,5.9,5.9,0,0,0-1.93-1.25,7.69,7.69,0,0,1-.11,1.12A1.24,1.24,0,0,1,143.85,98.91Zm-2.15-.61c-.37,0-.81-.76-.82-.77l-.07-.12.14,0a13.93,13.93,0,0,0,3.2-1.14h0a.25.25,0,0,1,.28.24v0l-.08.11a23,23,0,0,1-2.49,1.24.79.79,0,0,1,0,.16C141.93,98.19,141.84,98.29,141.71,98.29Zm1.45-2a.51.51,0,0,1-.4-.26,4.29,4.29,0,0,0-1.48-1.12l-.06,0,0-.1a.29.29,0,0,1,.27-.24c.18,0,1.79.6,2,1a.7.7,0,0,1,.07.28C143.51,96.1,143.37,96.26,143.16,96.26Z"/><path d="M162.68,100.38a.33.33,0,0,1-.29-.12c-.1-.19-.2-.26-1.51-.41h0c-.08,0-.15-.09-.15-.21s.07-.25.2-.25c1.21.09,1.6.11,1.87.11a.52.52,0,0,0,.57-.44V96.2H162.1c-.33,0-2.83,0-3.46.08a.85.85,0,0,1-.35-.6v-.11h.11c.44,0,3.18.1,4,.1h1v-.32a5.69,5.69,0,0,0-.08-1.1l0-.14.14,0,.48,0a14.46,14.46,0,0,0,2-1.34h-2.57c-.75,0-2.83,0-3.29.09a1,1,0,0,1-.36-.57v-.12h.12c.54.06,3,.1,3.55.1h3c.25-.2.35-.25.42-.25h0l.08,0c.68.33.78.51.78.65s0,.3-.47.3l-.31,0a22.44,22.44,0,0,1-2.31,1.3.21.21,0,0,1,0,.1c0,.12-.12.2-.3.24v1h3.25c.5-.56.56-.56.61-.56s1.1.53,1.1.81c0,.13-.1.26-.33.26h-4.62v1.89c0,.14,0,1,0,1.14C164.25,99.82,163.35,100.38,162.68,100.38Z"/><path d="M177.43,100.4c-.13,0-.35-.08-.35-.25v0l.06-.09c1.08-1.1,1.61-2.8,1.61-5.17a8.65,8.65,0,0,0-.32-2.78l-.06-.17.17,0a4.45,4.45,0,0,1,1,.37h6.33s.23-.29.38-.29.82.42.82.64-.15.25-.44.31a13,13,0,0,0-.16,1.93,6.49,6.49,0,0,0,1.18,4.19c.1-.34.28-1,.48-1.83a.23.23,0,0,1,.24-.15c.16,0,.33.08.33.22-.1.49-.36,1.82-.36,2a.62.62,0,0,0,.08.37.53.53,0,0,1,.13.33.36.36,0,0,1-.17.29.33.33,0,0,1-.22.06c-.41,0-2.48-1-2.48-5.65a18.27,18.27,0,0,1,.11-1.91h-6.3c.08,1.41.08,1.63.08,1.94,0,3.41-1.09,4.8-2,5.64l0,0Zm8.16-.29c-.15,0-.28-.12-.4-.35a6.17,6.17,0,0,0-.35-.61c-1.51.23-3.19.42-4.62.53,0,.21-.16.41-.34.41s-.55-.84-.58-1l0-.13.13,0a5.28,5.28,0,0,0,.6,0c.32,0,1.35-.06,2.2-.12V97.42H181.1v.23c0,.21-.29.27-.39.27-.31,0-.42-.08-.42-.23s0-.33,0-.33c0-.2,0-.69,0-.81s0-.77,0-.87a2.9,2.9,0,0,0-.08-.75l0-.17.16,0a5.12,5.12,0,0,1,.75.29h1.07v-.94c-.75.07-1.52.11-2.2.12a.32.32,0,0,1-.27-.29v-.1l.17-.07a14.12,14.12,0,0,0,4.47-.71c.33.09.78.41.78.6s-.13.22-.33.22a.74.74,0,0,1-.38-.09,8.46,8.46,0,0,1-1.48.25v1h1.17s.08-.15.18-.21l.13,0a.15.15,0,0,1,.1,0,1.49,1.49,0,0,1,.45.26c.22.14.22.25.22.27s-.18.23-.36.27v.6c0,.17,0,.37,0,.6l0,.54c0,.1,0,.33-.46.33-.26,0-.35-.12-.35-.23v-.09H183v1.42l1.54-.12a5.62,5.62,0,0,0-.76-.72l0,0,0-.1c0-.13.14-.22.27-.22s2,1.23,2,2C185.94,99.89,185.79,100.11,185.59,100.11ZM184.11,97c0-.12,0-.47,0-.47v-.93H183V97Zm-1.9,0V95.56H181.1c0,.44,0,1.25,0,1.25s0,.08,0,.14Z"/><path d="M206.24,100.45c-.14,0-.29-.1-.47-.31a4.4,4.4,0,0,0-.95-.82c-1.49.24-3.2.41-6.45.63,0,.25-.15.4-.31.4-.31,0-.55-.68-.63-1l0-.14.14,0a6.69,6.69,0,0,0,.9,0l1.23,0a9.79,9.79,0,0,0,.88-1.15c-.6,0-2.91,0-3.44.08a.7.7,0,0,1-.31-.51v-.11h.11c.58,0,3.13.1,4,.1h4.71s.4-.49.57-.49,1.08.42,1.08.69-.11.26-.35.26h-5.3c-.6.65-.87.92-1.1,1.12,1.52-.06,2.83-.17,3.64-.24-.28-.14-.59-.28-.92-.42a.22.22,0,0,1-.15-.19.25.25,0,0,1,.27-.21c.16,0,3.27,1,3.27,1.89A.43.43,0,0,1,206.24,100.45Zm-8-3.51a.72.72,0,0,1-.24-.48v-.11h.11c.57,0,2.43.1,3.31.1h2.82s.46-.47.62-.47,1.1.39,1.1.68c0,.12-.11.25-.35.25h-4.49c-.56,0-2.27,0-2.81.07h0Zm3.62-.74c-.25,0-.3-.13-.3-.23a1.54,1.54,0,0,1,0-.16c0-.07,0-.16,0-.27s0-.77,0-1v-.88h-3.54c-.21.88-.84,1.42-1.32,1.42a.35.35,0,0,1-.39-.35.45.45,0,0,1,.26-.41,1.7,1.7,0,0,0,1-1.41c0-.1.12-.16.24-.16s.26.07.28.17a.77.77,0,0,1,0,.18s0,.05,0,.08h3.46v-.63h-1c-.52,0-2,0-2.52.06a.61.61,0,0,1-.31-.47v-.11H198c.57,0,2.17.08,3,.08h3.75a1.71,1.71,0,0,1,.61-.5c.09,0,1.11.4,1.11.71,0,.13-.12.25-.35.25h-3.69v.63h3.88c.26-.24.31-.26.38-.26l0,.11.08-.07s.84.36.84.68c0,.12-.07.26-.42.26l-.3,0a9.36,9.36,0,0,1-.93.59v0c0,.12-.13.22-.32.22H204a7.23,7.23,0,0,0-.91,0,.62.62,0,0,1-.3-.46v-.12h.12a10.45,10.45,0,0,0,1.34.08h.35s.19-.22.36-.34l.12,0a1.75,1.75,0,0,1,.57.27c.1-.12.27-.31.4-.5h-3.65v1.8c0,.13,0,.23,0,.31v.1C202.44,96.12,202.26,96.21,201.9,96.21Zm1.2-.41a.69.69,0,0,1-.23-.44v-.12H203a10.18,10.18,0,0,0,1.33.09h.55s.19-.23.36-.35l.12,0c.13,0,.89.36.89.62s-.12.21-.32.21h-1.84a7.32,7.32,0,0,0-.91,0h0Zm-5,0a.69.69,0,0,1-.23-.44v-.12H198a11.68,11.68,0,0,0,1.42.09h.42s.19-.23.36-.35l.12,0c.13,0,.9.38.9.62s-.13.21-.33.21h-1.71l-.52,0-.47,0h0Zm.16-1a.69.69,0,0,1-.23-.45v-.12l.12,0a11.36,11.36,0,0,0,1.39.08h.34s.19-.22.36-.34l.12,0c.14,0,.89.39.89.61s-.08.22-.32.22H199.3a8,8,0,0,0-1,0h0Z"/><path d="M222.5,100.49a.22.22,0,0,1-.21-.17c-.08-.21-.21-.23-1-.31a.2.2,0,0,1-.16-.21c0-.12.08-.25.19-.25l.28,0c.32,0,.6.05.92.06s.39-.11.39-.25V97.6a15.12,15.12,0,0,1-2,1.51.54.54,0,0,1,.05.21.24.24,0,0,1-.27.24c-.32,0-.84-.64-.85-.65l-.09-.12.15,0a11.68,11.68,0,0,0,3-1.8l0-1.77h-.56c-.35,0-1.72,0-2.12,0a.67.67,0,0,1-.31-.48v-.12h.12c.43,0,2.09.09,2.64.09H224l.21-.71h-2.49l0,.09c-.06.13-.08.18-.11.24a.36.36,0,0,1-.37.25c-.2,0-.42-.08-.42-.26v0l0-.11h0s.16-.27.23-.44a8.1,8.1,0,0,0,.58-2v-.11l.11-.06c.94.1.94.29.94.36s-.06.2-.33.22l0,.11h2.3s0-.07.06-.09a.35.35,0,0,1,.24-.16c.13,0,.78.33.78.57s-.23.24-.4.28l-.52,1.86h.7a1.44,1.44,0,0,1,.38-.4l.12,0c.06,0,1,.42,1,.69,0,.1-.09.22-.34.22h-2.88v.54a8.68,8.68,0,0,0,.61,1.21c.3-.23,1.22-.94,1.35-1.43l0-.09.1,0s.89.25.89.58c0,.08-.05.23-.39.23l-.18-.11.06.08a11,11,0,0,1-1.62,1.09,4.7,4.7,0,0,0,2.42,1.8l.07,0,0,.15a.24.24,0,0,1-.22.24,1,1,0,0,0-.53.16l0,0h-.09l-.1,0a6.44,6.44,0,0,1-2.42-2.89l0,1.72s0,.14,0,.26,0,.5,0,.71C223.75,100.14,222.87,100.49,222.5,100.49Zm1.83-6.94s.16-.63.2-.82h-2.36c-.09.29-.19.57-.28.82Zm-7.87,6.67c-.24,0-.41-.25-.74-.84l-.07-.13h.15a15.26,15.26,0,0,0,2-.46V96.12h-.78a7.8,7.8,0,0,0-.95,0,.64.64,0,0,1-.31-.47v-.12h.12a12.32,12.32,0,0,0,1.46.09h.46v-1.1h0l-.59,0a.5.5,0,0,1-.16-.12c-.44.5-1,1-1.15,1a.28.28,0,0,1-.27-.23v0l0-.07a6.67,6.67,0,0,0,2.07-3.32v-.12l.12,0a4.91,4.91,0,0,1,.57.13l.2.05c.08,0,.28.08.28.25a.22.22,0,0,1-.15.21c.53.28,1.31.76,1.44,1.09a.83.83,0,0,1,.05.23.35.35,0,0,1-.35.38c-.11,0-.26-.05-.4-.3a4,4,0,0,0-1.19-1.15,9.13,9.13,0,0,1-1,1.55,6.3,6.3,0,0,0,.76,0h.48a1.24,1.24,0,0,1,.3-.35h0l.12,0a.2.2,0,0,1,.11,0c.27.13.67.41.67.61s0,.19-.3.19h-1v1.1h.6c.28-.34.35-.39.46-.39a1.43,1.43,0,0,1,.7.41.3.3,0,0,1,.15.23c0,.1-.09.21-.33.21h-1.58v2.45l.32-.1h0a.2.2,0,0,1-.22-.19v0l0-.07a5.37,5.37,0,0,0,.55-1.81v-.11l.11,0c.1,0,1,.21,1,.49s-.24.24-.48.25a4.06,4.06,0,0,1-.83,1.41c.36-.12.72-.24,1-.36h0a.23.23,0,0,1,.24.25v.06l-.1.11c-1.13.48-2.73,1-3.5,1.29a.49.49,0,0,1,0,.11.41.41,0,0,1-.08.24A.23.23,0,0,1,216.46,100.22ZM217,98.5c-.15,0-.3-.1-.3-.4a1.4,1.4,0,0,1,0-.15,2.29,2.29,0,0,0-.38-1.33.22.22,0,0,1,.23-.27c.32,0,1,1.2,1,1.57A.6.6,0,0,1,217,98.5Zm4.94-1.2c-.14,0-.26-.1-.34-.29a3.33,3.33,0,0,0-1-1.2l0,0,0-.09a.25.25,0,0,1,.24-.21c.08,0,1.52.71,1.52,1.33A.44.44,0,0,1,221.94,97.3Z"/><ellipse cx="237.67" cy="96.04" rx="1.3" ry="1.06"/><path d="M248.63,100.52a.28.28,0,0,1-.28-.27.18.18,0,0,1,.15-.17c2.55-.25,4.37-1,4.92-2h-2.14c-.73,0-1.71,0-2.25.06a.71.71,0,0,1-.32-.52v-.12h.12c.54,0,1.75.09,2.76.09h2c0-.09,0-.18,0-.26a1.41,1.41,0,0,0-.05-.44l0-.13h.19a.22.22,0,0,1-.1-.21c0-.11,0-.38,0-.38,0-.28,0-.4,0-.52a7,7,0,0,1-2.38,1.52.29.29,0,0,1-.24-.24v-.07l.09-.06a6,6,0,0,0,2-1.46h-.49c-.24,0-1,0-1.2,0a.56.56,0,0,1-.26-.43v-.11h.11c.2,0,1,.06,1.34.06l0-.06a1.82,1.82,0,0,0-.56-.72l0,0,0-.1h-.14a.25.25,0,0,1-.27-.25.18.18,0,0,1,.17-.19,11.5,11.5,0,0,0,3.71-.55c.16,0,.79.31.79.55,0,.07,0,.19-.32.19h-.08c.37.16.37.29.37.33l-.12,0,.07.07a.26.26,0,0,1-.23.1h-.16a5.21,5.21,0,0,1-.56.63h.53s.32-.38.44-.38.82.34.82.59-.08.22-.27.22h-2.38v.08c.69.17,2,.66,2.11,1a.76.76,0,0,1,.06.25.28.28,0,0,1-.28.32.5.5,0,0,1-.36-.2,4.55,4.55,0,0,0-1.52-.92V96c0,.24,0,.47,0,.48a.29.29,0,0,1-.22.25c.48,0,.64.12.64.32s-.2.23-.34.26v.07s0,.1,0,.17H258c.34-.43.39-.49.52-.49s1,.47,1,.72-.1.25-.32.25h-4.64c.8.9,2.87,1.56,4.95,1.56.12,0,.24,0,.24.2a.26.26,0,0,1-.13.25l-.21.08a.9.9,0,0,0-.28.2.31.31,0,0,1-.23.08,7.66,7.66,0,0,1-4.78-2.09C253,100.35,248.67,100.52,248.63,100.52Zm6-5.65a7.13,7.13,0,0,0,.67-1.22,7.43,7.43,0,0,1-.95.14v1.08Zm-1,0v-.58c0-.23,0-.36,0-.44l-1.08.07c.32.2.71.55.71.78a.37.37,0,0,1,0,.17Zm-3.26,2.57c-.34,0-.36-.19-.36-.24a15.6,15.6,0,0,0,.07-1.76v-2a6.88,6.88,0,0,0-.07-1.12l0-.15h.14a4.29,4.29,0,0,1,.8.3h2.28a2.9,2.9,0,0,0,.16-.89v-.11h.11c.89.09,1.19.19,1.19.41s-.06.24-.48.26a3.22,3.22,0,0,1-.24.32h3.19c.24-.22.29-.25.36-.25a2.3,2.3,0,0,1,.61.32c.18.11.21.19.21.25s-.19.24-.37.28v2.65c0,.22,0,.7,0,1,0,0,0,.35,0,.38s-.05.34-.52.34c-.29,0-.35-.14-.35-.25V92.91h-6.25c0,.74,0,2.8,0,2.8v1.5l0,.09A.68.68,0,0,1,250.4,97.44Z"/><path d="M272.65,100.47c-.33,0-.38-.18-.38-.29a3.26,3.26,0,0,0,0-.47c0-.23,0-.82,0-1V95.59h-.91c-.44,0-2.93,0-3.31.06a.71.71,0,0,1-.31-.53V95h.12c.41,0,3,.1,3.59.1h.84V93.19a7.89,7.89,0,0,0-.09-1.41l0-.12h.13c1.05,0,1.26.13,1.26.33s-.08.24-.42.34v.93h2.53c.47-.52.58-.52.64-.52s1.06.46,1.06.75c0,.11-.09.23-.35.23h-3.87V95.1h4a1.56,1.56,0,0,1,.47-.49l.12,0c.07,0,1.08.46,1.08.75a.3.3,0,0,1-.33.26h-5.33v.78c1.11.26,3.27,1,3.72,1.55a.71.71,0,0,1,.18.46.35.35,0,0,1-.34.38.72.72,0,0,1-.49-.25,9.71,9.71,0,0,0-3.07-1.66v1.94c0,.17,0,.68,0,.88s0,.27,0,.36v.12C273.22,100.34,273,100.47,272.65,100.47Z"/><path d="M287.32,100.49c-.12,0-.29-.11-.29-.24v0l.07-.09a5.35,5.35,0,0,0,2.25-2.38,4.84,4.84,0,0,0-.9-.57l-.13.48a1.13,1.13,0,0,1-.06.29c-.09.23-.4.24-.49.24-.39,0-.41-.24-.41-.28v0l0-.1a3.75,3.75,0,0,0,.17-.39,21.13,21.13,0,0,0,.75-3l-1.08.07a.62.62,0,0,1-.31-.5v-.11H287l.22,0c.35,0,.65.05,1.15.06a14.81,14.81,0,0,0,.16-1.88v-.39h.1c.71,0,1.09.08,1.09.34s-.18.26-.38.33c-.07.55-.14,1.08-.23,1.59h1c.12-.15.23-.26.35-.26.32.15.75.41.75.62s-.13.25-.39.32q0,.28-.07.54h0c.39,0,.77.06,1.22.07a29,29,0,0,0,.24-3v-.31l.13,0a4,4,0,0,1,.7.35l3.16,0a.7.7,0,0,1,.37-.26h0l.08,0s.65.25.65.55-.2.25-.38.29c0,.34,0,.88-.06,1.47l0,.82h0s.32-.49.49-.49,1,.46,1,.69-.12.27-.35.27H296.9c0,.65,0,1-.17,2.5h.11s.31-.47.52-.47.93.48.93.69-.09.24-.35.24h-1.25a3.38,3.38,0,0,1-.14.7,1.68,1.68,0,0,1-1.45,1.13c-.15,0-.32,0-.35-.18s-.06-.21-1.26-.59l-.07,0-.06-.15a.28.28,0,0,1,.23-.26l.92.22.39.1a1.3,1.3,0,0,0,.3,0c.49,0,.65-.54.72-1h-3.58l-.06.38c0,.15-.05.33-.06.38s-.33.21-.48.21c-.35,0-.38-.19-.38-.25a22.67,22.67,0,0,0,.59-3.68c-.31,0-.61,0-1,.06a.71.71,0,0,1-.26-.3,9.13,9.13,0,0,1-.56,2.2c.28.22.91.75.91,1.14s-.15.53-.38.53-.3-.14-.43-.41a3,3,0,0,0-.42-.65,5.49,5.49,0,0,1-2.51,2.26h0ZM296,98.14c.06-.63.11-1.47.15-2.5h-3.4c-.1.91-.21,1.77-.31,2.5Zm-7.42-1.43a5.16,5.16,0,0,1,1,.47,16.35,16.35,0,0,0,.51-2.85h-1C288.94,95.1,288.77,95.87,288.56,96.72Zm7.59-1.54s.07-1.79.09-2.44H293c-.07.78-.16,1.61-.24,2.44Zm-1.26,2.56c-.15,0-.28-.09-.42-.29a3.21,3.21,0,0,0-1.25-1.07l-.05,0,0-.12c0-.13.17-.24.3-.24a3.73,3.73,0,0,1,1.72,1,.61.61,0,0,1,.07.3C295.24,97.57,295.11,97.74,294.9,97.74Zm.18-2.87c-.14,0-.28-.1-.42-.3a3.18,3.18,0,0,0-1.25-1.06l-.05,0,0-.12c0-.13.17-.24.3-.24a3.73,3.73,0,0,1,1.72,1,.61.61,0,0,1,.07.3C295.42,94.73,295.24,94.87,295.08,94.87Z"/><path d="M309.49,100.5a.72.72,0,0,1-.29,0,.25.25,0,0,1-.18-.26c0-.1,0-.31,0-.48v-.13c0-.58,0-.82,0-1v-.29l0-.85a8,8,0,0,1-3,2.44.29.29,0,0,1-.3-.25.21.21,0,0,1,.11-.17,8.89,8.89,0,0,0,2.92-2.81h-1.53c0,.08,0,.17-.07.26s-.06.24-.07.3-.25.27-.45.27-.4-.09-.4-.26a.47.47,0,0,1,0-.15,8.87,8.87,0,0,0,.53-2.62v-.12l.12,0a2.46,2.46,0,0,1,.66.24h1.45v-1h-.06c-.19,0-2,0-2.43.07a.73.73,0,0,1-.3-.53v-.11h.11c.37,0,1.21.06,1.84.08a.56.56,0,0,1-.09-.15,3,3,0,0,0-.8-1.09l0,0,0-.09c0-.12.15-.2.29-.2h0l.09,0c.32.15,1.26.8,1.26,1.19a.48.48,0,0,1-.13.36h1a4,4,0,0,0,.64-1.52v-.1h.1s1.06.1,1.06.4c0,.11-.08.24-.48.27a5.67,5.67,0,0,1-.7.94h1.1s.23-.29.39-.29.76.29.76.57-.21.27-.4.32v.37c0,.32,0,.49,0,.58a3.25,3.25,0,0,0,0,.35,1.79,1.79,0,0,1,0,.18c0,.11,0,.33-.5.33-.3,0-.33-.17-.33-.24s0-.17,0-.24h-1.7v1.09H312a1,1,0,0,1,.27-.23h0l.07,0h0l.06,0c.49.24.59.44.59.57a.23.23,0,0,1-.13.2.66.66,0,0,1-.18.09,9,9,0,0,1-.18,1.55,1.36,1.36,0,0,1-1.25.89.29.29,0,0,1-.29-.15c-.09-.24-.32-.3-1-.44a.2.2,0,0,1-.15-.2.22.22,0,0,1,.22-.23,12.77,12.77,0,0,0,1.3.22c.3,0,.55-.13.56-1.77h-2.08v1.65c0,.11,0,.22,0,.35s0,.46,0,.88c0,.13,0,.63,0,.63C309.94,100.38,309.71,100.5,309.49,100.5Zm-.36-4.31V95.11h-1.51c0,.13,0,.27-.07.43s-.07.42-.11.65Zm2.47-1.57s0-1,0-1h-1.72v1Zm3.75,5.74a.28.28,0,0,1-.24-.1.5.5,0,0,0-.4-.27l-.84-.13a.22.22,0,0,1-.19-.23.23.23,0,0,1,.21-.23c.64.07,1.18.12,1.47.13s.4-.09.4-.27V93.09a7,7,0,0,0-.1-1.34l0-.13h.13c.86,0,1.21.13,1.21.35s-.2.26-.4.32v6.06c0,.07,0,.29,0,.5s0,.44,0,.51C316.62,99.9,315.84,100.36,315.35,100.36Zm-1.42-2c-.31,0-.38-.16-.38-.29l0-.48c0-.76.06-1.88.06-2.12V93.26a6.49,6.49,0,0,0-.09-1l0-.13h.13c1.13,0,1.13.27,1.13.36s-.19.23-.36.29v2.71c0,1,0,1.46,0,2,0,.09,0,.49,0,.61s-.26.29-.41.31Z"/><path d="M326,100.26a.31.31,0,0,1-.29-.28v-.07l.11-.1c2.25-1.12,4.15-2.39,4.41-6.64h-.48c-.72,0-2.7,0-3.28.09a.81.81,0,0,1-.34-.58v-.11h.11c.49,0,2.2.09,3.21.09h5.1s.27-.3.39-.3h0l.08,0a3.3,3.3,0,0,1,.72.4.38.38,0,0,1,.09.2.23.23,0,0,1-.12.19.78.78,0,0,1-.31.09l0,.43c0,4.86-.83,6-2.46,6.35l-.39.05h0c-.17,0-.31,0-.38-.14a.53.53,0,0,0-.34-.3c-.19-.06-.56-.16-.89-.25l-.41-.11-.06-.15c0-.11.1-.28.22-.28l.14,0a12.85,12.85,0,0,0,1.8.3,1.44,1.44,0,0,0,1.23-.74,11.75,11.75,0,0,0,.68-4.61v-.69h-3.36c-.28,4.68-2.67,6.06-5.09,7.08Z"/><path d="M346.58,100.53c-.31,0-.34-.2-.34-.28l0-.36c0-.55.08-1.1.08-1.66,0,0,0-.6,0-1.18V96a4.7,4.7,0,0,1-1.76,1.1c-.17,0-.26-.1-.26-.21a.21.21,0,0,1,.11-.18c1.44-.95,2.92-2.54,3-3.27l0-.11.11,0a3.36,3.36,0,0,1,1,.37.64.64,0,0,1,0-.14v-.12h.12c.43,0,1.66.09,2.23.09h3c.45-.47.5-.49.56-.49s1,.45,1,.73-.14.24-.33.24h-3v2.17h1.31c.47-.49.47-.49.56-.49s1,.5,1,.73-.14.25-.33.25h-2.57v2.61h1.93c.47-.56.57-.56.6-.56s1.12.51,1.12.79a.3.3,0,0,1-.33.26h-5.32c-.41,0-1.8,0-2.19.06h0l0,0a.8.8,0,0,1-.26-.51v-.12h.12c.44,0,2.16.09,2.72.09h.84V96.75h-.68c-.42,0-1.32,0-1.71,0a.71.71,0,0,1-.33-.52v-.12h.12c.43,0,1.66.09,2.23.09h.37V94.08h-.76c-.46,0-1.33,0-1.71.06a.6.6,0,0,1-.14-.11c0,.21-.44.21-.58.21-.19.2-.57.63-1.06,1.12.33.07.46.12.46.27s-.14.26-.4.31v2.3c0,.73,0,1,0,1.61v.36C347.16,100.28,347.12,100.53,346.58,100.53Zm-1.76-6a.23.23,0,0,1-.26-.22.23.23,0,0,1,.12-.19,6.2,6.2,0,0,0,2.61-2.57l0-.1.1,0c.11,0,1,.28,1,.57,0,.1-.1.26-.46.26A9.62,9.62,0,0,1,344.82,94.57Zm7.36-1a.58.58,0,0,1-.44-.28A4.27,4.27,0,0,0,350.13,92l-.06,0,0-.11a.27.27,0,0,1,.28-.23c.27,0,2,.73,2.21,1.25a.5.5,0,0,1,0,.2C352.55,93.37,352.39,93.58,352.19,93.58Z"/><path d="M368.4,100.45a.26.26,0,0,1-.24-.14.42.42,0,0,0-.37-.3c-1-.12-1-.13-1-.33a.24.24,0,0,1,.22-.25c.57.06,1.25.12,1.44.12s.56,0,.56-.43V98.6h-.87c-.44,0-2.14,0-2.53.06a.7.7,0,0,1-.33-.49V98h.12c.4,0,2.85.08,2.94.08H369v-.68h-1c-.45,0-3.29,0-3.84.08a.76.76,0,0,1-.31-.55v-.11h.11c.6.06,3.55.1,4.34.1h.7v-.6h-.76c-.53,0-2.17,0-2.54,0a.69.69,0,0,1-.31-.49v-.12h.12c.4,0,2.77.09,2.94.09H369v-.63h-2.43v.13c0,.11-.09.33-.44.33s-.39-.12-.39-.3l0-.22c0-.12,0-.39,0-.5v-.56a2.5,2.5,0,0,0-.07-.68l0-.16.16,0a3.72,3.72,0,0,1,.84.32H369v-.52h-1.23c-.51,0-2.88,0-3.42.08a.72.72,0,0,1-.31-.53v-.11h.11c.59.06,3.07.1,3.92.1H369a5.1,5.1,0,0,0-.08-1l0-.13H369c.84,0,1.14.09,1.14.33a.26.26,0,0,1-.12.2,1,1,0,0,1-.25.11v.45h3.47c.39-.46.5-.54.59-.54s1.1.5,1.1.74-.13.27-.36.27h-4.79v.52h2.5c.22-.28.3-.28.32-.28s.71.28.71.5-.16.22-.3.27v.55c0,.09,0,.19,0,.27s0,.11,0,.13a1,1,0,0,1,0,.19c0,.18-.17.3-.44.3s-.36-.14-.36-.26v-.07h-2.47v.63h2.68c.16-.18.27-.28.37-.28h0l.06,0h0s.69.23.69.52-.24.27-.38.3V97h.26s.35-.49.51-.49,1,.44,1,.7-.11.26-.35.26H373.2v.25c0,.22,0,.46,0,.64v.38c0,.08,0,.31-.53.31-.19,0-.32-.09-.32-.24V98.6h-2.65c0,.24,0,.46,0,.6C369.79,100,368.8,100.45,368.4,100.45Zm4-2.31v-.69h-2.67v.16c0,.14,0,.32,0,.52Zm0-1.16v-.6h-2.67V97Zm-.18-2.19v-.63h-2.49v.63Zm-3.27,0v-.63h-2.44v.63Z"/><line class="b" x1="77.17" y1="86.94" x2="435.83" y2="86.94"/><g class="c"><path class="d" d="M120,43l.44-.07.33-.1a1,1,0,0,0,.26-.14,1.31,1.31,0,0,0,.21-.23,2,2,0,0,0,.21-.33l.22-.47q.47-1.09,1.26-3.17T124,35.63a4.87,4.87,0,0,0,.25-.84h1q.18.6.24.76.37,1.05,1.19,3.29t1.15,3l.19.42a1.67,1.67,0,0,0,.18.29,1.06,1.06,0,0,0,.18.2,1,1,0,0,0,.24.12,1.62,1.62,0,0,0,.32.09l.44.07s0,.09,0,.22a.43.43,0,0,1-.05.23q-1.09,0-1.75,0-1,0-1.9,0a.46.46,0,0,1,0-.23c0-.12,0-.2,0-.22l.22,0,.21,0,.17,0,.16,0a.27.27,0,0,0,.17-.36q-.12-.41-.36-1.1t-.45-1.19a.12.12,0,0,0-.06-.07l-.07,0H123.2a.14.14,0,0,0-.09,0l-.06.08a12.17,12.17,0,0,0-.71,2.17.82.82,0,0,0,0,.17.33.33,0,0,0,.05.13.31.31,0,0,0,.14.11l.25.08.69.13s0,.09,0,.22a.43.43,0,0,1-.06.23l-.71,0-1.13,0-1,0-.56,0a.63.63,0,0,1,0-.45Zm4.43-6.71h0l0,0-.49,1.39q-.4,1.15-.55,1.58c0,.05,0,.08.05.1h2s0,0,.06,0a.08.08,0,0,0,0-.08Q124.68,36.83,124.47,36.32Z"/><path class="d" d="M149.18,35.2s-.05-.11,0-.22a.39.39,0,0,1,0-.21l.73,0,1.06,0h3.36a8.54,8.54,0,0,0,1.37-.07s0,0,0,0a.13.13,0,0,1,0,.06,6.07,6.07,0,0,0-.12.83q-.06.58-.08,1.17s-.11.06-.25.07-.23,0-.26,0a5.58,5.58,0,0,0-.2-.94.77.77,0,0,0-.23-.36.68.68,0,0,0-.4-.12l-1.25,0q-.84,0-1.14,0a.18.18,0,0,0-.12.1.32.32,0,0,0-.05.15q0,1.76,0,3.11a.07.07,0,0,0,0,0l0,0q1.83,0,2.29,0a.52.52,0,0,0,.33-.14.84.84,0,0,0,.18-.33q.1-.31.17-.6a.71.71,0,0,1,.27,0,.58.58,0,0,1,.26,0q-.09,1.09-.09,1.44,0,.53,0,1.4a.54.54,0,0,1-.24,0,.72.72,0,0,1-.26,0q-.06-.28-.17-.63a.79.79,0,0,0-.19-.34.48.48,0,0,0-.31-.12q-.56,0-2.29,0l0,0,0,0q0,2,0,2.55a1,1,0,0,0,.11.5.61.61,0,0,0,.4.21,8.38,8.38,0,0,0,1,.15s0,.1,0,.22,0,.2-.06.22l-.84,0-1.33,0-1.08,0-.77,0s0-.09,0-.22,0-.2,0-.23q.48-.06.77-.13a.69.69,0,0,0,.39-.22,1,1,0,0,0,.1-.5q0-.5,0-3.16t0-3a1.25,1.25,0,0,0-.09-.48.49.49,0,0,0-.3-.21Q149.48,35.23,149.18,35.2Z"/><path class="d" d="M165.11,35.2s0-.09,0-.22,0-.2.06-.22l.76,0,1.06,0,1,0,.74,0s.05.09.05.21a.36.36,0,0,1,0,.22l-.7.14a.54.54,0,0,0-.33.22,1,1,0,0,0-.09.49q0,1.94,0,3.92a3.85,3.85,0,0,0,.23,1.3,1.77,1.77,0,0,0,.27.6,2.07,2.07,0,0,0,.49.49,2.34,2.34,0,0,0,.74.34,3.54,3.54,0,0,0,1,.12l.48,0a2.88,2.88,0,0,0,.46-.09,1.76,1.76,0,0,0,.44-.18,1.87,1.87,0,0,0,.69-.76,3,3,0,0,0,.22-.64,4.89,4.89,0,0,0,.12-.84,35.5,35.5,0,0,0,0-4,1.42,1.42,0,0,0-.14-.7.74.74,0,0,0-.49-.27l-.76-.11a.4.4,0,0,1,0-.23c0-.12,0-.19,0-.21l.67,0,1.08,0,.93,0,.63,0s0,.1,0,.22,0,.2,0,.22l-.62.14a.57.57,0,0,0-.39.3,2,2,0,0,0-.11.72q0,.64,0,1.45t0,1.2q0,.39,0,.85t-.07.77a5.45,5.45,0,0,1-.12.6,3.29,3.29,0,0,1-.38,1,2.75,2.75,0,0,1-.59.7,3,3,0,0,1-.74.45,3.84,3.84,0,0,1-.84.25,5.13,5.13,0,0,1-.88.07,5.48,5.48,0,0,1-1.2-.12,3.33,3.33,0,0,1-.92-.34A2.45,2.45,0,0,1,166.56,42a3.38,3.38,0,0,1-.21-.84q-.06-.53-.08-2.81t0-2.32a1,1,0,0,0-.1-.44.51.51,0,0,0-.29-.23A7,7,0,0,0,165.11,35.2Z"/><path class="d" d="M183.39,35.21s0-.1,0-.22,0-.2.06-.22l.77,0,1.08,0h.63a1.4,1.4,0,0,0,.14.27c.06.1.19.26.36.49q.94,1.19,2.58,3.19t2.32,2.8s0,0,0,0q0-.41,0-1.46t0-1.62q0-.56,0-1.25t0-1.06a1,1,0,0,0-.13-.5.7.7,0,0,0-.42-.24,8.85,8.85,0,0,0-1-.18s0-.1,0-.22,0-.19,0-.21l.76,0,1.18,0,.87,0,.65,0s.05.1.05.22,0,.19-.05.22l-.63.15a.63.63,0,0,0-.37.26,1.19,1.19,0,0,0-.12.49q0,.31,0,.68t0,.91q0,.55,0,1T192,40q0,.91,0,1.54,0,1,0,1.93l-.5,0-.5,0q-.74-1.06-5.38-6.86l0,0h0q0,4.42,0,5.42a1.07,1.07,0,0,0,.15.56.68.68,0,0,0,.42.25l.18,0,.19,0,.25,0,.25,0a.37.37,0,0,1,0,.23.4.4,0,0,1-.05.22l-.73,0-1.07,0-1.09,0-.66,0s0-.1,0-.22,0-.2,0-.22a4.18,4.18,0,0,0,.77-.15.73.73,0,0,0,.39-.25,1,1,0,0,0,.16-.53q.06-1.09.13-5.9a.7.7,0,0,0-.41-.7,1.78,1.78,0,0,0-.45-.18A4.69,4.69,0,0,0,183.39,35.21Z"/><path class="d" d="M210,37.06a5.46,5.46,0,0,0-.18-.88,1.26,1.26,0,0,0-.25-.47,1.37,1.37,0,0,0-.44-.3,3.91,3.91,0,0,0-1.72-.31,3.19,3.19,0,0,0-1.34.27,2.62,2.62,0,0,0-1,.77,3.54,3.54,0,0,0-.6,1.21,5.61,5.61,0,0,0-.21,1.58,5.31,5.31,0,0,0,.1,1,4.73,4.73,0,0,0,.3,1,3.51,3.51,0,0,0,1.23,1.5,3.16,3.16,0,0,0,.93.43,4.08,4.08,0,0,0,1.14.15,2.9,2.9,0,0,0,.87-.12,1.91,1.91,0,0,0,.64-.32,5.56,5.56,0,0,0,1.08-1.4.39.39,0,0,1,.21.07.37.37,0,0,1,.18.16,4.55,4.55,0,0,1-.47,1.1,2.5,2.5,0,0,1-.6.81,5.85,5.85,0,0,1-1,.25,6.62,6.62,0,0,1-1.21.11,5.89,5.89,0,0,1-2.66-.55,3.76,3.76,0,0,1-1.67-1.59,5.11,5.11,0,0,1-.57-2.48,4.75,4.75,0,0,1,.23-1.49,4.19,4.19,0,0,1,.75-1.34,4.09,4.09,0,0,1,1.26-1,5.83,5.83,0,0,1,2.84-.65,10.08,10.08,0,0,1,1.09.06l1,.13.7.09q-.07.43-.14,1.09t-.08,1.1a.23.23,0,0,1-.14.07.81.81,0,0,1-.22,0C210,37.1,210,37.09,210,37.06Z"/><path class="d" d="M226.27,43a.36.36,0,0,1,0,.23c0,.12,0,.19-.07.21q-1.22,0-2.18,0t-2.16,0a.41.41,0,0,1,0-.23.36.36,0,0,1,0-.22q.81-.1,1-.15a.54.54,0,0,0,.42-.28,2.05,2.05,0,0,0,.13-.75q0-1.23,0-6.3a.13.13,0,0,0,0-.08.07.07,0,0,0-.06,0h-1.76a.67.67,0,0,0-.59.39,6.43,6.43,0,0,0-.56,1.33.47.47,0,0,1-.27,0q-.22-.05-.23-.1.09-.46.17-1.19t.11-1.19s0,0,.08,0,.09,0,.1,0a2.5,2.5,0,0,0,1.15.21h5.18a6,6,0,0,0,.82,0,2,2,0,0,0,.58-.18l.09,0a.15.15,0,0,1,.06.05,17.56,17.56,0,0,0-.32,2.45s-.1.05-.25.05-.23,0-.25-.05a5,5,0,0,0-.23-1.27.76.76,0,0,0-.22-.3.58.58,0,0,0-.32-.1h-1.93a.09.09,0,0,0,0,0,.14.14,0,0,0,0,.07q0,5.91,0,6.62a1.07,1.07,0,0,0,.13.47.55.55,0,0,0,.34.22A8.67,8.67,0,0,0,226.27,43Z"/><path class="d" d="M241.85,43.68a4.74,4.74,0,0,1-1.81-.33,3.87,3.87,0,0,1-1.38-.94A4.77,4.77,0,0,1,237.44,39a4.35,4.35,0,0,1,.9-2.72A4.14,4.14,0,0,1,240,35a5,5,0,0,1,2.15-.49,4.87,4.87,0,0,1,1.54.24,3.82,3.82,0,0,1,1.21.64,4,4,0,0,1,.86,1,4.22,4.22,0,0,1,.53,1.19,5.13,5.13,0,0,1,.17,1.33,5.61,5.61,0,0,1-.21,1.62,4.42,4.42,0,0,1-2.28,2.66A4.7,4.7,0,0,1,241.85,43.68Zm.53-.67a2.7,2.7,0,0,0,.82-.12,1.78,1.78,0,0,0,.65-.35A3.73,3.73,0,0,0,245,39.43a5.67,5.67,0,0,0-.41-2.18,3.39,3.39,0,0,0-1.2-1.54,3.11,3.11,0,0,0-1.82-.55,2.49,2.49,0,0,0-1.23.31,2.62,2.62,0,0,0-1.11,1.28,4.9,4.9,0,0,0-.38,2,5.89,5.89,0,0,0,.19,1.49,4.63,4.63,0,0,0,.59,1.35,3.34,3.34,0,0,0,1,1A3.17,3.17,0,0,0,242.38,43Z"/><path class="d" d="M256,35.2a.38.38,0,0,1,0-.23c0-.12,0-.19.07-.2l.78,0,.87,0h2.37a3.38,3.38,0,0,1,.9.11,2.46,2.46,0,0,1,.71.31,2.19,2.19,0,0,1,.51.47,1.92,1.92,0,0,1,.32.59,2.17,2.17,0,0,1,.1.68,2.41,2.41,0,0,1-.12.79,2,2,0,0,1-.35.64,2.72,2.72,0,0,1-.5.47,3.32,3.32,0,0,1-.61.35.11.11,0,0,0,0,.06.08.08,0,0,0,0,.06q.4.64,1.09,1.55a14.82,14.82,0,0,0,1.17,1.4l.25.25a1.65,1.65,0,0,0,.23.18l.21.12.25.09.3.07.39.06s0,.11,0,.23,0,.2-.09.21a9.83,9.83,0,0,1-1.28,0,3,3,0,0,1-1-.23,2.37,2.37,0,0,1-.69-.59q-.24-.28-.57-.77t-.74-1.1l-.57-.86a.42.42,0,0,0-.35-.2h-1l0,0,0,0q0,1.61,0,2.48a1,1,0,0,0,.13.46.55.55,0,0,0,.35.18l.81.14s0,.09,0,.22,0,.2-.07.23l-.69,0-1.23,0-1.15,0-.67,0a.31.31,0,0,1-.06-.23c0-.12,0-.19.05-.22l.73-.11a.58.58,0,0,0,.36-.22,1.16,1.16,0,0,0,.12-.55q0-.25,0-1.32t0-1.63q0-2.81,0-3.21a.85.85,0,0,0-.1-.45.58.58,0,0,0-.36-.2A6.19,6.19,0,0,0,256,35.2Zm3.13.1a1.17,1.17,0,0,0-.5.09.23.23,0,0,0-.06.08.28.28,0,0,0,0,.11q0,.49,0,3.43a.08.08,0,0,0,0,.06l0,0a5.8,5.8,0,0,0,1.85-.14,1.44,1.44,0,0,0,.63-.57,1.83,1.83,0,0,0,.25-1,2.12,2.12,0,0,0-.53-1.55A2.2,2.2,0,0,0,259.16,35.29Z"/><path class="d" d="M284.39,35.2s-.05-.11,0-.22a.39.39,0,0,1,0-.21l.73,0,1.06,0h3.36a8.54,8.54,0,0,0,1.37-.07s0,0,0,0a.13.13,0,0,1,0,.06,6.07,6.07,0,0,0-.12.83q-.06.58-.08,1.17s-.11.06-.25.07-.23,0-.26,0a5.58,5.58,0,0,0-.2-.94.77.77,0,0,0-.23-.36.68.68,0,0,0-.4-.12l-1.25,0q-.84,0-1.14,0a.18.18,0,0,0-.12.1.32.32,0,0,0-.05.15q0,1.76,0,3.11a.07.07,0,0,0,0,0l0,0q1.83,0,2.29,0a.52.52,0,0,0,.33-.14.84.84,0,0,0,.18-.33q.1-.31.17-.6a.71.71,0,0,1,.27,0,.58.58,0,0,1,.26,0q-.09,1.09-.09,1.44,0,.53,0,1.4a.54.54,0,0,1-.24,0,.72.72,0,0,1-.26,0q-.06-.28-.17-.63a.79.79,0,0,0-.19-.34.48.48,0,0,0-.31-.12q-.56,0-2.29,0l0,0,0,0q0,2,0,2.55a1,1,0,0,0,.11.5.61.61,0,0,0,.4.21,8.38,8.38,0,0,0,1,.15s0,.1,0,.22,0,.2-.06.22l-.84,0-1.33,0-1.08,0-.77,0s0-.09,0-.22,0-.2,0-.23q.48-.06.77-.13a.69.69,0,0,0,.39-.22,1,1,0,0,0,.1-.5q0-.5,0-3.16t0-3a1.25,1.25,0,0,0-.09-.48.49.49,0,0,0-.3-.21Q284.69,35.23,284.39,35.2Z"/><path class="d" d="M299.67,43l.44-.07.33-.1a1,1,0,0,0,.27-.14,1.43,1.43,0,0,0,.21-.23,1.89,1.89,0,0,0,.2-.33q.09-.18.21-.47.47-1.09,1.26-3.17t1.07-2.89a4.05,4.05,0,0,0,.25-.84h1q.07.29.24.77.36,1,1.18,3.26t1.15,3l.19.42a1.67,1.67,0,0,0,.18.29,1.06,1.06,0,0,0,.18.2,1,1,0,0,0,.24.12,1.62,1.62,0,0,0,.32.09L309,43s0,.1,0,.22a.41.41,0,0,1-.06.23q-1.09,0-1.75,0-1,0-1.9,0a.37.37,0,0,1,0-.23c0-.12,0-.2,0-.22a6.37,6.37,0,0,0,.78-.15.27.27,0,0,0,.15-.36q-.13-.46-.93-2.72t-1.24-3.46H304q-1.39,3.86-2,5.74a.76.76,0,0,0,0,.55.6.6,0,0,0,.42.26,5.92,5.92,0,0,0,.7.13s0,.09,0,.22,0,.2-.06.23l-.72,0-1.13,0-1,0-.56,0a.37.37,0,0,1,0-.23C299.63,43.12,299.64,43,299.67,43Z"/><path class="d" d="M317.37,35.21s0-.1,0-.22,0-.2.06-.22l.77,0,1.08,0h.63a1.4,1.4,0,0,0,.14.27c.06.1.19.26.36.49q.94,1.19,2.58,3.19t2.32,2.8s0,0,0,0q0-.41,0-1.46t0-1.62q0-.56,0-1.25t0-1.06a1,1,0,0,0-.13-.5.7.7,0,0,0-.42-.24,8.85,8.85,0,0,0-1-.18s0-.1,0-.22,0-.19,0-.21l.76,0,1.18,0,.87,0,.65,0s.05.1.05.22,0,.19-.05.22l-.63.15a.63.63,0,0,0-.37.26,1.19,1.19,0,0,0-.12.49q0,.31,0,.68t0,.91q0,.55,0,1T326,40q0,.91,0,1.54,0,1,0,1.93l-.5,0-.5,0q-.74-1.06-5.38-6.86l0,0h0q0,4.42,0,5.42a1.07,1.07,0,0,0,.15.56.68.68,0,0,0,.42.25l.18,0,.19,0,.25,0,.25,0a.37.37,0,0,1,0,.23.4.4,0,0,1-.05.22l-.73,0-1.07,0-1.09,0-.66,0s0-.1,0-.22,0-.2,0-.22a4.18,4.18,0,0,0,.77-.15.73.73,0,0,0,.39-.25,1,1,0,0,0,.16-.53q.06-1.09.13-5.9a.7.7,0,0,0-.41-.7,1.78,1.78,0,0,0-.45-.18A4.69,4.69,0,0,0,317.37,35.21Z"/><path class="d" d="M342.62,43a.36.36,0,0,1,0,.23c0,.12,0,.19-.07.21q-1.22,0-2.18,0t-2.16,0a.41.41,0,0,1,0-.23.36.36,0,0,1,0-.22q.81-.1,1-.15a.54.54,0,0,0,.42-.28,2.05,2.05,0,0,0,.13-.75q0-1.23,0-6.3a.13.13,0,0,0,0-.08.07.07,0,0,0-.06,0H338a.67.67,0,0,0-.59.39,6.43,6.43,0,0,0-.56,1.33.47.47,0,0,1-.27,0q-.22-.05-.23-.1.09-.46.17-1.19t.11-1.19s0,0,.08,0,.09,0,.1,0a2.5,2.5,0,0,0,1.15.21h5.18a6,6,0,0,0,.82,0,2,2,0,0,0,.58-.18l.09,0a.15.15,0,0,1,.06.05,17.56,17.56,0,0,0-.32,2.45s-.1.05-.25.05-.23,0-.25-.05a5,5,0,0,0-.23-1.27.76.76,0,0,0-.22-.3.58.58,0,0,0-.32-.1h-1.93a.09.09,0,0,0,0,0,.14.14,0,0,0,0,.07q0,5.91,0,6.62a1.07,1.07,0,0,0,.13.47.55.55,0,0,0,.34.22A8.67,8.67,0,0,0,342.62,43Z"/><path class="d" d="M352.14,43l.44-.07.33-.1a1,1,0,0,0,.26-.14,1.31,1.31,0,0,0,.21-.23,2,2,0,0,0,.21-.33l.22-.47q.47-1.09,1.26-3.17t1.07-2.89a4.87,4.87,0,0,0,.25-.84h1q.18.6.24.76.37,1.05,1.19,3.29t1.15,3l.19.42a1.67,1.67,0,0,0,.18.29,1.06,1.06,0,0,0,.18.2,1,1,0,0,0,.24.12A1.62,1.62,0,0,0,361,43l.44.07s0,.09,0,.22a.43.43,0,0,1-.05.23q-1.09,0-1.75,0-1,0-1.9,0a.46.46,0,0,1,0-.23c0-.12,0-.2,0-.22l.22,0,.21,0,.17,0,.16,0a.27.27,0,0,0,.17-.36q-.12-.41-.36-1.1t-.45-1.19a.12.12,0,0,0-.06-.07l-.07,0h-2.51a.14.14,0,0,0-.09,0l-.06.08a12.17,12.17,0,0,0-.71,2.17.82.82,0,0,0,0,.17.33.33,0,0,0,.05.13.31.31,0,0,0,.14.11l.25.08.69.13s0,.09,0,.22a.43.43,0,0,1-.06.23l-.71,0-1.13,0-1,0-.56,0a.63.63,0,0,1,0-.45Zm4.43-6.71h0l0,0L356,37.72q-.4,1.15-.55,1.58c0,.05,0,.08.05.1h2s0,0,.06,0a.08.08,0,0,0,0-.08Q356.77,36.83,356.57,36.32Z"/><path class="d" d="M371,41a6,6,0,0,0,.45,1.11,1.93,1.93,0,0,0,.59.66,2.2,2.2,0,0,0,1.37.39,1.7,1.7,0,0,0,.52-.08,1.61,1.61,0,0,0,.47-.25,1.18,1.18,0,0,0,.36-.46,1.59,1.59,0,0,0,.13-.67,1.78,1.78,0,0,0,0-.41,1.2,1.2,0,0,0-.15-.36,2,2,0,0,0-.24-.31,2.57,2.57,0,0,0-.36-.31l-.46-.31-.59-.34q-.42-.24-.71-.44a5.14,5.14,0,0,1-.58-.45,2.7,2.7,0,0,1-.45-.51,2.25,2.25,0,0,1-.27-.58,2.37,2.37,0,0,1-.1-.7,2.28,2.28,0,0,1,.22-1,2.11,2.11,0,0,1,.6-.75,2.79,2.79,0,0,1,.88-.46,3.53,3.53,0,0,1,1.09-.16,7.2,7.2,0,0,1,.84,0l.77.11.58.08a16.49,16.49,0,0,0-.24,2s-.1.05-.22.05-.2,0-.22,0a4.27,4.27,0,0,0-.18-1,1,1,0,0,0-.36-.5,2,2,0,0,0-1.15-.3,1.52,1.52,0,0,0-.63.13,1.25,1.25,0,0,0-.45.33,1.53,1.53,0,0,0-.27.45,1.42,1.42,0,0,0-.09.51,1.75,1.75,0,0,0,.12.67,1.47,1.47,0,0,0,.31.48A3.1,3.1,0,0,0,373,38a10.54,10.54,0,0,0,1,.55q.64.33.83.45a4.37,4.37,0,0,1,.52.38,2.87,2.87,0,0,1,.42.44,1.81,1.81,0,0,1,.29.57,2.29,2.29,0,0,1,.1.69,2.35,2.35,0,0,1-.21,1,2.59,2.59,0,0,1-.6.83,2.83,2.83,0,0,1-1,.58,4,4,0,0,1-1.34.22,4.78,4.78,0,0,1-1.14-.14,5.1,5.1,0,0,1-.9-.29,3.71,3.71,0,0,1-.24-.92q-.15-.8-.18-1.22,0-.08.22-.13A.4.4,0,0,1,371,41Z"/><path class="d" d="M385.18,35.2s0-.1,0-.22,0-.19.06-.22l.77,0,1,0,.91,0,.72,0s.05.09.06.21,0,.19,0,.22l-.52.11q-.25.08-.1.37.28.6.9,1.8t.84,1.55h.1q.38-.6,1-1.67t.77-1.51a.82.82,0,0,0,.06-.18.32.32,0,0,0,0-.15.21.21,0,0,0-.1-.12.65.65,0,0,0-.22-.07l-.69-.12a.37.37,0,0,1,0-.23c0-.12,0-.19.07-.2l1.58,0h.57l.53,0,.41,0s.06.08.07.21,0,.21,0,.23l-.26,0-.35.07a1.11,1.11,0,0,0-.51.25,3.57,3.57,0,0,0-.5.65q-.43.66-1,1.75t-.9,1.62a1.2,1.2,0,0,0-.09.25,1.06,1.06,0,0,0,0,.24q0,.46,0,1.89a1.91,1.91,0,0,0,.1.67.47.47,0,0,0,.35.25q.18,0,.91.13a.4.4,0,0,1,0,.23c0,.13,0,.2-.06.22l-.81,0-1.18,0-1.3,0-.8,0s0-.1,0-.22,0-.2,0-.22a9.11,9.11,0,0,0,1-.14.58.58,0,0,0,.38-.24,1.12,1.12,0,0,0,.11-.52q0-.69,0-1.74a2.21,2.21,0,0,0,0-.35,1.56,1.56,0,0,0-.08-.32q-.38-.86-1.69-3.22-.21-.38-.33-.57a1.73,1.73,0,0,0-.26-.32.88.88,0,0,0-.26-.18l-.33-.1-.15,0-.13,0-.19,0Z"/><path class="d" d="M85.89,52q-.11-.11-.06-.57t.15-.53l2.29.07q1.86.07,3.62.07,2.82,0,5.71-.14.14.11.14.55t-.14.55q-1.24.16-2.25.39a2,2,0,0,0-.57.22,1.57,1.57,0,0,0-.36.29,1.07,1.07,0,0,0-.21.43,4.15,4.15,0,0,0-.11.49q0,.21-.06.64,0,.67,0,2.29t0,4.07q0,2.45,0,4.15,0,10,.14,12.14a1.76,1.76,0,0,0,.3.94,1.1,1.1,0,0,0,.56.46,14.17,14.17,0,0,0,3.64.37q2.9.08,4.33,0a3.2,3.2,0,0,0,1.45-.39,4.7,4.7,0,0,0,1.33-1.25,21.18,21.18,0,0,0,1.44-2.27A28.35,28.35,0,0,0,108.59,72a1,1,0,0,1,.6.07q.43.14.5.32a41,41,0,0,1-1.07,4.15A18.37,18.37,0,0,1,107.29,80q-.32.57-2,.57-1.5,0-6.9-.09t-6.53-.09q-1.24,0-3.64.07l-2.79.07a1.49,1.49,0,0,1,0-1.1q2.24-.25,2.87-.39a2,2,0,0,0,1.1-.66,2.75,2.75,0,0,0,.39-1.4q.2-2.77.2-12.67,0-7.92,0-9.12a5.87,5.87,0,0,0-.35-2.13,1.76,1.76,0,0,0-1.29-.75Q87.74,52.21,85.89,52Z"/><path class="d" d="M129.43,76l.19.2a2.06,2.06,0,0,1,0,.63,1.5,1.5,0,0,1-.15.52A11.26,11.26,0,0,1,125.75,80a9.48,9.48,0,0,1-3.92,1,7.52,7.52,0,0,1-5.75-2.3,8.64,8.64,0,0,1-2-3.37,13.43,13.43,0,0,1-.63-4.11,11.22,11.22,0,0,1,1.11-5.14,8.77,8.77,0,0,1,3.06-3.46,9.36,9.36,0,0,1,2.49-1.1,9.22,9.22,0,0,1,2.55-.43,6.46,6.46,0,0,1,1.79.24A5.47,5.47,0,0,1,126,62a6,6,0,0,1,1.15,1,7,7,0,0,1,.88,1.16,8.94,8.94,0,0,1,.63,1.27,10.43,10.43,0,0,1,.42,1.27q.15.59.25,1.18.11.3.68.43a1,1,0,0,1-.08.47.88.88,0,0,1-.22.43,28.14,28.14,0,0,1-5,.66q-3.65.27-7.47.41-.13,0-.21.16a.85.85,0,0,0-.08.36,8.62,8.62,0,0,0,.54,2.72,7.13,7.13,0,0,0,1.32,2.31A6.66,6.66,0,0,0,124,78a8.39,8.39,0,0,0,2.8-.46A8.1,8.1,0,0,0,129.43,76Zm-8.21-13.39a3.45,3.45,0,0,0-2.84,1.54A7.69,7.69,0,0,0,117,68.34a.46.46,0,0,0,.06.22q.06.11.13.11,1.28,0,4.35-.06a28.09,28.09,0,0,0,3.76-.27.43.43,0,0,0,.29-.39,8.62,8.62,0,0,0-.45-1.87,7.68,7.68,0,0,0-.86-1.71A4.17,4.17,0,0,0,123,63.1,3.4,3.4,0,0,0,121.21,62.62Z"/><path class="d" d="M142.43,61.08a12,12,0,0,1,4.08.87,7.63,7.63,0,0,0,2.73.48,5.59,5.59,0,0,0,1.83-.22,3.16,3.16,0,0,0,1.1-.74s.14,0,.28,0,.21.14.21.2a4,4,0,0,1-.39,1.3,4.17,4.17,0,0,1-.76,1.29,1.6,1.6,0,0,1-.62.33,3.91,3.91,0,0,1-1,.1h-1.16a.1.1,0,0,0-.1.08q0,.08,0,.11a8.08,8.08,0,0,1,.48,2.73,9.37,9.37,0,0,1-.38,2.78,6.41,6.41,0,0,1-1,2,8,8,0,0,1-1.44,1.44,9.92,9.92,0,0,1-5.19,2,2.36,2.36,0,0,1-.39,0l-.42,0a1.83,1.83,0,0,0-.88.4,1,1,0,0,0-.47.84,1.18,1.18,0,0,0,.56,1,2.87,2.87,0,0,0,1.32.46q.56.07,2.41.22t3.3.33a11.86,11.86,0,0,1,2.15.41,6,6,0,0,1,1.29.63,5.11,5.11,0,0,1,1.08.95,4.08,4.08,0,0,1,.77,1.38,5.59,5.59,0,0,1,.28,1.8,7.52,7.52,0,0,1-1.56,4.54A12.11,12.11,0,0,1,141,93.67,8.76,8.76,0,0,1,135.51,92,6.11,6.11,0,0,1,133.73,90a5.26,5.26,0,0,1-.62-2.43,5.91,5.91,0,0,1,.11-1,2.46,2.46,0,0,1,.23-.8,12.55,12.55,0,0,1,1.75-1.59q1.32-1.05,2.95-2.2,0-.14,0-.14a5,5,0,0,1-2.2-1.35,3.14,3.14,0,0,1-.92-1.77,4.05,4.05,0,0,1,.14-.73l.69-.41,1-.6.86-.54q.49-.32.73-.5s.06-.07,0-.14,0-.11-.09-.11a6.66,6.66,0,0,1-3.21-2.46,7.54,7.54,0,0,1-1.21-4.44,7.37,7.37,0,0,1,.68-3.09,6.76,6.76,0,0,1,2-2.53,10.54,10.54,0,0,1,2.84-1.47A8.33,8.33,0,0,1,142.43,61.08ZM143,91.47a8.74,8.74,0,0,0,2.82-.42,4.77,4.77,0,0,0,1.91-1.12,4.69,4.69,0,0,0,1-1.55,4.86,4.86,0,0,0,.33-1.8,3.55,3.55,0,0,0-2.4-3.55,12.11,12.11,0,0,0-2.78-.6,27,27,0,0,0-3.18-.21,2.93,2.93,0,0,0-1.68.48q-2.68,1.71-2.68,3.79A4.26,4.26,0,0,0,138,89.89,7.6,7.6,0,0,0,143,91.47Zm-2.11-28.85A2.89,2.89,0,0,0,138.35,64a6.41,6.41,0,0,0-.92,3.6,9.74,9.74,0,0,0,.3,2.44,7.75,7.75,0,0,0,.87,2.1,4.34,4.34,0,0,0,1.49,1.49,4,4,0,0,0,2.09.56,2.86,2.86,0,0,0,2.21-.87q1.29-1.22,1.29-4.32a10.93,10.93,0,0,0-.15-1.81,7.92,7.92,0,0,0-.5-1.72,5.42,5.42,0,0,0-.88-1.47,3.9,3.9,0,0,0-1.37-1A4.52,4.52,0,0,0,140.89,62.62Z"/><path class="d" d="M164.31,79.47a1,1,0,0,1,0,.55,1.1,1.1,0,0,1-.16.55l-2-.07q-1.61-.07-2.74-.07t-2.77.07l-1.84.07a1.49,1.49,0,0,1,0-1.1,8.2,8.2,0,0,0,2-.43,1.09,1.09,0,0,0,.61-.55,4,4,0,0,0,.25-1.27q.11-1.35.11-7.3,0-1.07,0-2.61t0-1.85a1.48,1.48,0,0,0-.33-1l-.2-.18-.19-.15a1.53,1.53,0,0,0-.25-.14l-.24-.11-.29-.11-.28-.1-.33-.11-.33-.1a1,1,0,0,1,0-.52,1.45,1.45,0,0,1,.12-.49,16.44,16.44,0,0,0,2.95-.43,17.11,17.11,0,0,0,3.1-1q0,1.72,0,8.26,0,5.89,0,8.16a2.1,2.1,0,0,0,.23,1.07,1.31,1.31,0,0,0,.73.56A11.22,11.22,0,0,0,164.31,79.47Zm-2.84-25.24a3,3,0,0,1-.29,1.29,1.92,1.92,0,0,1-.72.87,2.14,2.14,0,0,1-1,.21,2.59,2.59,0,0,1-1.08-.07,1.68,1.68,0,0,1-.74-.7,2.78,2.78,0,0,1-.36-1.12,3.21,3.21,0,0,1,0-.74,1.19,1.19,0,0,1,.22-.6,2.83,2.83,0,0,1,1-.56,3.28,3.28,0,0,1,1.2-.26,2.2,2.2,0,0,1,.85.16,1.69,1.69,0,0,1,.5.28,1.38,1.38,0,0,1,.32.58A2.33,2.33,0,0,1,161.48,54.23Z"/><path class="d" d="M180.19,61.56a29.85,29.85,0,0,0-.59,4.9q-.07.11-.51.13t-.54-.08a9.53,9.53,0,0,0-.59-2.44,2.66,2.66,0,0,0-1.08-1.25,4.44,4.44,0,0,0-2.25-.53,3,3,0,0,0-2.08.77,2.64,2.64,0,0,0-.85,2.06,3.53,3.53,0,0,0,.16,1.14,3.12,3.12,0,0,0,.62,1,5.78,5.78,0,0,0,1.29,1.05A22.13,22.13,0,0,0,176,69.48a18.68,18.68,0,0,1,2.42,1.38,6.47,6.47,0,0,1,1.49,1.37,4.4,4.4,0,0,1,.74,1.39,5.57,5.57,0,0,1,.21,1.58,5,5,0,0,1-.95,3,6.18,6.18,0,0,1-2.62,2.06,9.2,9.2,0,0,1-3.73.73,14.15,14.15,0,0,1-2.61-.26,10.51,10.51,0,0,1-2.27-.66,15.08,15.08,0,0,1-.46-2.47q-.22-1.75-.27-2.71a1.1,1.1,0,0,1,.52-.23,1,1,0,0,1,.59-.06,9,9,0,0,0,1.17,2.91,4.89,4.89,0,0,0,1.72,1.61,4.76,4.76,0,0,0,2.31.59,3.51,3.51,0,0,0,2.36-.77,2.52,2.52,0,0,0,.9-2,3.1,3.1,0,0,0-.78-2.17,10.89,10.89,0,0,0-2.91-2,12.77,12.77,0,0,1-4.08-2.88A5.28,5.28,0,0,1,169,64.5a5.3,5.3,0,0,1,1.29-1.76,6,6,0,0,1,2.17-1.21,9.27,9.27,0,0,1,3-.45,27.55,27.55,0,0,1,2.93.25A10.39,10.39,0,0,0,180.19,61.56Z"/><path class="d" d="M214.49,68.29a1.52,1.52,0,0,1-.35-.46,2.81,2.81,0,0,1-.23-.5.5.5,0,0,1,.06-.23.35.35,0,0,1,.13-.16,8.81,8.81,0,0,0,1.86.19,8.44,8.44,0,0,0,1.86-.18,5.73,5.73,0,0,0,1.51-.59,5.19,5.19,0,0,0,2.23-2.48,9.81,9.81,0,0,0,.66-3.81,10.26,10.26,0,0,0-.43-3.09,7,7,0,0,0-1.34-2.44A5.86,5.86,0,0,0,218,52.89a9.81,9.81,0,0,0-3.54-.59,4.62,4.62,0,0,0-1.86.23.48.48,0,0,0-.23.21,1,1,0,0,0-.15.41q-.09,2.3-.09,11.33,0,1.17,0,4t0,4.69q0,1.82.07,3.13a6.28,6.28,0,0,0,.22,1.57,1.4,1.4,0,0,0,.5.74,3.42,3.42,0,0,0,1.05.42,24.89,24.89,0,0,0,2.65.39q.11.11.08.57t-.13.53l-2.94-.07q-2.36-.07-3.4-.07-1.23,0-3.44.07l-2.65.07Q204,80.46,204,80a.87.87,0,0,1,.1-.55,19.58,19.58,0,0,0,2.39-.34,2.52,2.52,0,0,0,.88-.39,1.51,1.51,0,0,0,.45-.77,7.09,7.09,0,0,0,.21-1.62q.2-3.36.2-11,0-8.88-.09-10.37a4.58,4.58,0,0,0-.37-1.85,1.76,1.76,0,0,0-1.22-.74,18.28,18.28,0,0,0-2.34-.39,1.22,1.22,0,0,1,0-.57,1.61,1.61,0,0,1,.12-.53l2.24.07q2,.07,3.32.07l3.7,0,3.74,0a16.2,16.2,0,0,1,1.93.12,11.36,11.36,0,0,1,2.22.53,6.82,6.82,0,0,1,2.09,1.08,7.79,7.79,0,0,1,3,6.38,10.2,10.2,0,0,1-.28,2.4,8.49,8.49,0,0,1-1.84,3.66,8.76,8.76,0,0,1-2.77,2.2,10.8,10.8,0,0,1-5,1.2A6.67,6.67,0,0,1,214.49,68.29Z"/><path class="d" d="M239.25,67.95a5.06,5.06,0,0,0-.77-2.79,3.83,3.83,0,0,0-1.57-1.32,5,5,0,0,0-2.12-.45,3,3,0,0,0-1.83.43,3.87,3.87,0,0,0-1,1.25,13,13,0,0,0-1,2.2q-.07.09-.37,0a2.05,2.05,0,0,1-.57-.4.61.61,0,0,1-.25-.46,5.75,5.75,0,0,1,.41-1.44,3.31,3.31,0,0,1,.6-1.15,16.6,16.6,0,0,1,3.36-1.89,8.14,8.14,0,0,1,2.88-.8,5.14,5.14,0,0,1,4.56,2.45,9.14,9.14,0,0,1,1.05,4.76q0,1.36-.07,4.28t-.07,3.74a2.43,2.43,0,0,0,.41,1.43,1.56,1.56,0,0,0,1.37.59,5.2,5.2,0,0,0,1.63-.25,2.32,2.32,0,0,1,0,.66,1.34,1.34,0,0,1-.16.6,5.19,5.19,0,0,1-1.87,1.26,5.51,5.51,0,0,1-2,.42,2.38,2.38,0,0,1-2.36-1.24,3.11,3.11,0,0,1-.34-1.16q0-.09-.14-.12s0,0,0,0q-4,2.5-5.57,2.5a3.53,3.53,0,0,1-2.54-1.15A5.6,5.6,0,0,1,229.69,78a6.18,6.18,0,0,1-.42-2.27,5.7,5.7,0,0,1,.24-1.36,6.61,6.61,0,0,1,.43-1.24,33.29,33.29,0,0,1,4.46-1.58A41.92,41.92,0,0,0,239,70q.11,0,.29-.43,0-.23,0-.51t0-.6Q239.25,68.1,239.25,67.95Zm-.06,3.41a.18.18,0,0,0-.06-.11s-.08-.05-.12,0l-1.22.41-1.51.52-1.2.44a12.47,12.47,0,0,0-1.2.5,3,3,0,0,0-.62.39q-.14.07-.29.59a3.4,3.4,0,0,0,.79,3.33,3.2,3.2,0,0,0,2.42,1,4.23,4.23,0,0,0,1.19-.21,5.21,5.21,0,0,0,1.26-.56,1.15,1.15,0,0,0,.48-1.05Q239.19,75.3,239.19,71.36Z"/><path class="d" d="M260.27,61.08a3,3,0,0,1,1.28.28,2,2,0,0,1,.88.73,1.32,1.32,0,0,1,0,.37,1.77,1.77,0,0,1,0,.4,5.66,5.66,0,0,1-.59,1.42,7,7,0,0,1-.9,1.41s-.06.06-.17.11a.77.77,0,0,1-.22.08,6.49,6.49,0,0,0-1.47-1,3.3,3.3,0,0,0-1.51-.4,2,2,0,0,0-1.33.57,5.19,5.19,0,0,0-1.12,1.44,2.38,2.38,0,0,0-.3.75,4,4,0,0,0-.12,1q0,7.29.09,9.21a2.77,2.77,0,0,0,.28,1.09,1.1,1.1,0,0,0,.73.49,12.87,12.87,0,0,0,2.73.48,1,1,0,0,1,0,.57q0,.44-.18.53l-2.16-.07q-2-.07-3.13-.07-2.24,0-4.7.14a1.49,1.49,0,0,1,0-1.1,5.72,5.72,0,0,0,1.78-.39,1.07,1.07,0,0,0,.59-.4,2.06,2.06,0,0,0,.27-.94q.15-1.25.15-8.26,0-3.18-.06-3.89a2.13,2.13,0,0,0-.13-.49,1.73,1.73,0,0,0-.33-.47,2.73,2.73,0,0,0-.75-.52,7.84,7.84,0,0,0-1.28-.49,3,3,0,0,1,.05-.5q.05-.3.15-.36a15.1,15.1,0,0,0,3-.63A12.44,12.44,0,0,0,254.5,61a.28.28,0,0,1,.16.06.18.18,0,0,1,.09.13q-.11,1.61-.11,3.79a.1.1,0,0,0,.08.09.09.09,0,0,0,.12,0q.83-1,1.53-1.73A11.93,11.93,0,0,1,257.82,62,3.88,3.88,0,0,1,260.27,61.08Z"/><path class="d" d="M277.45,61.56a29.85,29.85,0,0,0-.59,4.9q-.07.11-.51.13t-.54-.08a9.53,9.53,0,0,0-.59-2.44,2.66,2.66,0,0,0-1.08-1.25,4.44,4.44,0,0,0-2.25-.53,3,3,0,0,0-2.08.77,2.64,2.64,0,0,0-.85,2.06,3.53,3.53,0,0,0,.16,1.14,3.12,3.12,0,0,0,.62,1A5.78,5.78,0,0,0,271,68.31a22.13,22.13,0,0,0,2.19,1.17,18.68,18.68,0,0,1,2.42,1.38,6.47,6.47,0,0,1,1.49,1.37,4.4,4.4,0,0,1,.74,1.39,5.57,5.57,0,0,1,.21,1.58,5,5,0,0,1-.95,3,6.18,6.18,0,0,1-2.62,2.06,9.2,9.2,0,0,1-3.73.73,14.15,14.15,0,0,1-2.61-.26,10.51,10.51,0,0,1-2.27-.66,15.08,15.08,0,0,1-.46-2.47q-.22-1.75-.27-2.71a1.1,1.1,0,0,1,.52-.23,1,1,0,0,1,.59-.06,9,9,0,0,0,1.17,2.91,4.89,4.89,0,0,0,1.72,1.61,4.76,4.76,0,0,0,2.31.59,3.51,3.51,0,0,0,2.36-.77,2.52,2.52,0,0,0,.9-2,3.1,3.1,0,0,0-.78-2.17,10.89,10.89,0,0,0-2.91-2,12.77,12.77,0,0,1-4.08-2.88,5.28,5.28,0,0,1-.71-5.42,5.3,5.3,0,0,1,1.29-1.76,6,6,0,0,1,2.17-1.21,9.27,9.27,0,0,1,3-.45,27.55,27.55,0,0,1,2.93.25A10.39,10.39,0,0,0,277.45,61.56Z"/><path class="d" d="M291.18,79.47a1,1,0,0,1,0,.55,1.1,1.1,0,0,1-.16.55l-2-.07q-1.61-.07-2.74-.07t-2.77.07l-1.84.07a1.49,1.49,0,0,1,0-1.1,8.2,8.2,0,0,0,2-.43,1.09,1.09,0,0,0,.61-.55,4,4,0,0,0,.25-1.27q.11-1.35.11-7.3,0-1.07,0-2.61t0-1.85a1.48,1.48,0,0,0-.33-1l-.2-.18-.19-.15a1.53,1.53,0,0,0-.25-.14l-.24-.11-.29-.11-.28-.1-.33-.11-.33-.1a1,1,0,0,1,0-.52,1.45,1.45,0,0,1,.12-.49A16.44,16.44,0,0,0,285.2,62a17.11,17.11,0,0,0,3.1-1q0,1.72,0,8.26,0,5.89,0,8.16a2.1,2.1,0,0,0,.23,1.07,1.31,1.31,0,0,0,.73.56A11.22,11.22,0,0,0,291.18,79.47Zm-2.84-25.24a3,3,0,0,1-.29,1.29,1.92,1.92,0,0,1-.72.87,2.14,2.14,0,0,1-1,.21,2.59,2.59,0,0,1-1.08-.07,1.68,1.68,0,0,1-.74-.7,2.78,2.78,0,0,1-.36-1.12,3.21,3.21,0,0,1,0-.74,1.19,1.19,0,0,1,.22-.6,2.83,2.83,0,0,1,1-.56,3.28,3.28,0,0,1,1.2-.26,2.2,2.2,0,0,1,.85.16,1.69,1.69,0,0,1,.5.28,1.38,1.38,0,0,1,.32.58A2.33,2.33,0,0,1,288.34,54.23Z"/><path class="d" d="M293.81,79.47a15.15,15.15,0,0,0,1.82-.39,1.12,1.12,0,0,0,.77-.65,4,4,0,0,0,.24-1.37q.19-5.18.11-10.79a2.18,2.18,0,0,0-.39-1.44,4.61,4.61,0,0,0-2.21-1,.93.93,0,0,1,0-.53q.08-.39.19-.43a15.9,15.9,0,0,0,3.18-.71A14.36,14.36,0,0,0,300.19,61s.05,0,.09.06a.2.2,0,0,1,.06.13q0,.12,0,1.29t0,1.58s0,.09.1.12.11,0,.13,0a19.42,19.42,0,0,1,3.65-2.34,6.93,6.93,0,0,1,2.83-.79,4.92,4.92,0,0,1,2.88.87,6,6,0,0,1,2,2.35.15.15,0,0,0,.15.07.25.25,0,0,0,.18-.07,20.07,20.07,0,0,1,3.68-2.37,7.29,7.29,0,0,1,3.09-.85,4.93,4.93,0,0,1,4.2,2,9.2,9.2,0,0,1,1.51,5.52q.06,3.23.06,9.22a1.05,1.05,0,0,0,.42,1,2.05,2.05,0,0,0,.66.31,6.39,6.39,0,0,0,.71.18l1.13.18q.08.11,0,.57t-.2.53l-1.85-.07q-1.52-.07-2.61-.07-1.44,0-4.61.14a1.49,1.49,0,0,1,0-1.1l.57-.12.52-.11.4-.11.43-.15a.91.91,0,0,0,.6-.71,11.58,11.58,0,0,0,.16-2q0-.57,0-1.84t0-2.13q0-.86,0-1.9T321,68.59a9.64,9.64,0,0,0-.13-1.17,4.71,4.71,0,0,0-.36-1.28,4.55,4.55,0,0,0-.76-1.15,3.39,3.39,0,0,0-1.3-.88,4.94,4.94,0,0,0-1.86-.33,6.11,6.11,0,0,0-4.12,1.72q-.14.07-.14.39a19.78,19.78,0,0,1,.19,3.36q0,6.62.09,8.59a1.1,1.1,0,0,0,.73,1.15,9.17,9.17,0,0,0,2.06.48.86.86,0,0,1,.05.57.81.81,0,0,1-.19.53q-.59,0-2.13-.07t-2.63-.07q-.88,0-2.43.07l-1.89.07a.86.86,0,0,1-.12-.55.77.77,0,0,1,.12-.55,14.65,14.65,0,0,0,1.83-.39,1,1,0,0,0,.63-.51,4.08,4.08,0,0,0,.24-1.26q.12-1.65.09-5.43a34,34,0,0,0-.23-4.75,6,6,0,0,0-.21-.74,5.77,5.77,0,0,0-.33-.76,3.15,3.15,0,0,0-.53-.73,4.34,4.34,0,0,0-.72-.6,3.25,3.25,0,0,0-1-.42,5,5,0,0,0-1.26-.15,5.77,5.77,0,0,0-1.83.33,5.91,5.91,0,0,0-1.82,1,1.6,1.6,0,0,0-.76,1.25q0,8.92,0,11.32a3.35,3.35,0,0,0,.09.65,1.21,1.21,0,0,0,.29.49,1.25,1.25,0,0,0,.63.35l.43.11.69.12.7.11q.11.11.06.55a1,1,0,0,1-.15.55q-.46,0-2-.07t-2.58-.07q-1.41,0-2.79.07t-1.86.07a.93.93,0,0,1-.11-.57Q293.7,79.54,293.81,79.47Z"/><path class="d" d="M341.65,61.08a8.93,8.93,0,0,1,4.8,1.27,8.1,8.1,0,0,1,3.09,3.41,10.91,10.91,0,0,1,1,4.82,11.17,11.17,0,0,1-1.13,5,9.06,9.06,0,0,1-3.29,3.66,11.53,11.53,0,0,1-2.54,1.21,8.73,8.73,0,0,1-2.88.52,11.19,11.19,0,0,1-2.7-.31,8.56,8.56,0,0,1-2.2-.85,8.18,8.18,0,0,1-1.71-1.3,8,8,0,0,1-1.28-1.64A10.3,10.3,0,0,1,332,75a12,12,0,0,1-.5-2,13.7,13.7,0,0,1-.16-2.09A9.06,9.06,0,0,1,335.46,63a11.63,11.63,0,0,1,2.92-1.37A10.84,10.84,0,0,1,341.65,61.08ZM340,62.66a4.36,4.36,0,0,0-1.23.19,3,3,0,0,0-1.07.53q-2.45,1.62-2.45,6.34a13.7,13.7,0,0,0,.85,5,7.91,7.91,0,0,0,2.36,3.4,5.31,5.31,0,0,0,3.41,1.21,4.08,4.08,0,0,0,2.93-1.05,5.28,5.28,0,0,0,1.4-2.43,16.16,16.16,0,0,0-.37-8.62,7.48,7.48,0,0,0-2.3-3.35A5.49,5.49,0,0,0,340,62.66Z"/><path class="d" d="M354.65,79.47a14.06,14.06,0,0,0,1.68-.34q.93-.3,1-1.77.11-1.78.11-7.87,0-2.89-.11-4.08a1.5,1.5,0,0,0-.6-.87,7.12,7.12,0,0,0-1.79-.81,1.29,1.29,0,0,1,0-.47.62.62,0,0,1,.16-.39,17.54,17.54,0,0,0,3.13-.73,14.37,14.37,0,0,0,2.68-1.1s.06,0,.11.09a.26.26,0,0,1,.08.16,23.51,23.51,0,0,0-.14,2.78.18.18,0,0,0,.11.19.07.07,0,0,0,.08,0,18.2,18.2,0,0,1,3.64-2.34,7.19,7.19,0,0,1,2.94-.79,5.06,5.06,0,0,1,4.46,2.45,10.38,10.38,0,0,1,1.21,5.61q0,6.91,0,8.74a.94.94,0,0,0,.57,1,8.64,8.64,0,0,0,2.25.57,1,1,0,0,1,0,.55,1,1,0,0,1-.18.55l-1.54-.07q-1.43-.07-2.88-.07t-4.75.14a1.17,1.17,0,0,1-.09-.55,1,1,0,0,1,.09-.55,9.82,9.82,0,0,0,1.86-.34,1.08,1.08,0,0,0,.72-.53,3,3,0,0,0,.24-1.19,82.6,82.6,0,0,0-.14-9.69,4.46,4.46,0,0,0-1.35-2.93,4.12,4.12,0,0,0-2.92-1.05,5.85,5.85,0,0,0-2.1.39,5.62,5.62,0,0,0-1.84,1.14,1.23,1.23,0,0,0-.37.6A4.24,4.24,0,0,0,361,67q0,8.12.09,10.28a3.31,3.31,0,0,0,.22,1.26,1.19,1.19,0,0,0,.64.56,12.35,12.35,0,0,0,2,.39,1.05,1.05,0,0,1,0,.53,1.21,1.21,0,0,1-.14.57l-1.67-.07q-1.51-.07-3-.07t-3,.07l-1.55.07a1.49,1.49,0,0,1,0-1.1Z"/><path class="d" d="M388.49,79.47a1,1,0,0,1,0,.55,1.1,1.1,0,0,1-.16.55l-2-.07q-1.61-.07-2.74-.07t-2.77.07l-1.84.07a1.49,1.49,0,0,1,0-1.1,8.2,8.2,0,0,0,2-.43,1.09,1.09,0,0,0,.61-.55,4,4,0,0,0,.25-1.27q.11-1.35.11-7.3,0-1.07,0-2.61t0-1.85a1.48,1.48,0,0,0-.33-1l-.2-.18-.19-.15a1.53,1.53,0,0,0-.25-.14l-.24-.11-.29-.11-.28-.1-.33-.11-.33-.1a1,1,0,0,1,0-.52,1.45,1.45,0,0,1,.12-.49,16.44,16.44,0,0,0,2.95-.43,17.11,17.11,0,0,0,3.1-1q0,1.72,0,8.26,0,5.89,0,8.16a2.1,2.1,0,0,0,.23,1.07,1.31,1.31,0,0,0,.73.56A11.22,11.22,0,0,0,388.49,79.47Zm-2.84-25.24a3,3,0,0,1-.29,1.29,1.92,1.92,0,0,1-.72.87,2.14,2.14,0,0,1-1,.21,2.59,2.59,0,0,1-1.08-.07,1.68,1.68,0,0,1-.74-.7,2.78,2.78,0,0,1-.36-1.12,3.21,3.21,0,0,1,0-.74,1.19,1.19,0,0,1,.22-.6,2.83,2.83,0,0,1,1-.56,3.28,3.28,0,0,1,1.2-.26,2.2,2.2,0,0,1,.85.16,1.69,1.69,0,0,1,.5.28,1.38,1.38,0,0,1,.32.58A2.33,2.33,0,0,1,385.65,54.23Z"/><path class="d" d="M401.83,67.95a5.06,5.06,0,0,0-.77-2.79,3.83,3.83,0,0,0-1.57-1.32,5,5,0,0,0-2.12-.45,3,3,0,0,0-1.83.43,3.87,3.87,0,0,0-1,1.25,13,13,0,0,0-1,2.2q-.07.09-.37,0a2.05,2.05,0,0,1-.57-.4.61.61,0,0,1-.25-.46,5.75,5.75,0,0,1,.41-1.44,3.31,3.31,0,0,1,.6-1.15,16.6,16.6,0,0,1,3.36-1.89,8.14,8.14,0,0,1,2.88-.8,5.14,5.14,0,0,1,4.56,2.45,9.14,9.14,0,0,1,1.05,4.76q0,1.36-.07,4.28t-.07,3.74a2.43,2.43,0,0,0,.41,1.43,1.56,1.56,0,0,0,1.37.59,5.2,5.2,0,0,0,1.63-.25,2.32,2.32,0,0,1,0,.66,1.34,1.34,0,0,1-.16.6,5.19,5.19,0,0,1-1.87,1.26,5.51,5.51,0,0,1-2,.42,2.38,2.38,0,0,1-2.36-1.24,3.11,3.11,0,0,1-.34-1.16q0-.09-.14-.12s0,0,0,0q-4,2.5-5.57,2.5a3.53,3.53,0,0,1-2.54-1.15A5.6,5.6,0,0,1,392.27,78a6.18,6.18,0,0,1-.42-2.27,5.7,5.7,0,0,1,.24-1.36,6.61,6.61,0,0,1,.43-1.24A33.29,33.29,0,0,1,397,71.55,41.92,41.92,0,0,0,401.54,70q.11,0,.29-.43,0-.23,0-.51t0-.6Q401.83,68.1,401.83,67.95Zm-.06,3.41a.18.18,0,0,0-.06-.11s-.08-.05-.12,0l-1.22.41-1.51.52-1.2.44a12.47,12.47,0,0,0-1.2.5,3,3,0,0,0-.62.39q-.14.07-.29.59a3.4,3.4,0,0,0,.79,3.33,3.2,3.2,0,0,0,2.42,1,4.23,4.23,0,0,0,1.19-.21,5.21,5.21,0,0,0,1.26-.56,1.15,1.15,0,0,0,.48-1.05Q401.77,75.3,401.77,71.36Z"/><path class="d" d="M427.54,76l.19.2a2.06,2.06,0,0,1,0,.63,1.5,1.5,0,0,1-.15.52A11.26,11.26,0,0,1,423.87,80,9.48,9.48,0,0,1,420,81a7.52,7.52,0,0,1-5.75-2.3,8.64,8.64,0,0,1-2-3.37,13.43,13.43,0,0,1-.63-4.11,11.22,11.22,0,0,1,1.11-5.14,8.77,8.77,0,0,1,3.06-3.46,9.36,9.36,0,0,1,2.49-1.1,9.22,9.22,0,0,1,2.55-.43,6.46,6.46,0,0,1,1.79.24,5.47,5.47,0,0,1,1.46.64,6,6,0,0,1,1.15,1,7,7,0,0,1,.88,1.16,8.94,8.94,0,0,1,.63,1.27,10.43,10.43,0,0,1,.42,1.27q.15.59.25,1.18.11.3.68.43a1,1,0,0,1-.08.47.88.88,0,0,1-.22.43,28.14,28.14,0,0,1-5,.66q-3.65.27-7.47.41-.13,0-.21.16a.85.85,0,0,0-.08.36,8.62,8.62,0,0,0,.54,2.72,7.13,7.13,0,0,0,1.32,2.31A6.66,6.66,0,0,0,422.17,78a8.39,8.39,0,0,0,2.8-.46A8.1,8.1,0,0,0,427.54,76Zm-8.21-13.39a3.45,3.45,0,0,0-2.84,1.54,7.69,7.69,0,0,0-1.33,4.18.46.46,0,0,0,.06.22q.06.11.13.11,1.28,0,4.35-.06a28.09,28.09,0,0,0,3.76-.27.43.43,0,0,0,.29-.39,8.62,8.62,0,0,0-.45-1.87,7.68,7.68,0,0,0-.86-1.71,4.17,4.17,0,0,0-1.34-1.27A3.4,3.4,0,0,0,419.33,62.62Z"/><path d="M120,43l.44-.07.33-.1a1,1,0,0,0,.26-.14,1.31,1.31,0,0,0,.21-.23,2,2,0,0,0,.21-.33l.22-.47q.47-1.09,1.26-3.17T124,35.63a4.87,4.87,0,0,0,.25-.84h1q.18.6.24.76.37,1.05,1.19,3.29t1.15,3l.19.42a1.67,1.67,0,0,0,.18.29,1.06,1.06,0,0,0,.18.2,1,1,0,0,0,.24.12,1.62,1.62,0,0,0,.32.09l.44.07s0,.09,0,.22a.43.43,0,0,1-.05.23q-1.09,0-1.75,0-1,0-1.9,0a.46.46,0,0,1,0-.23c0-.12,0-.2,0-.22l.22,0,.21,0,.17,0,.16,0a.27.27,0,0,0,.17-.36q-.12-.41-.36-1.1t-.45-1.19a.12.12,0,0,0-.06-.07l-.07,0H123.2a.14.14,0,0,0-.09,0l-.06.08a12.17,12.17,0,0,0-.71,2.17.82.82,0,0,0,0,.17.33.33,0,0,0,.05.13.31.31,0,0,0,.14.11l.25.08.69.13s0,.09,0,.22a.43.43,0,0,1-.06.23l-.71,0-1.13,0-1,0-.56,0a.63.63,0,0,1,0-.45Zm4.43-6.71h0l0,0-.49,1.39q-.4,1.15-.55,1.58c0,.05,0,.08.05.1h2s0,0,.06,0a.08.08,0,0,0,0-.08Q124.68,36.83,124.47,36.32Z"/><path d="M149.18,35.2s-.05-.11,0-.22a.39.39,0,0,1,0-.21l.73,0,1.06,0h3.36a8.54,8.54,0,0,0,1.37-.07s0,0,0,0a.13.13,0,0,1,0,.06,6.07,6.07,0,0,0-.12.83q-.06.58-.08,1.17s-.11.06-.25.07-.23,0-.26,0a5.58,5.58,0,0,0-.2-.94.77.77,0,0,0-.23-.36.68.68,0,0,0-.4-.12l-1.25,0q-.84,0-1.14,0a.18.18,0,0,0-.12.1.32.32,0,0,0-.05.15q0,1.76,0,3.11a.07.07,0,0,0,0,0l0,0q1.83,0,2.29,0a.52.52,0,0,0,.33-.14.84.84,0,0,0,.18-.33q.1-.31.17-.6a.71.71,0,0,1,.27,0,.58.58,0,0,1,.26,0q-.09,1.09-.09,1.44,0,.53,0,1.4a.54.54,0,0,1-.24,0,.72.72,0,0,1-.26,0q-.06-.28-.17-.63a.79.79,0,0,0-.19-.34.48.48,0,0,0-.31-.12q-.56,0-2.29,0l0,0,0,0q0,2,0,2.55a1,1,0,0,0,.11.5.61.61,0,0,0,.4.21,8.38,8.38,0,0,0,1,.15s0,.1,0,.22,0,.2-.06.22l-.84,0-1.33,0-1.08,0-.77,0s0-.09,0-.22,0-.2,0-.23q.48-.06.77-.13a.69.69,0,0,0,.39-.22,1,1,0,0,0,.1-.5q0-.5,0-3.16t0-3a1.25,1.25,0,0,0-.09-.48.49.49,0,0,0-.3-.21Q149.48,35.23,149.18,35.2Z"/><path d="M165.11,35.2s0-.09,0-.22,0-.2.06-.22l.76,0,1.06,0,1,0,.74,0s.05.09.05.21a.36.36,0,0,1,0,.22l-.7.14a.54.54,0,0,0-.33.22,1,1,0,0,0-.09.49q0,1.94,0,3.92a3.85,3.85,0,0,0,.23,1.3,1.77,1.77,0,0,0,.27.6,2.07,2.07,0,0,0,.49.49,2.34,2.34,0,0,0,.74.34,3.54,3.54,0,0,0,1,.12l.48,0a2.88,2.88,0,0,0,.46-.09,1.76,1.76,0,0,0,.44-.18,1.87,1.87,0,0,0,.69-.76,3,3,0,0,0,.22-.64,4.89,4.89,0,0,0,.12-.84,35.5,35.5,0,0,0,0-4,1.42,1.42,0,0,0-.14-.7.74.74,0,0,0-.49-.27l-.76-.11a.4.4,0,0,1,0-.23c0-.12,0-.19,0-.21l.67,0,1.08,0,.93,0,.63,0s0,.1,0,.22,0,.2,0,.22l-.62.14a.57.57,0,0,0-.39.3,2,2,0,0,0-.11.72q0,.64,0,1.45t0,1.2q0,.39,0,.85t-.07.77a5.45,5.45,0,0,1-.12.6,3.29,3.29,0,0,1-.38,1,2.75,2.75,0,0,1-.59.7,3,3,0,0,1-.74.45,3.84,3.84,0,0,1-.84.25,5.13,5.13,0,0,1-.88.07,5.48,5.48,0,0,1-1.2-.12,3.33,3.33,0,0,1-.92-.34A2.45,2.45,0,0,1,166.56,42a3.38,3.38,0,0,1-.21-.84q-.06-.53-.08-2.81t0-2.32a1,1,0,0,0-.1-.44.51.51,0,0,0-.29-.23A7,7,0,0,0,165.11,35.2Z"/><path d="M183.39,35.21s0-.1,0-.22,0-.2.06-.22l.77,0,1.08,0h.63a1.4,1.4,0,0,0,.14.27c.06.1.19.26.36.49q.94,1.19,2.58,3.19t2.32,2.8s0,0,0,0q0-.41,0-1.46t0-1.62q0-.56,0-1.25t0-1.06a1,1,0,0,0-.13-.5.7.7,0,0,0-.42-.24,8.85,8.85,0,0,0-1-.18s0-.1,0-.22,0-.19,0-.21l.76,0,1.18,0,.87,0,.65,0s.05.1.05.22,0,.19-.05.22l-.63.15a.63.63,0,0,0-.37.26,1.19,1.19,0,0,0-.12.49q0,.31,0,.68t0,.91q0,.55,0,1T192,40q0,.91,0,1.54,0,1,0,1.93l-.5,0-.5,0q-.74-1.06-5.38-6.86l0,0h0q0,4.42,0,5.42a1.07,1.07,0,0,0,.15.56.68.68,0,0,0,.42.25l.18,0,.19,0,.25,0,.25,0a.37.37,0,0,1,0,.23.4.4,0,0,1-.05.22l-.73,0-1.07,0-1.09,0-.66,0s0-.1,0-.22,0-.2,0-.22a4.18,4.18,0,0,0,.77-.15.73.73,0,0,0,.39-.25,1,1,0,0,0,.16-.53q.06-1.09.13-5.9a.7.7,0,0,0-.41-.7,1.78,1.78,0,0,0-.45-.18A4.69,4.69,0,0,0,183.39,35.21Z"/><path d="M210,37.06a5.46,5.46,0,0,0-.18-.88,1.26,1.26,0,0,0-.25-.47,1.37,1.37,0,0,0-.44-.3,3.91,3.91,0,0,0-1.72-.31,3.19,3.19,0,0,0-1.34.27,2.62,2.62,0,0,0-1,.77,3.54,3.54,0,0,0-.6,1.21,5.61,5.61,0,0,0-.21,1.58,5.31,5.31,0,0,0,.1,1,4.73,4.73,0,0,0,.3,1,3.51,3.51,0,0,0,1.23,1.5,3.16,3.16,0,0,0,.93.43,4.08,4.08,0,0,0,1.14.15,2.9,2.9,0,0,0,.87-.12,1.91,1.91,0,0,0,.64-.32,5.56,5.56,0,0,0,1.08-1.4.39.39,0,0,1,.21.07.37.37,0,0,1,.18.16,4.55,4.55,0,0,1-.47,1.1,2.5,2.5,0,0,1-.6.81,5.85,5.85,0,0,1-1,.25,6.62,6.62,0,0,1-1.21.11,5.89,5.89,0,0,1-2.66-.55,3.76,3.76,0,0,1-1.67-1.59,5.11,5.11,0,0,1-.57-2.48,4.75,4.75,0,0,1,.23-1.49,4.19,4.19,0,0,1,.75-1.34,4.09,4.09,0,0,1,1.26-1,5.83,5.83,0,0,1,2.84-.65,10.08,10.08,0,0,1,1.09.06l1,.13.7.09q-.07.43-.14,1.09t-.08,1.1a.23.23,0,0,1-.14.07.81.81,0,0,1-.22,0C210,37.1,210,37.09,210,37.06Z"/><path d="M226.27,43a.36.36,0,0,1,0,.23c0,.12,0,.19-.07.21q-1.22,0-2.18,0t-2.16,0a.41.41,0,0,1,0-.23.36.36,0,0,1,0-.22q.81-.1,1-.15a.54.54,0,0,0,.42-.28,2.05,2.05,0,0,0,.13-.75q0-1.23,0-6.3a.13.13,0,0,0,0-.08.07.07,0,0,0-.06,0h-1.76a.67.67,0,0,0-.59.39,6.43,6.43,0,0,0-.56,1.33.47.47,0,0,1-.27,0q-.22-.05-.23-.1.09-.46.17-1.19t.11-1.19s0,0,.08,0,.09,0,.1,0a2.5,2.5,0,0,0,1.15.21h5.18a6,6,0,0,0,.82,0,2,2,0,0,0,.58-.18l.09,0a.15.15,0,0,1,.06.05,17.56,17.56,0,0,0-.32,2.45s-.1.05-.25.05-.23,0-.25-.05a5,5,0,0,0-.23-1.27.76.76,0,0,0-.22-.3.58.58,0,0,0-.32-.1h-1.93a.09.09,0,0,0,0,0,.14.14,0,0,0,0,.07q0,5.91,0,6.62a1.07,1.07,0,0,0,.13.47.55.55,0,0,0,.34.22A8.67,8.67,0,0,0,226.27,43Z"/><path d="M241.85,43.68a4.74,4.74,0,0,1-1.81-.33,3.87,3.87,0,0,1-1.38-.94A4.77,4.77,0,0,1,237.44,39a4.35,4.35,0,0,1,.9-2.72A4.14,4.14,0,0,1,240,35a5,5,0,0,1,2.15-.49,4.87,4.87,0,0,1,1.54.24,3.82,3.82,0,0,1,1.21.64,4,4,0,0,1,.86,1,4.22,4.22,0,0,1,.53,1.19,5.13,5.13,0,0,1,.17,1.33,5.61,5.61,0,0,1-.21,1.62,4.42,4.42,0,0,1-2.28,2.66A4.7,4.7,0,0,1,241.85,43.68Zm.53-.67a2.7,2.7,0,0,0,.82-.12,1.78,1.78,0,0,0,.65-.35A3.73,3.73,0,0,0,245,39.43a5.67,5.67,0,0,0-.41-2.18,3.39,3.39,0,0,0-1.2-1.54,3.11,3.11,0,0,0-1.82-.55,2.49,2.49,0,0,0-1.23.31,2.62,2.62,0,0,0-1.11,1.28,4.9,4.9,0,0,0-.38,2,5.89,5.89,0,0,0,.19,1.49,4.63,4.63,0,0,0,.59,1.35,3.34,3.34,0,0,0,1,1A3.17,3.17,0,0,0,242.38,43Z"/><path d="M256,35.2a.38.38,0,0,1,0-.23c0-.12,0-.19.07-.2l.78,0,.87,0h2.37a3.38,3.38,0,0,1,.9.11,2.46,2.46,0,0,1,.71.31,2.19,2.19,0,0,1,.51.47,1.92,1.92,0,0,1,.32.59,2.17,2.17,0,0,1,.1.68,2.41,2.41,0,0,1-.12.79,2,2,0,0,1-.35.64,2.72,2.72,0,0,1-.5.47,3.32,3.32,0,0,1-.61.35.11.11,0,0,0,0,.06.08.08,0,0,0,0,.06q.4.64,1.09,1.55a14.82,14.82,0,0,0,1.17,1.4l.25.25a1.65,1.65,0,0,0,.23.18l.21.12.25.09.3.07.39.06s0,.11,0,.23,0,.2-.09.21a9.83,9.83,0,0,1-1.28,0,3,3,0,0,1-1-.23,2.37,2.37,0,0,1-.69-.59q-.24-.28-.57-.77t-.74-1.1l-.57-.86a.42.42,0,0,0-.35-.2h-1l0,0,0,0q0,1.61,0,2.48a1,1,0,0,0,.13.46.55.55,0,0,0,.35.18l.81.14s0,.09,0,.22,0,.2-.07.23l-.69,0-1.23,0-1.15,0-.67,0a.31.31,0,0,1-.06-.23c0-.12,0-.19.05-.22l.73-.11a.58.58,0,0,0,.36-.22,1.16,1.16,0,0,0,.12-.55q0-.25,0-1.32t0-1.63q0-2.81,0-3.21a.85.85,0,0,0-.1-.45.58.58,0,0,0-.36-.2A6.19,6.19,0,0,0,256,35.2Zm3.13.1a1.17,1.17,0,0,0-.5.09.23.23,0,0,0-.06.08.28.28,0,0,0,0,.11q0,.49,0,3.43a.08.08,0,0,0,0,.06l0,0a5.8,5.8,0,0,0,1.85-.14,1.44,1.44,0,0,0,.63-.57,1.83,1.83,0,0,0,.25-1,2.12,2.12,0,0,0-.53-1.55A2.2,2.2,0,0,0,259.16,35.29Z"/><path d="M284.39,35.2s-.05-.11,0-.22a.39.39,0,0,1,0-.21l.73,0,1.06,0h3.36a8.54,8.54,0,0,0,1.37-.07s0,0,0,0a.13.13,0,0,1,0,.06,6.07,6.07,0,0,0-.12.83q-.06.58-.08,1.17s-.11.06-.25.07-.23,0-.26,0a5.58,5.58,0,0,0-.2-.94.77.77,0,0,0-.23-.36.68.68,0,0,0-.4-.12l-1.25,0q-.84,0-1.14,0a.18.18,0,0,0-.12.1.32.32,0,0,0-.05.15q0,1.76,0,3.11a.07.07,0,0,0,0,0l0,0q1.83,0,2.29,0a.52.52,0,0,0,.33-.14.84.84,0,0,0,.18-.33q.1-.31.17-.6a.71.71,0,0,1,.27,0,.58.58,0,0,1,.26,0q-.09,1.09-.09,1.44,0,.53,0,1.4a.54.54,0,0,1-.24,0,.72.72,0,0,1-.26,0q-.06-.28-.17-.63a.79.79,0,0,0-.19-.34.48.48,0,0,0-.31-.12q-.56,0-2.29,0l0,0,0,0q0,2,0,2.55a1,1,0,0,0,.11.5.61.61,0,0,0,.4.21,8.38,8.38,0,0,0,1,.15s0,.1,0,.22,0,.2-.06.22l-.84,0-1.33,0-1.08,0-.77,0s0-.09,0-.22,0-.2,0-.23q.48-.06.77-.13a.69.69,0,0,0,.39-.22,1,1,0,0,0,.1-.5q0-.5,0-3.16t0-3a1.25,1.25,0,0,0-.09-.48.49.49,0,0,0-.3-.21Q284.69,35.23,284.39,35.2Z"/><path class="e" d="M299.67,43l.44-.07.33-.1a1,1,0,0,0,.27-.14,1.43,1.43,0,0,0,.21-.23,1.89,1.89,0,0,0,.2-.33q.09-.18.21-.47.47-1.09,1.26-3.17t1.07-2.89a4.05,4.05,0,0,0,.25-.84h1q.07.29.24.77.36,1,1.18,3.26t1.15,3l.19.42a1.67,1.67,0,0,0,.18.29,1.06,1.06,0,0,0,.18.2,1,1,0,0,0,.24.12,1.62,1.62,0,0,0,.32.09L309,43s0,.1,0,.22a.41.41,0,0,1-.06.23q-1.09,0-1.75,0-1,0-1.9,0a.37.37,0,0,1,0-.23c0-.12,0-.2,0-.22a6.37,6.37,0,0,0,.78-.15.27.27,0,0,0,.15-.36q-.13-.46-.93-2.72t-1.24-3.46H304q-1.39,3.86-2,5.74a.76.76,0,0,0,0,.55.6.6,0,0,0,.42.26,5.92,5.92,0,0,0,.7.13s0,.09,0,.22,0,.2-.06.23l-.72,0-1.13,0-1,0-.56,0a.37.37,0,0,1,0-.23C299.63,43.12,299.64,43,299.67,43Z"/><path d="M317.37,35.21s0-.1,0-.22,0-.2.06-.22l.77,0,1.08,0h.63a1.4,1.4,0,0,0,.14.27c.06.1.19.26.36.49q.94,1.19,2.58,3.19t2.32,2.8s0,0,0,0q0-.41,0-1.46t0-1.62q0-.56,0-1.25t0-1.06a1,1,0,0,0-.13-.5.7.7,0,0,0-.42-.24,8.85,8.85,0,0,0-1-.18s0-.1,0-.22,0-.19,0-.21l.76,0,1.18,0,.87,0,.65,0s.05.1.05.22,0,.19-.05.22l-.63.15a.63.63,0,0,0-.37.26,1.19,1.19,0,0,0-.12.49q0,.31,0,.68t0,.91q0,.55,0,1T326,40q0,.91,0,1.54,0,1,0,1.93l-.5,0-.5,0q-.74-1.06-5.38-6.86l0,0h0q0,4.42,0,5.42a1.07,1.07,0,0,0,.15.56.68.68,0,0,0,.42.25l.18,0,.19,0,.25,0,.25,0a.37.37,0,0,1,0,.23.4.4,0,0,1-.05.22l-.73,0-1.07,0-1.09,0-.66,0s0-.1,0-.22,0-.2,0-.22a4.18,4.18,0,0,0,.77-.15.73.73,0,0,0,.39-.25,1,1,0,0,0,.16-.53q.06-1.09.13-5.9a.7.7,0,0,0-.41-.7,1.78,1.78,0,0,0-.45-.18A4.69,4.69,0,0,0,317.37,35.21Z"/><path d="M342.62,43a.36.36,0,0,1,0,.23c0,.12,0,.19-.07.21q-1.22,0-2.18,0t-2.16,0a.41.41,0,0,1,0-.23.36.36,0,0,1,0-.22q.81-.1,1-.15a.54.54,0,0,0,.42-.28,2.05,2.05,0,0,0,.13-.75q0-1.23,0-6.3a.13.13,0,0,0,0-.08.07.07,0,0,0-.06,0H338a.67.67,0,0,0-.59.39,6.43,6.43,0,0,0-.56,1.33.47.47,0,0,1-.27,0q-.22-.05-.23-.1.09-.46.17-1.19t.11-1.19s0,0,.08,0,.09,0,.1,0a2.5,2.5,0,0,0,1.15.21h5.18a6,6,0,0,0,.82,0,2,2,0,0,0,.58-.18l.09,0a.15.15,0,0,1,.06.05,17.56,17.56,0,0,0-.32,2.45s-.1.05-.25.05-.23,0-.25-.05a5,5,0,0,0-.23-1.27.76.76,0,0,0-.22-.3.58.58,0,0,0-.32-.1h-1.93a.09.09,0,0,0,0,0,.14.14,0,0,0,0,.07q0,5.91,0,6.62a1.07,1.07,0,0,0,.13.47.55.55,0,0,0,.34.22A8.67,8.67,0,0,0,342.62,43Z"/><path d="M352.14,43l.44-.07.33-.1a1,1,0,0,0,.26-.14,1.31,1.31,0,0,0,.21-.23,2,2,0,0,0,.21-.33l.22-.47q.47-1.09,1.26-3.17t1.07-2.89a4.87,4.87,0,0,0,.25-.84h1q.18.6.24.76.37,1.05,1.19,3.29t1.15,3l.19.42a1.67,1.67,0,0,0,.18.29,1.06,1.06,0,0,0,.18.2,1,1,0,0,0,.24.12A1.62,1.62,0,0,0,361,43l.44.07s0,.09,0,.22a.43.43,0,0,1-.05.23q-1.09,0-1.75,0-1,0-1.9,0a.46.46,0,0,1,0-.23c0-.12,0-.2,0-.22l.22,0,.21,0,.17,0,.16,0a.27.27,0,0,0,.17-.36q-.12-.41-.36-1.1t-.45-1.19a.12.12,0,0,0-.06-.07l-.07,0h-2.51a.14.14,0,0,0-.09,0l-.06.08a12.17,12.17,0,0,0-.71,2.17.82.82,0,0,0,0,.17.33.33,0,0,0,.05.13.31.31,0,0,0,.14.11l.25.08.69.13s0,.09,0,.22a.43.43,0,0,1-.06.23l-.71,0-1.13,0-1,0-.56,0a.63.63,0,0,1,0-.45Zm4.43-6.71h0l0,0L356,37.72q-.4,1.15-.55,1.58c0,.05,0,.08.05.1h2s0,0,.06,0a.08.08,0,0,0,0-.08Q356.77,36.83,356.57,36.32Z"/><path d="M371,41a6,6,0,0,0,.45,1.11,1.93,1.93,0,0,0,.59.66,2.2,2.2,0,0,0,1.37.39,1.7,1.7,0,0,0,.52-.08,1.61,1.61,0,0,0,.47-.25,1.18,1.18,0,0,0,.36-.46,1.59,1.59,0,0,0,.13-.67,1.78,1.78,0,0,0,0-.41,1.2,1.2,0,0,0-.15-.36,2,2,0,0,0-.24-.31,2.57,2.57,0,0,0-.36-.31l-.46-.31-.59-.34q-.42-.24-.71-.44a5.14,5.14,0,0,1-.58-.45,2.7,2.7,0,0,1-.45-.51,2.25,2.25,0,0,1-.27-.58,2.37,2.37,0,0,1-.1-.7,2.28,2.28,0,0,1,.22-1,2.11,2.11,0,0,1,.6-.75,2.79,2.79,0,0,1,.88-.46,3.53,3.53,0,0,1,1.09-.16,7.2,7.2,0,0,1,.84,0l.77.11.58.08a16.49,16.49,0,0,0-.24,2s-.1.05-.22.05-.2,0-.22,0a4.27,4.27,0,0,0-.18-1,1,1,0,0,0-.36-.5,2,2,0,0,0-1.15-.3,1.52,1.52,0,0,0-.63.13,1.25,1.25,0,0,0-.45.33,1.53,1.53,0,0,0-.27.45,1.42,1.42,0,0,0-.09.51,1.75,1.75,0,0,0,.12.67,1.47,1.47,0,0,0,.31.48A3.1,3.1,0,0,0,373,38a10.54,10.54,0,0,0,1,.55q.64.33.83.45a4.37,4.37,0,0,1,.52.38,2.87,2.87,0,0,1,.42.44,1.81,1.81,0,0,1,.29.57,2.29,2.29,0,0,1,.1.69,2.35,2.35,0,0,1-.21,1,2.59,2.59,0,0,1-.6.83,2.83,2.83,0,0,1-1,.58,4,4,0,0,1-1.34.22,4.78,4.78,0,0,1-1.14-.14,5.1,5.1,0,0,1-.9-.29,3.71,3.71,0,0,1-.24-.92q-.15-.8-.18-1.22,0-.08.22-.13A.4.4,0,0,1,371,41Z"/><path d="M385.18,35.2s0-.1,0-.22,0-.19.06-.22l.77,0,1,0,.91,0,.72,0s.05.09.06.21,0,.19,0,.22l-.52.11q-.25.08-.1.37.28.6.9,1.8t.84,1.55h.1q.38-.6,1-1.67t.77-1.51a.82.82,0,0,0,.06-.18.32.32,0,0,0,0-.15.21.21,0,0,0-.1-.12.65.65,0,0,0-.22-.07l-.69-.12a.37.37,0,0,1,0-.23c0-.12,0-.19.07-.2l1.58,0h.57l.53,0,.41,0s.06.08.07.21,0,.21,0,.23l-.26,0-.35.07a1.11,1.11,0,0,0-.51.25,3.57,3.57,0,0,0-.5.65q-.43.66-1,1.75t-.9,1.62a1.2,1.2,0,0,0-.09.25,1.06,1.06,0,0,0,0,.24q0,.46,0,1.89a1.91,1.91,0,0,0,.1.67.47.47,0,0,0,.35.25q.18,0,.91.13a.4.4,0,0,1,0,.23c0,.13,0,.2-.06.22l-.81,0-1.18,0-1.3,0-.8,0s0-.1,0-.22,0-.2,0-.22a9.11,9.11,0,0,0,1-.14.58.58,0,0,0,.38-.24,1.12,1.12,0,0,0,.11-.52q0-.69,0-1.74a2.21,2.21,0,0,0,0-.35,1.56,1.56,0,0,0-.08-.32q-.38-.86-1.69-3.22-.21-.38-.33-.57a1.73,1.73,0,0,0-.26-.32.88.88,0,0,0-.26-.18l-.33-.1-.15,0-.13,0-.19,0Z"/><path d="M85.89,52q-.11-.11-.06-.57t.15-.53l2.29.07q1.86.07,3.62.07,2.82,0,5.71-.14.14.11.14.55t-.14.55q-1.24.16-2.25.39a2,2,0,0,0-.57.22,1.57,1.57,0,0,0-.36.29,1.07,1.07,0,0,0-.21.43,4.15,4.15,0,0,0-.11.49q0,.21-.06.64,0,.67,0,2.29t0,4.07q0,2.45,0,4.15,0,10,.14,12.14a1.76,1.76,0,0,0,.3.94,1.1,1.1,0,0,0,.56.46,14.17,14.17,0,0,0,3.64.37q2.9.08,4.33,0a3.2,3.2,0,0,0,1.45-.39,4.7,4.7,0,0,0,1.33-1.25,21.18,21.18,0,0,0,1.44-2.27A28.35,28.35,0,0,0,108.59,72a1,1,0,0,1,.6.07q.43.14.5.32a41,41,0,0,1-1.07,4.15A18.37,18.37,0,0,1,107.29,80q-.32.57-2,.57-1.5,0-6.9-.09t-6.53-.09q-1.24,0-3.64.07l-2.79.07a1.49,1.49,0,0,1,0-1.1q2.24-.25,2.87-.39a2,2,0,0,0,1.1-.66,2.75,2.75,0,0,0,.39-1.4q.2-2.77.2-12.67,0-7.92,0-9.12a5.87,5.87,0,0,0-.35-2.13,1.76,1.76,0,0,0-1.29-.75Q87.74,52.21,85.89,52Z"/><path d="M129.43,76l.19.2a2.06,2.06,0,0,1,0,.63,1.5,1.5,0,0,1-.15.52A11.26,11.26,0,0,1,125.75,80a9.48,9.48,0,0,1-3.92,1,7.52,7.52,0,0,1-5.75-2.3,8.64,8.64,0,0,1-2-3.37,13.43,13.43,0,0,1-.63-4.11,11.22,11.22,0,0,1,1.11-5.14,8.77,8.77,0,0,1,3.06-3.46,9.36,9.36,0,0,1,2.49-1.1,9.22,9.22,0,0,1,2.55-.43,6.46,6.46,0,0,1,1.79.24A5.47,5.47,0,0,1,126,62a6,6,0,0,1,1.15,1,7,7,0,0,1,.88,1.16,8.94,8.94,0,0,1,.63,1.27,10.43,10.43,0,0,1,.42,1.27q.15.59.25,1.18.11.3.68.43a1,1,0,0,1-.08.47.88.88,0,0,1-.22.43,28.14,28.14,0,0,1-5,.66q-3.65.27-7.47.41-.13,0-.21.16a.85.85,0,0,0-.08.36,8.62,8.62,0,0,0,.54,2.72,7.13,7.13,0,0,0,1.32,2.31A6.66,6.66,0,0,0,124,78a8.39,8.39,0,0,0,2.8-.46A8.1,8.1,0,0,0,129.43,76Zm-8.21-13.39a3.45,3.45,0,0,0-2.84,1.54A7.69,7.69,0,0,0,117,68.34a.46.46,0,0,0,.06.22q.06.11.13.11,1.28,0,4.35-.06a28.09,28.09,0,0,0,3.76-.27.43.43,0,0,0,.29-.39,8.62,8.62,0,0,0-.45-1.87,7.68,7.68,0,0,0-.86-1.71A4.17,4.17,0,0,0,123,63.1,3.4,3.4,0,0,0,121.21,62.62Z"/><path d="M142.43,61.08a12,12,0,0,1,4.08.87,7.63,7.63,0,0,0,2.73.48,5.59,5.59,0,0,0,1.83-.22,3.16,3.16,0,0,0,1.1-.74s.14,0,.28,0,.21.14.21.2a4,4,0,0,1-.39,1.3,4.17,4.17,0,0,1-.76,1.29,1.6,1.6,0,0,1-.62.33,3.91,3.91,0,0,1-1,.1h-1.16a.1.1,0,0,0-.1.08q0,.08,0,.11a8.08,8.08,0,0,1,.48,2.73,9.37,9.37,0,0,1-.38,2.78,6.41,6.41,0,0,1-1,2,8,8,0,0,1-1.44,1.44,9.92,9.92,0,0,1-5.19,2,2.36,2.36,0,0,1-.39,0l-.42,0a1.83,1.83,0,0,0-.88.4,1,1,0,0,0-.47.84,1.18,1.18,0,0,0,.56,1,2.87,2.87,0,0,0,1.32.46q.56.07,2.41.22t3.3.33a11.86,11.86,0,0,1,2.15.41,6,6,0,0,1,1.29.63,5.11,5.11,0,0,1,1.08.95,4.08,4.08,0,0,1,.77,1.38,5.59,5.59,0,0,1,.28,1.8,7.52,7.52,0,0,1-1.56,4.54A12.11,12.11,0,0,1,141,93.67,8.76,8.76,0,0,1,135.51,92,6.11,6.11,0,0,1,133.73,90a5.26,5.26,0,0,1-.62-2.43,5.91,5.91,0,0,1,.11-1,2.46,2.46,0,0,1,.23-.8,12.55,12.55,0,0,1,1.75-1.59q1.32-1.05,2.95-2.2,0-.14,0-.14a5,5,0,0,1-2.2-1.35,3.14,3.14,0,0,1-.92-1.77,4.05,4.05,0,0,1,.14-.73l.69-.41,1-.6.86-.54q.49-.32.73-.5s.06-.07,0-.14,0-.11-.09-.11a6.66,6.66,0,0,1-3.21-2.46,7.54,7.54,0,0,1-1.21-4.44,7.37,7.37,0,0,1,.68-3.09,6.76,6.76,0,0,1,2-2.53,10.54,10.54,0,0,1,2.84-1.47A8.33,8.33,0,0,1,142.43,61.08ZM143,91.47a8.74,8.74,0,0,0,2.82-.42,4.77,4.77,0,0,0,1.91-1.12,4.69,4.69,0,0,0,1-1.55,4.86,4.86,0,0,0,.33-1.8,3.55,3.55,0,0,0-2.4-3.55,12.11,12.11,0,0,0-2.78-.6,27,27,0,0,0-3.18-.21,2.93,2.93,0,0,0-1.68.48q-2.68,1.71-2.68,3.79A4.26,4.26,0,0,0,138,89.89,7.6,7.6,0,0,0,143,91.47Zm-2.11-28.85A2.89,2.89,0,0,0,138.35,64a6.41,6.41,0,0,0-.92,3.6,9.74,9.74,0,0,0,.3,2.44,7.75,7.75,0,0,0,.87,2.1,4.34,4.34,0,0,0,1.49,1.49,4,4,0,0,0,2.09.56,2.86,2.86,0,0,0,2.21-.87q1.29-1.22,1.29-4.32a10.93,10.93,0,0,0-.15-1.81,7.92,7.92,0,0,0-.5-1.72,5.42,5.42,0,0,0-.88-1.47,3.9,3.9,0,0,0-1.37-1A4.52,4.52,0,0,0,140.89,62.62Z"/><path d="M164.31,79.47a1,1,0,0,1,0,.55,1.1,1.1,0,0,1-.16.55l-2-.07q-1.61-.07-2.74-.07t-2.77.07l-1.84.07a1.49,1.49,0,0,1,0-1.1,8.2,8.2,0,0,0,2-.43,1.09,1.09,0,0,0,.61-.55,4,4,0,0,0,.25-1.27q.11-1.35.11-7.3,0-1.07,0-2.61t0-1.85a1.48,1.48,0,0,0-.33-1l-.2-.18-.19-.15a1.53,1.53,0,0,0-.25-.14l-.24-.11-.29-.11-.28-.1-.33-.11-.33-.1a1,1,0,0,1,0-.52,1.45,1.45,0,0,1,.12-.49,16.44,16.44,0,0,0,2.95-.43,17.11,17.11,0,0,0,3.1-1q0,1.72,0,8.26,0,5.89,0,8.16a2.1,2.1,0,0,0,.23,1.07,1.31,1.31,0,0,0,.73.56A11.22,11.22,0,0,0,164.31,79.47Zm-2.84-25.24a3,3,0,0,1-.29,1.29,1.92,1.92,0,0,1-.72.87,2.14,2.14,0,0,1-1,.21,2.59,2.59,0,0,1-1.08-.07,1.68,1.68,0,0,1-.74-.7,2.78,2.78,0,0,1-.36-1.12,3.21,3.21,0,0,1,0-.74,1.19,1.19,0,0,1,.22-.6,2.83,2.83,0,0,1,1-.56,3.28,3.28,0,0,1,1.2-.26,2.2,2.2,0,0,1,.85.16,1.69,1.69,0,0,1,.5.28,1.38,1.38,0,0,1,.32.58A2.33,2.33,0,0,1,161.48,54.23Z"/><path d="M180.19,61.56a29.85,29.85,0,0,0-.59,4.9q-.07.11-.51.13t-.54-.08a9.53,9.53,0,0,0-.59-2.44,2.66,2.66,0,0,0-1.08-1.25,4.44,4.44,0,0,0-2.25-.53,3,3,0,0,0-2.08.77,2.64,2.64,0,0,0-.85,2.06,3.53,3.53,0,0,0,.16,1.14,3.12,3.12,0,0,0,.62,1,5.78,5.78,0,0,0,1.29,1.05A22.13,22.13,0,0,0,176,69.48a18.68,18.68,0,0,1,2.42,1.38,6.47,6.47,0,0,1,1.49,1.37,4.4,4.4,0,0,1,.74,1.39,5.57,5.57,0,0,1,.21,1.58,5,5,0,0,1-.95,3,6.18,6.18,0,0,1-2.62,2.06,9.2,9.2,0,0,1-3.73.73,14.15,14.15,0,0,1-2.61-.26,10.51,10.51,0,0,1-2.27-.66,15.08,15.08,0,0,1-.46-2.47q-.22-1.75-.27-2.71a1.1,1.1,0,0,1,.52-.23,1,1,0,0,1,.59-.06,9,9,0,0,0,1.17,2.91,4.89,4.89,0,0,0,1.72,1.61,4.76,4.76,0,0,0,2.31.59,3.51,3.51,0,0,0,2.36-.77,2.52,2.52,0,0,0,.9-2,3.1,3.1,0,0,0-.78-2.17,10.89,10.89,0,0,0-2.91-2,12.77,12.77,0,0,1-4.08-2.88A5.28,5.28,0,0,1,169,64.5a5.3,5.3,0,0,1,1.29-1.76,6,6,0,0,1,2.17-1.21,9.27,9.27,0,0,1,3-.45,27.55,27.55,0,0,1,2.93.25A10.39,10.39,0,0,0,180.19,61.56Z"/><path d="M214.49,68.29a1.52,1.52,0,0,1-.35-.46,2.81,2.81,0,0,1-.23-.5.5.5,0,0,1,.06-.23.35.35,0,0,1,.13-.16,8.81,8.81,0,0,0,1.86.19,8.44,8.44,0,0,0,1.86-.18,5.73,5.73,0,0,0,1.51-.59,5.19,5.19,0,0,0,2.23-2.48,9.81,9.81,0,0,0,.66-3.81,10.26,10.26,0,0,0-.43-3.09,7,7,0,0,0-1.34-2.44A5.86,5.86,0,0,0,218,52.89a9.81,9.81,0,0,0-3.54-.59,4.62,4.62,0,0,0-1.86.23.48.48,0,0,0-.23.21,1,1,0,0,0-.15.41q-.09,2.3-.09,11.33,0,1.17,0,4t0,4.69q0,1.82.07,3.13a6.28,6.28,0,0,0,.22,1.57,1.4,1.4,0,0,0,.5.74,3.42,3.42,0,0,0,1.05.42,24.89,24.89,0,0,0,2.65.39q.11.11.08.57t-.13.53l-2.94-.07q-2.36-.07-3.4-.07-1.23,0-3.44.07l-2.65.07Q204,80.46,204,80a.87.87,0,0,1,.1-.55,19.58,19.58,0,0,0,2.39-.34,2.52,2.52,0,0,0,.88-.39,1.51,1.51,0,0,0,.45-.77,7.09,7.09,0,0,0,.21-1.62q.2-3.36.2-11,0-8.88-.09-10.37a4.58,4.58,0,0,0-.37-1.85,1.76,1.76,0,0,0-1.22-.74,18.28,18.28,0,0,0-2.34-.39,1.22,1.22,0,0,1,0-.57,1.61,1.61,0,0,1,.12-.53l2.24.07q2,.07,3.32.07l3.7,0,3.74,0a16.2,16.2,0,0,1,1.93.12,11.36,11.36,0,0,1,2.22.53,6.82,6.82,0,0,1,2.09,1.08,7.79,7.79,0,0,1,3,6.38,10.2,10.2,0,0,1-.28,2.4,8.49,8.49,0,0,1-1.84,3.66,8.76,8.76,0,0,1-2.77,2.2,10.8,10.8,0,0,1-5,1.2A6.67,6.67,0,0,1,214.49,68.29Z"/><path d="M239.25,67.95a5.06,5.06,0,0,0-.77-2.79,3.83,3.83,0,0,0-1.57-1.32,5,5,0,0,0-2.12-.45,3,3,0,0,0-1.83.43,3.87,3.87,0,0,0-1,1.25,13,13,0,0,0-1,2.2q-.07.09-.37,0a2.05,2.05,0,0,1-.57-.4.61.61,0,0,1-.25-.46,5.75,5.75,0,0,1,.41-1.44,3.31,3.31,0,0,1,.6-1.15,16.6,16.6,0,0,1,3.36-1.89,8.14,8.14,0,0,1,2.88-.8,5.14,5.14,0,0,1,4.56,2.45,9.14,9.14,0,0,1,1.05,4.76q0,1.36-.07,4.28t-.07,3.74a2.43,2.43,0,0,0,.41,1.43,1.56,1.56,0,0,0,1.37.59,5.2,5.2,0,0,0,1.63-.25,2.32,2.32,0,0,1,0,.66,1.34,1.34,0,0,1-.16.6,5.19,5.19,0,0,1-1.87,1.26,5.51,5.51,0,0,1-2,.42,2.38,2.38,0,0,1-2.36-1.24,3.11,3.11,0,0,1-.34-1.16q0-.09-.14-.12s0,0,0,0q-4,2.5-5.57,2.5a3.53,3.53,0,0,1-2.54-1.15A5.6,5.6,0,0,1,229.69,78a6.18,6.18,0,0,1-.42-2.27,5.7,5.7,0,0,1,.24-1.36,6.61,6.61,0,0,1,.43-1.24,33.29,33.29,0,0,1,4.46-1.58A41.92,41.92,0,0,0,239,70q.11,0,.29-.43,0-.23,0-.51t0-.6Q239.25,68.1,239.25,67.95Zm-.06,3.41a.18.18,0,0,0-.06-.11s-.08-.05-.12,0l-1.22.41-1.51.52-1.2.44a12.47,12.47,0,0,0-1.2.5,3,3,0,0,0-.62.39q-.14.07-.29.59a3.4,3.4,0,0,0,.79,3.33,3.2,3.2,0,0,0,2.42,1,4.23,4.23,0,0,0,1.19-.21,5.21,5.21,0,0,0,1.26-.56,1.15,1.15,0,0,0,.48-1.05Q239.19,75.3,239.19,71.36Z"/><path d="M260.27,61.08a3,3,0,0,1,1.28.28,2,2,0,0,1,.88.73,1.32,1.32,0,0,1,0,.37,1.77,1.77,0,0,1,0,.4,5.66,5.66,0,0,1-.59,1.42,7,7,0,0,1-.9,1.41s-.06.06-.17.11a.77.77,0,0,1-.22.08,6.49,6.49,0,0,0-1.47-1,3.3,3.3,0,0,0-1.51-.4,2,2,0,0,0-1.33.57,5.19,5.19,0,0,0-1.12,1.44,2.38,2.38,0,0,0-.3.75,4,4,0,0,0-.12,1q0,7.29.09,9.21a2.77,2.77,0,0,0,.28,1.09,1.1,1.1,0,0,0,.73.49,12.87,12.87,0,0,0,2.73.48,1,1,0,0,1,0,.57q0,.44-.18.53l-2.16-.07q-2-.07-3.13-.07-2.24,0-4.7.14a1.49,1.49,0,0,1,0-1.1,5.72,5.72,0,0,0,1.78-.39,1.07,1.07,0,0,0,.59-.4,2.06,2.06,0,0,0,.27-.94q.15-1.25.15-8.26,0-3.18-.06-3.89a2.13,2.13,0,0,0-.13-.49,1.73,1.73,0,0,0-.33-.47,2.73,2.73,0,0,0-.75-.52,7.84,7.84,0,0,0-1.28-.49,3,3,0,0,1,.05-.5q.05-.3.15-.36a15.1,15.1,0,0,0,3-.63A12.44,12.44,0,0,0,254.5,61a.28.28,0,0,1,.16.06.18.18,0,0,1,.09.13q-.11,1.61-.11,3.79a.1.1,0,0,0,.08.09.09.09,0,0,0,.12,0q.83-1,1.53-1.73A11.93,11.93,0,0,1,257.82,62,3.88,3.88,0,0,1,260.27,61.08Z"/><path d="M277.45,61.56a29.85,29.85,0,0,0-.59,4.9q-.07.11-.51.13t-.54-.08a9.53,9.53,0,0,0-.59-2.44,2.66,2.66,0,0,0-1.08-1.25,4.44,4.44,0,0,0-2.25-.53,3,3,0,0,0-2.08.77,2.64,2.64,0,0,0-.85,2.06,3.53,3.53,0,0,0,.16,1.14,3.12,3.12,0,0,0,.62,1A5.78,5.78,0,0,0,271,68.31a22.13,22.13,0,0,0,2.19,1.17,18.68,18.68,0,0,1,2.42,1.38,6.47,6.47,0,0,1,1.49,1.37,4.4,4.4,0,0,1,.74,1.39,5.57,5.57,0,0,1,.21,1.58,5,5,0,0,1-.95,3,6.18,6.18,0,0,1-2.62,2.06,9.2,9.2,0,0,1-3.73.73,14.15,14.15,0,0,1-2.61-.26,10.51,10.51,0,0,1-2.27-.66,15.08,15.08,0,0,1-.46-2.47q-.22-1.75-.27-2.71a1.1,1.1,0,0,1,.52-.23,1,1,0,0,1,.59-.06,9,9,0,0,0,1.17,2.91,4.89,4.89,0,0,0,1.72,1.61,4.76,4.76,0,0,0,2.31.59,3.51,3.51,0,0,0,2.36-.77,2.52,2.52,0,0,0,.9-2,3.1,3.1,0,0,0-.78-2.17,10.89,10.89,0,0,0-2.91-2,12.77,12.77,0,0,1-4.08-2.88,5.28,5.28,0,0,1-.71-5.42,5.3,5.3,0,0,1,1.29-1.76,6,6,0,0,1,2.17-1.21,9.27,9.27,0,0,1,3-.45,27.55,27.55,0,0,1,2.93.25A10.39,10.39,0,0,0,277.45,61.56Z"/><path d="M291.18,79.47a1,1,0,0,1,0,.55,1.1,1.1,0,0,1-.16.55l-2-.07q-1.61-.07-2.74-.07t-2.77.07l-1.84.07a1.49,1.49,0,0,1,0-1.1,8.2,8.2,0,0,0,2-.43,1.09,1.09,0,0,0,.61-.55,4,4,0,0,0,.25-1.27q.11-1.35.11-7.3,0-1.07,0-2.61t0-1.85a1.48,1.48,0,0,0-.33-1l-.2-.18-.19-.15a1.53,1.53,0,0,0-.25-.14l-.24-.11-.29-.11-.28-.1-.33-.11-.33-.1a1,1,0,0,1,0-.52,1.45,1.45,0,0,1,.12-.49A16.44,16.44,0,0,0,285.2,62a17.11,17.11,0,0,0,3.1-1q0,1.72,0,8.26,0,5.89,0,8.16a2.1,2.1,0,0,0,.23,1.07,1.31,1.31,0,0,0,.73.56A11.22,11.22,0,0,0,291.18,79.47Zm-2.84-25.24a3,3,0,0,1-.29,1.29,1.92,1.92,0,0,1-.72.87,2.14,2.14,0,0,1-1,.21,2.59,2.59,0,0,1-1.08-.07,1.68,1.68,0,0,1-.74-.7,2.78,2.78,0,0,1-.36-1.12,3.21,3.21,0,0,1,0-.74,1.19,1.19,0,0,1,.22-.6,2.83,2.83,0,0,1,1-.56,3.28,3.28,0,0,1,1.2-.26,2.2,2.2,0,0,1,.85.16,1.69,1.69,0,0,1,.5.28,1.38,1.38,0,0,1,.32.58A2.33,2.33,0,0,1,288.34,54.23Z"/><path d="M293.81,79.47a15.15,15.15,0,0,0,1.82-.39,1.12,1.12,0,0,0,.77-.65,4,4,0,0,0,.24-1.37q.19-5.18.11-10.79a2.18,2.18,0,0,0-.39-1.44,4.61,4.61,0,0,0-2.21-1,.93.93,0,0,1,0-.53q.08-.39.19-.43a15.9,15.9,0,0,0,3.18-.71A14.36,14.36,0,0,0,300.19,61s.05,0,.09.06a.2.2,0,0,1,.06.13q0,.12,0,1.29t0,1.58s0,.09.1.12.11,0,.13,0a19.42,19.42,0,0,1,3.65-2.34,6.93,6.93,0,0,1,2.83-.79,4.92,4.92,0,0,1,2.88.87,6,6,0,0,1,2,2.35.15.15,0,0,0,.15.07.25.25,0,0,0,.18-.07,20.07,20.07,0,0,1,3.68-2.37,7.29,7.29,0,0,1,3.09-.85,4.93,4.93,0,0,1,4.2,2,9.2,9.2,0,0,1,1.51,5.52q.06,3.23.06,9.22a1.05,1.05,0,0,0,.42,1,2.05,2.05,0,0,0,.66.31,6.39,6.39,0,0,0,.71.18l1.13.18q.08.11,0,.57t-.2.53l-1.85-.07q-1.52-.07-2.61-.07-1.44,0-4.61.14a1.49,1.49,0,0,1,0-1.1l.57-.12.52-.11.4-.11.43-.15a.91.91,0,0,0,.6-.71,11.58,11.58,0,0,0,.16-2q0-.57,0-1.84t0-2.13q0-.86,0-1.9T321,68.59a9.64,9.64,0,0,0-.13-1.17,4.71,4.71,0,0,0-.36-1.28,4.55,4.55,0,0,0-.76-1.15,3.39,3.39,0,0,0-1.3-.88,4.94,4.94,0,0,0-1.86-.33,6.11,6.11,0,0,0-4.12,1.72q-.14.07-.14.39a19.78,19.78,0,0,1,.19,3.36q0,6.62.09,8.59a1.1,1.1,0,0,0,.73,1.15,9.17,9.17,0,0,0,2.06.48.86.86,0,0,1,.05.57.81.81,0,0,1-.19.53q-.59,0-2.13-.07t-2.63-.07q-.88,0-2.43.07l-1.89.07a.86.86,0,0,1-.12-.55.77.77,0,0,1,.12-.55,14.65,14.65,0,0,0,1.83-.39,1,1,0,0,0,.63-.51,4.08,4.08,0,0,0,.24-1.26q.12-1.65.09-5.43a34,34,0,0,0-.23-4.75,6,6,0,0,0-.21-.74,5.77,5.77,0,0,0-.33-.76,3.15,3.15,0,0,0-.53-.73,4.34,4.34,0,0,0-.72-.6,3.25,3.25,0,0,0-1-.42,5,5,0,0,0-1.26-.15,5.77,5.77,0,0,0-1.83.33,5.91,5.91,0,0,0-1.82,1,1.6,1.6,0,0,0-.76,1.25q0,8.92,0,11.32a3.35,3.35,0,0,0,.09.65,1.21,1.21,0,0,0,.29.49,1.25,1.25,0,0,0,.63.35l.43.11.69.12.7.11q.11.11.06.55a1,1,0,0,1-.15.55q-.46,0-2-.07t-2.58-.07q-1.41,0-2.79.07t-1.86.07a.93.93,0,0,1-.11-.57Q293.7,79.54,293.81,79.47Z"/><path d="M341.65,61.08a8.93,8.93,0,0,1,4.8,1.27,8.1,8.1,0,0,1,3.09,3.41,10.91,10.91,0,0,1,1,4.82,11.17,11.17,0,0,1-1.13,5,9.06,9.06,0,0,1-3.29,3.66,11.53,11.53,0,0,1-2.54,1.21,8.73,8.73,0,0,1-2.88.52,11.19,11.19,0,0,1-2.7-.31,8.56,8.56,0,0,1-2.2-.85,8.18,8.18,0,0,1-1.71-1.3,8,8,0,0,1-1.28-1.64A10.3,10.3,0,0,1,332,75a12,12,0,0,1-.5-2,13.7,13.7,0,0,1-.16-2.09A9.06,9.06,0,0,1,335.46,63a11.63,11.63,0,0,1,2.92-1.37A10.84,10.84,0,0,1,341.65,61.08ZM340,62.66a4.36,4.36,0,0,0-1.23.19,3,3,0,0,0-1.07.53q-2.45,1.62-2.45,6.34a13.7,13.7,0,0,0,.85,5,7.91,7.91,0,0,0,2.36,3.4,5.31,5.31,0,0,0,3.41,1.21,4.08,4.08,0,0,0,2.93-1.05,5.28,5.28,0,0,0,1.4-2.43,16.16,16.16,0,0,0-.37-8.62,7.48,7.48,0,0,0-2.3-3.35A5.49,5.49,0,0,0,340,62.66Z"/><path d="M354.65,79.47a14.06,14.06,0,0,0,1.68-.34q.93-.3,1-1.77.11-1.78.11-7.87,0-2.89-.11-4.08a1.5,1.5,0,0,0-.6-.87,7.12,7.12,0,0,0-1.79-.81,1.29,1.29,0,0,1,0-.47.62.62,0,0,1,.16-.39,17.54,17.54,0,0,0,3.13-.73,14.37,14.37,0,0,0,2.68-1.1s.06,0,.11.09a.26.26,0,0,1,.08.16,23.51,23.51,0,0,0-.14,2.78.18.18,0,0,0,.11.19.07.07,0,0,0,.08,0,18.2,18.2,0,0,1,3.64-2.34,7.19,7.19,0,0,1,2.94-.79,5.06,5.06,0,0,1,4.46,2.45,10.38,10.38,0,0,1,1.21,5.61q0,6.91,0,8.74a.94.94,0,0,0,.57,1,8.64,8.64,0,0,0,2.25.57,1,1,0,0,1,0,.55,1,1,0,0,1-.18.55l-1.54-.07q-1.43-.07-2.88-.07t-4.75.14a1.17,1.17,0,0,1-.09-.55,1,1,0,0,1,.09-.55,9.82,9.82,0,0,0,1.86-.34,1.08,1.08,0,0,0,.72-.53,3,3,0,0,0,.24-1.19,82.6,82.6,0,0,0-.14-9.69,4.46,4.46,0,0,0-1.35-2.93,4.12,4.12,0,0,0-2.92-1.05,5.85,5.85,0,0,0-2.1.39,5.62,5.62,0,0,0-1.84,1.14,1.23,1.23,0,0,0-.37.6A4.24,4.24,0,0,0,361,67q0,8.12.09,10.28a3.31,3.31,0,0,0,.22,1.26,1.19,1.19,0,0,0,.64.56,12.35,12.35,0,0,0,2,.39,1.05,1.05,0,0,1,0,.53,1.21,1.21,0,0,1-.14.57l-1.67-.07q-1.51-.07-3-.07t-3,.07l-1.55.07a1.49,1.49,0,0,1,0-1.1Z"/><path d="M388.49,79.47a1,1,0,0,1,0,.55,1.1,1.1,0,0,1-.16.55l-2-.07q-1.61-.07-2.74-.07t-2.77.07l-1.84.07a1.49,1.49,0,0,1,0-1.1,8.2,8.2,0,0,0,2-.43,1.09,1.09,0,0,0,.61-.55,4,4,0,0,0,.25-1.27q.11-1.35.11-7.3,0-1.07,0-2.61t0-1.85a1.48,1.48,0,0,0-.33-1l-.2-.18-.19-.15a1.53,1.53,0,0,0-.25-.14l-.24-.11-.29-.11-.28-.1-.33-.11-.33-.1a1,1,0,0,1,0-.52,1.45,1.45,0,0,1,.12-.49,16.44,16.44,0,0,0,2.95-.43,17.11,17.11,0,0,0,3.1-1q0,1.72,0,8.26,0,5.89,0,8.16a2.1,2.1,0,0,0,.23,1.07,1.31,1.31,0,0,0,.73.56A11.22,11.22,0,0,0,388.49,79.47Zm-2.84-25.24a3,3,0,0,1-.29,1.29,1.92,1.92,0,0,1-.72.87,2.14,2.14,0,0,1-1,.21,2.59,2.59,0,0,1-1.08-.07,1.68,1.68,0,0,1-.74-.7,2.78,2.78,0,0,1-.36-1.12,3.21,3.21,0,0,1,0-.74,1.19,1.19,0,0,1,.22-.6,2.83,2.83,0,0,1,1-.56,3.28,3.28,0,0,1,1.2-.26,2.2,2.2,0,0,1,.85.16,1.69,1.69,0,0,1,.5.28,1.38,1.38,0,0,1,.32.58A2.33,2.33,0,0,1,385.65,54.23Z"/><path d="M401.83,67.95a5.06,5.06,0,0,0-.77-2.79,3.83,3.83,0,0,0-1.57-1.32,5,5,0,0,0-2.12-.45,3,3,0,0,0-1.83.43,3.87,3.87,0,0,0-1,1.25,13,13,0,0,0-1,2.2q-.07.09-.37,0a2.05,2.05,0,0,1-.57-.4.61.61,0,0,1-.25-.46,5.75,5.75,0,0,1,.41-1.44,3.31,3.31,0,0,1,.6-1.15,16.6,16.6,0,0,1,3.36-1.89,8.14,8.14,0,0,1,2.88-.8,5.14,5.14,0,0,1,4.56,2.45,9.14,9.14,0,0,1,1.05,4.76q0,1.36-.07,4.28t-.07,3.74a2.43,2.43,0,0,0,.41,1.43,1.56,1.56,0,0,0,1.37.59,5.2,5.2,0,0,0,1.63-.25,2.32,2.32,0,0,1,0,.66,1.34,1.34,0,0,1-.16.6,5.19,5.19,0,0,1-1.87,1.26,5.51,5.51,0,0,1-2,.42,2.38,2.38,0,0,1-2.36-1.24,3.11,3.11,0,0,1-.34-1.16q0-.09-.14-.12s0,0,0,0q-4,2.5-5.57,2.5a3.53,3.53,0,0,1-2.54-1.15A5.6,5.6,0,0,1,392.27,78a6.18,6.18,0,0,1-.42-2.27,5.7,5.7,0,0,1,.24-1.36,6.61,6.61,0,0,1,.43-1.24A33.29,33.29,0,0,1,397,71.55,41.92,41.92,0,0,0,401.54,70q.11,0,.29-.43,0-.23,0-.51t0-.6Q401.83,68.1,401.83,67.95Zm-.06,3.41a.18.18,0,0,0-.06-.11s-.08-.05-.12,0l-1.22.41-1.51.52-1.2.44a12.47,12.47,0,0,0-1.2.5,3,3,0,0,0-.62.39q-.14.07-.29.59a3.4,3.4,0,0,0,.79,3.33,3.2,3.2,0,0,0,2.42,1,4.23,4.23,0,0,0,1.19-.21,5.21,5.21,0,0,0,1.26-.56,1.15,1.15,0,0,0,.48-1.05Q401.77,75.3,401.77,71.36Z"/><path d="M427.54,76l.19.2a2.06,2.06,0,0,1,0,.63,1.5,1.5,0,0,1-.15.52A11.26,11.26,0,0,1,423.87,80,9.48,9.48,0,0,1,420,81a7.52,7.52,0,0,1-5.75-2.3,8.64,8.64,0,0,1-2-3.37,13.43,13.43,0,0,1-.63-4.11,11.22,11.22,0,0,1,1.11-5.14,8.77,8.77,0,0,1,3.06-3.46,9.36,9.36,0,0,1,2.49-1.1,9.22,9.22,0,0,1,2.55-.43,6.46,6.46,0,0,1,1.79.24,5.47,5.47,0,0,1,1.46.64,6,6,0,0,1,1.15,1,7,7,0,0,1,.88,1.16,8.94,8.94,0,0,1,.63,1.27,10.43,10.43,0,0,1,.42,1.27q.15.59.25,1.18.11.3.68.43a1,1,0,0,1-.08.47.88.88,0,0,1-.22.43,28.14,28.14,0,0,1-5,.66q-3.65.27-7.47.41-.13,0-.21.16a.85.85,0,0,0-.08.36,8.62,8.62,0,0,0,.54,2.72,7.13,7.13,0,0,0,1.32,2.31A6.66,6.66,0,0,0,422.17,78a8.39,8.39,0,0,0,2.8-.46A8.1,8.1,0,0,0,427.54,76Zm-8.21-13.39a3.45,3.45,0,0,0-2.84,1.54,7.69,7.69,0,0,0-1.33,4.18.46.46,0,0,0,.06.22q.06.11.13.11,1.28,0,4.35-.06a28.09,28.09,0,0,0,3.76-.27.43.43,0,0,0,.29-.39,8.62,8.62,0,0,0-.45-1.87,7.68,7.68,0,0,0-.86-1.71,4.17,4.17,0,0,0-1.34-1.27A3.4,3.4,0,0,0,419.33,62.62Z"/></g></svg>